M48
;Layer_Color=9474304
;FILE_FORMAT=2:4
INCH
;TYPE=PLATED
T1F00S00C0.0197
T2F00S00C0.0200
T3F00S00C0.0280
T4F00S00C0.0315
T5F00S00C0.0323
T6F00S00C0.0354
T7F00S00C0.0394
T8F00S00C0.0512
T9F00S00C0.0591
T10F00S00C0.1181
T11F00S00C0.1201
T12F00S00C0.1402
%
T01
X029664Y033664
Y034136
X030136
Y033664
X042164Y040964
X042636
Y041436
X042164
T02
X044500Y019000
Y019750
Y020500
Y021250
X020500Y018250
X020000
X019500
X018750Y018000
X018250Y017750
X018000Y017250
X035250Y044250
X035750
X036250
Y043750
X036750
Y044250
X037250
Y043250
X037750
Y043750
X042900Y042600
X044400
X044800Y042250
X045200Y041900
X045800Y037950
X046300
X045800Y037400
T03
X018100Y015600
X040350Y015550
X038763Y015737
X040900Y016800
X041000Y017500
X040500
X042450Y027450
X042200Y028550
X032857Y028457
X033522Y026700
X046800Y023350
X030731Y027569
X030000Y027700
X023400Y030100
X022600Y016400
X018100
X035900Y031500
X040900Y035200
X041400Y037550
X043200Y038400
X043500Y039000
X043000Y039350
X042006Y039844
X040800Y041200
X040197Y041050
X040585Y042535
X040500Y043500
X038800Y042750
X038200Y042500
X037253Y040547
X036854Y040000
X039250Y039200
X043850Y040800
X044300Y041400
X045350Y039850
X046815Y032265
T04
X033290Y027339
X026754
T05
X038431Y044200
X039219
X040006
X040794
X041581
X042368
T06
X031600Y023000
X032600
X033600
X034600
X030600
X029600
X028600
X027600
X026600
X025600
T07
X031798Y016859
X033372Y017175
X034328Y017465
X035809Y018074
X036691Y018546
X038024Y019443
X038797Y020077
X039923Y021203
X040557Y021977
X041454Y023309
X041926Y024191
X042535Y025672
X042825Y026628
X043141Y028202
X043239Y029198
Y030802
X041250Y030500
Y029500
X041128Y028300
X040932Y027320
X040581Y026152
X040199Y025228
X039628Y024166
X039072Y023334
X038304Y022404
X037596Y021696
X036666Y020928
X035834Y020372
X034772Y019801
X033848Y019419
X032680Y019068
X031700Y018872
X046800Y024614
Y026386
Y029114
Y030886
X030500Y018750
X029500
X028300Y018872
X027320Y019068
X026152Y019419
X025228Y019801
X024166Y020372
X023334Y020928
X022404Y021696
X021696Y022404
X020928Y023334
X020372Y024166
X019801Y025228
X019419Y026152
X019068Y027320
X018872Y028300
X018750Y029500
Y030500
X016761Y030802
Y029198
X016859Y028202
X017175Y026628
X017465Y025672
X018074Y024191
X018546Y023309
X019443Y021976
X020077Y021203
X021203Y020077
X021977Y019443
X023309Y018546
X024191Y018074
X025672Y017465
X026628Y017175
X028202Y016859
X029198Y016761
X030802Y016761
X030500Y041250
X029500
X028300Y041128
X027320Y040932
X026152Y040581
X025228Y040199
X024166Y039628
X023334Y039072
X022404Y038304
X021696Y037596
X020928Y036666
X020372Y035834
X019801Y034772
X019419Y033848
X019068Y032680
X018872Y031700
X016859Y031798
X017175Y033372
X017465Y034328
X018074Y035809
X018546Y036691
X019443Y038023
X020077Y038797
X021203Y039923
X021977Y040557
X023309Y041454
X024191Y041926
X025672Y042535
X026628Y042825
X028202Y043141
X029198Y043239
X030802Y043239
X031798Y043141
X033372Y042825
X034328Y042535
X035809Y041926
X036691Y041454
X038024Y040557
X038797Y039923
X039923Y038797
X040557Y038023
X041454Y036691
X041926Y035809
X042535Y034328
X042825Y033372
X043141Y031798
X041128Y031700
X040932Y032680
X040581Y033848
X040199Y034772
X039628Y035834
X039072Y036666
X038304Y037596
X037596Y038304
X036666Y039072
X035834Y039628
X034772Y040199
X033848Y040581
X032680Y040932
X031700Y041128
X046800Y035386
Y033614
T08
X045816Y024122
Y026878
Y028622
Y031378
Y033122
Y035878
T09
X045578Y017232
Y019200
Y021168
Y038832
Y040800
Y042769
T10
X044200Y015972
Y022428
Y037572
Y044028
T11
X016800Y017949
X018690Y019228
X019226Y041310
X017946Y043200
T12
X016800Y020409
X020407Y043200
M30
