%FSLAX24Y24*%
%MOIN*%
G70*
G01*
G75*
G04 Layer_Color=16711935*
%ADD10C,0.0150*%
%ADD11C,0.0080*%
%ADD12C,0.0120*%
%ADD13R,0.0118X0.1024*%
%ADD14O,0.0669X0.0138*%
%ADD15R,0.0394X0.0433*%
%ADD16R,0.0394X0.1063*%
%ADD17R,0.0591X0.0512*%
%ADD18R,0.0571X0.0217*%
%ADD19R,0.0571X0.0217*%
%ADD20R,0.0433X0.0394*%
%ADD21R,0.0630X0.0335*%
G04:AMPARAMS|DCode=22|XSize=39.4mil|YSize=39.4mil|CornerRadius=9.8mil|HoleSize=0mil|Usage=FLASHONLY|Rotation=0.000|XOffset=0mil|YOffset=0mil|HoleType=Round|Shape=RoundedRectangle|*
%AMROUNDEDRECTD22*
21,1,0.0394,0.0197,0,0,0.0*
21,1,0.0197,0.0394,0,0,0.0*
1,1,0.0197,0.0098,-0.0098*
1,1,0.0197,-0.0098,-0.0098*
1,1,0.0197,-0.0098,0.0098*
1,1,0.0197,0.0098,0.0098*
%
%ADD22ROUNDEDRECTD22*%
%ADD23R,0.0945X0.1299*%
%ADD24R,0.0945X0.0394*%
%ADD25R,0.1102X0.1102*%
%ADD26O,0.0098X0.0276*%
%ADD27O,0.0276X0.0098*%
%ADD28R,0.0335X0.0866*%
%ADD29R,0.0866X0.0335*%
%ADD30C,0.0100*%
%ADD31C,0.0200*%
%ADD32C,0.0472*%
%ADD33C,0.0591*%
%ADD34C,0.0787*%
%ADD35C,0.0984*%
G04:AMPARAMS|DCode=36|XSize=137.8mil|YSize=137.8mil|CornerRadius=34.4mil|HoleSize=0mil|Usage=FLASHONLY|Rotation=90.000|XOffset=0mil|YOffset=0mil|HoleType=Round|Shape=RoundedRectangle|*
%AMROUNDEDRECTD36*
21,1,0.1378,0.0689,0,0,90.0*
21,1,0.0689,0.1378,0,0,90.0*
1,1,0.0689,0.0344,0.0344*
1,1,0.0689,0.0344,-0.0344*
1,1,0.0689,-0.0344,-0.0344*
1,1,0.0689,-0.0344,0.0344*
%
%ADD36ROUNDEDRECTD36*%
%ADD37C,0.1575*%
%ADD38C,0.1732*%
%ADD39R,0.0591X0.0591*%
%ADD40C,0.0500*%
%ADD41C,0.0400*%
%ADD42C,0.0394*%
G04:AMPARAMS|DCode=43|XSize=39.4mil|YSize=39.4mil|CornerRadius=9.8mil|HoleSize=0mil|Usage=FLASHONLY|Rotation=90.000|XOffset=0mil|YOffset=0mil|HoleType=Round|Shape=RoundedRectangle|*
%AMROUNDEDRECTD43*
21,1,0.0394,0.0197,0,0,90.0*
21,1,0.0197,0.0394,0,0,90.0*
1,1,0.0197,0.0098,0.0098*
1,1,0.0197,0.0098,-0.0098*
1,1,0.0197,-0.0098,-0.0098*
1,1,0.0197,-0.0098,0.0098*
%
%ADD43ROUNDEDRECTD43*%
%ADD44R,0.0512X0.0591*%
%ADD45C,0.0236*%
%ADD46C,0.0098*%
%ADD47C,0.0039*%
%ADD48C,0.0079*%
%ADD49R,0.0198X0.1104*%
%ADD50O,0.0749X0.0218*%
%ADD51R,0.0474X0.0513*%
%ADD52R,0.0474X0.1143*%
%ADD53R,0.0671X0.0592*%
%ADD54R,0.0651X0.0297*%
%ADD55R,0.0651X0.0297*%
%ADD56R,0.0513X0.0474*%
%ADD57R,0.0710X0.0415*%
G04:AMPARAMS|DCode=58|XSize=47.4mil|YSize=47.4mil|CornerRadius=13.8mil|HoleSize=0mil|Usage=FLASHONLY|Rotation=0.000|XOffset=0mil|YOffset=0mil|HoleType=Round|Shape=RoundedRectangle|*
%AMROUNDEDRECTD58*
21,1,0.0474,0.0197,0,0,0.0*
21,1,0.0197,0.0474,0,0,0.0*
1,1,0.0277,0.0098,-0.0098*
1,1,0.0277,-0.0098,-0.0098*
1,1,0.0277,-0.0098,0.0098*
1,1,0.0277,0.0098,0.0098*
%
%ADD58ROUNDEDRECTD58*%
%ADD59R,0.1025X0.1379*%
%ADD60R,0.1025X0.0474*%
%ADD61R,0.1182X0.1182*%
%ADD62O,0.0178X0.0356*%
%ADD63O,0.0356X0.0178*%
%ADD64R,0.0415X0.0946*%
%ADD65R,0.0946X0.0415*%
%ADD66C,0.0552*%
%ADD67C,0.0671*%
%ADD68C,0.0867*%
%ADD69C,0.1064*%
G04:AMPARAMS|DCode=70|XSize=145.8mil|YSize=145.8mil|CornerRadius=38.4mil|HoleSize=0mil|Usage=FLASHONLY|Rotation=90.000|XOffset=0mil|YOffset=0mil|HoleType=Round|Shape=RoundedRectangle|*
%AMROUNDEDRECTD70*
21,1,0.1458,0.0689,0,0,90.0*
21,1,0.0689,0.1458,0,0,90.0*
1,1,0.0769,0.0344,0.0344*
1,1,0.0769,0.0344,-0.0344*
1,1,0.0769,-0.0344,-0.0344*
1,1,0.0769,-0.0344,0.0344*
%
%ADD70ROUNDEDRECTD70*%
%ADD71C,0.1655*%
%ADD72C,0.1812*%
%ADD73R,0.0671X0.0671*%
%ADD74C,0.0580*%
G04:AMPARAMS|DCode=75|XSize=47.4mil|YSize=47.4mil|CornerRadius=13.8mil|HoleSize=0mil|Usage=FLASHONLY|Rotation=90.000|XOffset=0mil|YOffset=0mil|HoleType=Round|Shape=RoundedRectangle|*
%AMROUNDEDRECTD75*
21,1,0.0474,0.0197,0,0,90.0*
21,1,0.0197,0.0474,0,0,90.0*
1,1,0.0277,0.0098,0.0098*
1,1,0.0277,0.0098,-0.0098*
1,1,0.0277,-0.0098,-0.0098*
1,1,0.0277,-0.0098,0.0098*
%
%ADD75ROUNDEDRECTD75*%
%ADD76R,0.0592X0.0671*%
%ADD77C,0.0474*%
D51*
X10000Y12535D02*
D03*
Y11865D02*
D03*
X9400Y11865D02*
D03*
Y12535D02*
D03*
X12400Y8265D02*
D03*
Y8935D02*
D03*
X14800Y2935D02*
D03*
Y2265D02*
D03*
Y865D02*
D03*
Y1535D02*
D03*
X15000Y-5465D02*
D03*
Y-6135D02*
D03*
X9600Y-14135D02*
D03*
Y-13465D02*
D03*
X11800Y-13735D02*
D03*
Y-13065D02*
D03*
X11000Y9665D02*
D03*
Y10335D02*
D03*
X10400Y9665D02*
D03*
Y10335D02*
D03*
D53*
X7800Y-14174D02*
D03*
Y-13426D02*
D03*
X11650Y8904D02*
D03*
Y8156D02*
D03*
D56*
X16295Y11530D02*
D03*
X16965D02*
D03*
X11654Y13550D02*
D03*
X12323D02*
D03*
X16265Y6800D02*
D03*
X16935D02*
D03*
X16265Y-2200D02*
D03*
X16935D02*
D03*
X16265Y-9800D02*
D03*
X16935D02*
D03*
X-13335Y-13600D02*
D03*
X-12665D02*
D03*
X-13335Y-14400D02*
D03*
X-12665D02*
D03*
X35Y900D02*
D03*
X-635D02*
D03*
D58*
X1900Y1100D02*
D03*
X2700Y3900D02*
D03*
D61*
X-100D02*
D03*
D62*
X294Y3113D02*
D03*
X97D02*
D03*
X-100D02*
D03*
X-297D02*
D03*
X-494D02*
D03*
Y4687D02*
D03*
X-297D02*
D03*
X-100D02*
D03*
X97D02*
D03*
X294D02*
D03*
D63*
X687Y4294D02*
D03*
Y4097D02*
D03*
Y3900D02*
D03*
Y3703D02*
D03*
Y3506D02*
D03*
X-887D02*
D03*
Y3703D02*
D03*
Y3900D02*
D03*
Y4097D02*
D03*
Y4294D02*
D03*
D66*
X3290Y-2661D02*
D03*
X-3246D02*
D03*
X12369Y14200D02*
D03*
X11581D02*
D03*
X8432D02*
D03*
X9219D02*
D03*
X10006D02*
D03*
X10794D02*
D03*
D67*
X2600Y-7000D02*
D03*
X16800Y-3614D02*
D03*
Y-5386D02*
D03*
Y-886D02*
D03*
Y886D02*
D03*
Y5386D02*
D03*
Y3614D02*
D03*
X-1400Y-7000D02*
D03*
X-400D02*
D03*
X600D02*
D03*
X1600D02*
D03*
X3600D02*
D03*
X4600D02*
D03*
X-3400D02*
D03*
X-2400D02*
D03*
D68*
X15816Y-3122D02*
D03*
Y-5878D02*
D03*
Y-1378D02*
D03*
Y1378D02*
D03*
Y5878D02*
D03*
Y3122D02*
D03*
X-1798Y13141D02*
D03*
X-802Y13239D02*
D03*
X-3372Y12825D02*
D03*
X-4328Y12535D02*
D03*
X-1700Y11128D02*
D03*
X-2680Y10932D02*
D03*
X-4772Y10199D02*
D03*
X-3848Y10581D02*
D03*
X-6691Y11454D02*
D03*
X-5809Y11926D02*
D03*
X-5834Y9628D02*
D03*
X-6666Y9072D02*
D03*
X-8023Y10557D02*
D03*
X-8796Y9923D02*
D03*
X-8304Y7596D02*
D03*
X-7596Y8304D02*
D03*
X-9072Y6666D02*
D03*
X-9628Y5834D02*
D03*
X-10557Y8023D02*
D03*
X-9923Y8797D02*
D03*
X-11454Y6691D02*
D03*
X-11926Y5809D02*
D03*
X8023Y10557D02*
D03*
X8796Y9923D02*
D03*
X6691Y11454D02*
D03*
X5809Y11926D02*
D03*
X2680Y10932D02*
D03*
X1700Y11128D02*
D03*
X11454Y6691D02*
D03*
X11926Y5809D02*
D03*
X10557Y8023D02*
D03*
X9923Y8796D02*
D03*
X7596Y8304D02*
D03*
X8304Y7596D02*
D03*
X6666Y9072D02*
D03*
X5834Y9628D02*
D03*
X9628Y5834D02*
D03*
X9072Y6666D02*
D03*
X13141Y1798D02*
D03*
X13239Y802D02*
D03*
X13141Y-1798D02*
D03*
X13239Y-802D02*
D03*
X12825Y-3372D02*
D03*
X12535Y-4328D02*
D03*
X11454Y-6691D02*
D03*
X11926Y-5809D02*
D03*
X11250Y-500D02*
D03*
Y500D02*
D03*
X10932Y-2680D02*
D03*
X11128Y-1700D02*
D03*
X10581Y-3848D02*
D03*
X10199Y-4772D02*
D03*
X9072Y-6666D02*
D03*
X9628Y-5834D02*
D03*
X10557Y-8023D02*
D03*
X9923Y-8796D02*
D03*
X8023Y-10557D02*
D03*
X8796Y-9923D02*
D03*
X8304Y-7596D02*
D03*
X7596Y-8304D02*
D03*
X5834Y-9628D02*
D03*
X6666Y-9072D02*
D03*
X6691Y-11454D02*
D03*
X5809Y-11926D02*
D03*
X-6666Y-9072D02*
D03*
X-5834Y-9628D02*
D03*
X-3848Y-10581D02*
D03*
X-4772Y-10199D02*
D03*
X-2680Y-10932D02*
D03*
X-1700Y-11128D02*
D03*
X-11128Y-1700D02*
D03*
X-10932Y-2680D02*
D03*
X-7596Y-8304D02*
D03*
X-8304Y-7596D02*
D03*
X-9628Y-5834D02*
D03*
X-9072Y-6666D02*
D03*
X-10199Y-4772D02*
D03*
X-10581Y-3848D02*
D03*
X-10557Y-8023D02*
D03*
X-9923Y-8796D02*
D03*
X-6691Y-11454D02*
D03*
X-5809Y-11926D02*
D03*
X500Y-11250D02*
D03*
X-500D02*
D03*
X-11250Y-500D02*
D03*
Y500D02*
D03*
X1798Y-13141D02*
D03*
X802Y-13239D02*
D03*
X-3372Y-12825D02*
D03*
X-4328Y-12535D02*
D03*
X-1798Y-13141D02*
D03*
X-802Y-13239D02*
D03*
X-13141Y1798D02*
D03*
X-13239Y802D02*
D03*
X-13141Y-1798D02*
D03*
X-13239Y-802D02*
D03*
X-11454Y-6691D02*
D03*
X-11926Y-5809D02*
D03*
X-12825Y-3372D02*
D03*
X-12535Y-4328D02*
D03*
X10199Y4772D02*
D03*
X10581Y3848D02*
D03*
X11128Y1700D02*
D03*
X10932Y2680D02*
D03*
X3848Y10581D02*
D03*
X4772Y10199D02*
D03*
X12825Y3372D02*
D03*
X12535Y4328D02*
D03*
X4772Y-10199D02*
D03*
X3848Y-10581D02*
D03*
X3372Y12825D02*
D03*
X4328Y12535D02*
D03*
X1798Y13141D02*
D03*
X802Y13239D02*
D03*
X-500Y11250D02*
D03*
X500D02*
D03*
X-10581Y3848D02*
D03*
X-10199Y4772D02*
D03*
X3372Y-12825D02*
D03*
X4328Y-12535D02*
D03*
X1700Y-11128D02*
D03*
X2680Y-10932D02*
D03*
X-12825Y3372D02*
D03*
X-12535Y4328D02*
D03*
X-10932Y2680D02*
D03*
X-11128Y1700D02*
D03*
X-8023Y-10557D02*
D03*
X-8796Y-9923D02*
D03*
D69*
X15578Y-12768D02*
D03*
Y-10800D02*
D03*
Y-8831D02*
D03*
Y8831D02*
D03*
Y10800D02*
D03*
Y12768D02*
D03*
D70*
X14200Y-14028D02*
D03*
Y-7572D02*
D03*
Y7572D02*
D03*
Y14028D02*
D03*
D71*
X-10774Y11310D02*
D03*
X-12054Y13200D02*
D03*
X-11310Y-10772D02*
D03*
X-13200Y-12051D02*
D03*
D72*
X-9593Y13200D02*
D03*
X-13200Y-9591D02*
D03*
D73*
X16689Y4450D02*
D03*
X15311D02*
D03*
X16689Y0D02*
D03*
X15311D02*
D03*
X16689Y-4450D02*
D03*
X15311D02*
D03*
X-4400Y-7000D02*
D03*
D74*
X13850Y10800D02*
D03*
D75*
X-100Y6700D02*
D03*
X-2700Y2900D02*
D03*
Y1900D02*
D03*
Y3900D02*
D03*
Y4900D02*
D03*
Y5900D02*
D03*
Y900D02*
D03*
X900Y1100D02*
D03*
X-700Y-100D02*
D03*
X100D02*
D03*
X2700Y1900D02*
D03*
Y2900D02*
D03*
Y4900D02*
D03*
Y6100D02*
D03*
X1900Y6700D02*
D03*
X900D02*
D03*
X-1100D02*
D03*
X-2100D02*
D03*
D76*
X-674Y1700D02*
D03*
X74D02*
D03*
D77*
X12164Y10964D02*
D03*
X12636D02*
D03*
Y11436D02*
D03*
X12164D02*
D03*
X136Y4136D02*
D03*
X-336D02*
D03*
Y3664D02*
D03*
X136D02*
D03*
M02*
