%FSLAX24Y24*%
%MOIN*%
G70*
G01*
G75*
G04 Layer_Color=16711935*
%ADD10C,0.0150*%
%ADD11C,0.0080*%
%ADD12C,0.0120*%
%ADD13R,0.0118X0.1024*%
%ADD14O,0.0669X0.0138*%
%ADD15R,0.0394X0.0433*%
%ADD16R,0.0394X0.1063*%
%ADD17R,0.0591X0.0512*%
%ADD18R,0.0571X0.0217*%
%ADD19R,0.0571X0.0217*%
%ADD20R,0.0433X0.0394*%
%ADD21R,0.0630X0.0335*%
G04:AMPARAMS|DCode=22|XSize=39.4mil|YSize=39.4mil|CornerRadius=9.8mil|HoleSize=0mil|Usage=FLASHONLY|Rotation=0.000|XOffset=0mil|YOffset=0mil|HoleType=Round|Shape=RoundedRectangle|*
%AMROUNDEDRECTD22*
21,1,0.0394,0.0197,0,0,0.0*
21,1,0.0197,0.0394,0,0,0.0*
1,1,0.0197,0.0098,-0.0098*
1,1,0.0197,-0.0098,-0.0098*
1,1,0.0197,-0.0098,0.0098*
1,1,0.0197,0.0098,0.0098*
%
%ADD22ROUNDEDRECTD22*%
%ADD23R,0.0945X0.1299*%
%ADD24R,0.0945X0.0394*%
%ADD25R,0.1102X0.1102*%
%ADD26O,0.0098X0.0276*%
%ADD27O,0.0276X0.0098*%
%ADD28R,0.0335X0.0866*%
%ADD29R,0.0866X0.0335*%
%ADD30C,0.0100*%
%ADD31C,0.0200*%
%ADD32C,0.0472*%
%ADD33C,0.0591*%
%ADD34C,0.0787*%
%ADD35C,0.0984*%
G04:AMPARAMS|DCode=36|XSize=137.8mil|YSize=137.8mil|CornerRadius=34.4mil|HoleSize=0mil|Usage=FLASHONLY|Rotation=90.000|XOffset=0mil|YOffset=0mil|HoleType=Round|Shape=RoundedRectangle|*
%AMROUNDEDRECTD36*
21,1,0.1378,0.0689,0,0,90.0*
21,1,0.0689,0.1378,0,0,90.0*
1,1,0.0689,0.0344,0.0344*
1,1,0.0689,0.0344,-0.0344*
1,1,0.0689,-0.0344,-0.0344*
1,1,0.0689,-0.0344,0.0344*
%
%ADD36ROUNDEDRECTD36*%
%ADD37C,0.1575*%
%ADD38C,0.1732*%
%ADD39R,0.0591X0.0591*%
%ADD40C,0.0500*%
%ADD41C,0.0400*%
%ADD42C,0.0394*%
G04:AMPARAMS|DCode=43|XSize=39.4mil|YSize=39.4mil|CornerRadius=9.8mil|HoleSize=0mil|Usage=FLASHONLY|Rotation=90.000|XOffset=0mil|YOffset=0mil|HoleType=Round|Shape=RoundedRectangle|*
%AMROUNDEDRECTD43*
21,1,0.0394,0.0197,0,0,90.0*
21,1,0.0197,0.0394,0,0,90.0*
1,1,0.0197,0.0098,0.0098*
1,1,0.0197,0.0098,-0.0098*
1,1,0.0197,-0.0098,-0.0098*
1,1,0.0197,-0.0098,0.0098*
%
%ADD43ROUNDEDRECTD43*%
%ADD44R,0.0512X0.0591*%
%ADD45C,0.0236*%
%ADD46C,0.0098*%
%ADD47C,0.0039*%
%ADD48C,0.0079*%
%ADD49R,0.0198X0.1104*%
%ADD50O,0.0749X0.0218*%
%ADD51R,0.0474X0.0513*%
%ADD52R,0.0474X0.1143*%
%ADD53R,0.0671X0.0592*%
%ADD54R,0.0651X0.0297*%
%ADD55R,0.0651X0.0297*%
%ADD56R,0.0513X0.0474*%
%ADD57R,0.0710X0.0415*%
G04:AMPARAMS|DCode=58|XSize=47.4mil|YSize=47.4mil|CornerRadius=13.8mil|HoleSize=0mil|Usage=FLASHONLY|Rotation=0.000|XOffset=0mil|YOffset=0mil|HoleType=Round|Shape=RoundedRectangle|*
%AMROUNDEDRECTD58*
21,1,0.0474,0.0197,0,0,0.0*
21,1,0.0197,0.0474,0,0,0.0*
1,1,0.0277,0.0098,-0.0098*
1,1,0.0277,-0.0098,-0.0098*
1,1,0.0277,-0.0098,0.0098*
1,1,0.0277,0.0098,0.0098*
%
%ADD58ROUNDEDRECTD58*%
%ADD59R,0.1025X0.1379*%
%ADD60R,0.1025X0.0474*%
%ADD61R,0.1182X0.1182*%
%ADD62O,0.0178X0.0356*%
%ADD63O,0.0356X0.0178*%
%ADD64R,0.0415X0.0946*%
%ADD65R,0.0946X0.0415*%
%ADD66C,0.0552*%
%ADD67C,0.0671*%
%ADD68C,0.0867*%
%ADD69C,0.1064*%
G04:AMPARAMS|DCode=70|XSize=145.8mil|YSize=145.8mil|CornerRadius=38.4mil|HoleSize=0mil|Usage=FLASHONLY|Rotation=90.000|XOffset=0mil|YOffset=0mil|HoleType=Round|Shape=RoundedRectangle|*
%AMROUNDEDRECTD70*
21,1,0.1458,0.0689,0,0,90.0*
21,1,0.0689,0.1458,0,0,90.0*
1,1,0.0769,0.0344,0.0344*
1,1,0.0769,0.0344,-0.0344*
1,1,0.0769,-0.0344,-0.0344*
1,1,0.0769,-0.0344,0.0344*
%
%ADD70ROUNDEDRECTD70*%
%ADD71C,0.1655*%
%ADD72C,0.1812*%
%ADD73R,0.0671X0.0671*%
%ADD74C,0.0580*%
G04:AMPARAMS|DCode=75|XSize=47.4mil|YSize=47.4mil|CornerRadius=13.8mil|HoleSize=0mil|Usage=FLASHONLY|Rotation=90.000|XOffset=0mil|YOffset=0mil|HoleType=Round|Shape=RoundedRectangle|*
%AMROUNDEDRECTD75*
21,1,0.0474,0.0197,0,0,90.0*
21,1,0.0197,0.0474,0,0,90.0*
1,1,0.0277,0.0098,0.0098*
1,1,0.0277,0.0098,-0.0098*
1,1,0.0277,-0.0098,-0.0098*
1,1,0.0277,-0.0098,0.0098*
%
%ADD75ROUNDEDRECTD75*%
%ADD76R,0.0592X0.0671*%
%ADD77C,0.0474*%
%ADD78C,0.0020*%
D47*
X15921Y4450D02*
X16079D01*
X16000Y4371D02*
Y4529D01*
X15921Y0D02*
X16079D01*
X16000Y-79D02*
Y79D01*
X15921Y-4450D02*
X16079D01*
X16000Y-4529D02*
Y-4371D01*
D78*
X10000Y0D02*
G03*
X10000Y0I-10000J0D01*
G01*
X16500Y-15000D02*
G03*
X17500Y-14000I0J1000D01*
G01*
X17500Y14000D02*
G03*
X16500Y15000I-950J50D01*
G01*
X8050Y4025D02*
G03*
X-8050Y4025I-8050J-4025D01*
G01*
X4992Y-7488D02*
G03*
X8050Y-4025I-4992J7488D01*
G01*
X-8050D02*
G03*
X-4992Y-7488I8050J4025D01*
G01*
X4992D01*
X-8050Y-4025D02*
Y4025D01*
X8050Y-4025D02*
Y4025D01*
X0Y15000D02*
X16500D01*
X17500Y-14100D02*
Y14000D01*
X-700Y-15000D02*
X16600D01*
X-15000Y15000D02*
X0D01*
X-15002Y0D02*
Y15000D01*
Y0D02*
X-15000Y-15000D01*
X0D01*
M02*
