%FSLAX24Y24*%
%MOIN*%
G70*
G01*
G75*
G04 Layer_Physical_Order=2*
G04 Layer_Color=16711680*
%ADD10C,0.0150*%
%ADD11C,0.0080*%
%ADD12C,0.0120*%
%ADD13R,0.0118X0.1024*%
%ADD14O,0.0669X0.0138*%
%ADD15R,0.0394X0.0433*%
%ADD16R,0.0394X0.1063*%
%ADD17R,0.0591X0.0512*%
%ADD18R,0.0571X0.0217*%
%ADD19R,0.0571X0.0217*%
%ADD20R,0.0433X0.0394*%
%ADD21R,0.0630X0.0335*%
G04:AMPARAMS|DCode=22|XSize=39.4mil|YSize=39.4mil|CornerRadius=9.8mil|HoleSize=0mil|Usage=FLASHONLY|Rotation=0.000|XOffset=0mil|YOffset=0mil|HoleType=Round|Shape=RoundedRectangle|*
%AMROUNDEDRECTD22*
21,1,0.0394,0.0197,0,0,0.0*
21,1,0.0197,0.0394,0,0,0.0*
1,1,0.0197,0.0098,-0.0098*
1,1,0.0197,-0.0098,-0.0098*
1,1,0.0197,-0.0098,0.0098*
1,1,0.0197,0.0098,0.0098*
%
%ADD22ROUNDEDRECTD22*%
%ADD23R,0.0945X0.1299*%
%ADD24R,0.0945X0.0394*%
%ADD25R,0.1102X0.1102*%
%ADD26O,0.0098X0.0276*%
%ADD27O,0.0276X0.0098*%
%ADD28R,0.0335X0.0866*%
%ADD29R,0.0866X0.0335*%
%ADD30C,0.0100*%
%ADD31C,0.0200*%
%ADD32C,0.0472*%
%ADD33C,0.0591*%
%ADD34C,0.0787*%
%ADD35C,0.0984*%
G04:AMPARAMS|DCode=36|XSize=137.8mil|YSize=137.8mil|CornerRadius=34.4mil|HoleSize=0mil|Usage=FLASHONLY|Rotation=90.000|XOffset=0mil|YOffset=0mil|HoleType=Round|Shape=RoundedRectangle|*
%AMROUNDEDRECTD36*
21,1,0.1378,0.0689,0,0,90.0*
21,1,0.0689,0.1378,0,0,90.0*
1,1,0.0689,0.0344,0.0344*
1,1,0.0689,0.0344,-0.0344*
1,1,0.0689,-0.0344,-0.0344*
1,1,0.0689,-0.0344,0.0344*
%
%ADD36ROUNDEDRECTD36*%
%ADD37C,0.1575*%
%ADD38C,0.1732*%
%ADD39R,0.0591X0.0591*%
%ADD40C,0.0500*%
%ADD41C,0.0400*%
%ADD42C,0.0394*%
G04:AMPARAMS|DCode=43|XSize=39.4mil|YSize=39.4mil|CornerRadius=9.8mil|HoleSize=0mil|Usage=FLASHONLY|Rotation=90.000|XOffset=0mil|YOffset=0mil|HoleType=Round|Shape=RoundedRectangle|*
%AMROUNDEDRECTD43*
21,1,0.0394,0.0197,0,0,90.0*
21,1,0.0197,0.0394,0,0,90.0*
1,1,0.0197,0.0098,0.0098*
1,1,0.0197,0.0098,-0.0098*
1,1,0.0197,-0.0098,-0.0098*
1,1,0.0197,-0.0098,0.0098*
%
%ADD43ROUNDEDRECTD43*%
%ADD44R,0.0512X0.0591*%
G36*
X-2500Y13750D02*
X-2500Y13750D01*
X-1028D01*
X-1023Y13748D01*
X-1018D01*
X-994Y13652D01*
X-994Y13651D01*
X-1069Y13611D01*
X-1156Y13529D01*
X-1219Y13428D01*
X-1254Y13314D01*
X-1256Y13252D01*
X-1355Y13243D01*
X-1369Y13302D01*
X-1426Y13408D01*
X-1507Y13495D01*
X-1609Y13558D01*
X-1723Y13592D01*
X-1842Y13596D01*
X-1959Y13569D01*
X-2064Y13513D01*
X-2151Y13431D01*
X-2214Y13330D01*
X-2249Y13216D01*
X-2253Y13096D01*
X-2226Y12980D01*
X-2170Y12874D01*
X-2088Y12787D01*
X-1986Y12724D01*
X-1872Y12689D01*
X-1753Y12686D01*
X-1636Y12713D01*
X-1531Y12769D01*
X-1444Y12851D01*
X-1381Y12952D01*
X-1346Y13066D01*
X-1344Y13128D01*
X-1245Y13137D01*
X-1231Y13078D01*
X-1174Y12972D01*
X-1093Y12885D01*
X-991Y12822D01*
X-877Y12788D01*
X-808Y12785D01*
X-852Y13234D01*
X-803Y13239D01*
X-807Y13289D01*
X-358Y13333D01*
X-374Y13400D01*
X-430Y13506D01*
X-512Y13593D01*
X-614Y13656D01*
X-624Y13659D01*
X-625Y13673D01*
X-625Y13673D01*
X-625Y13673D01*
X-609Y13692D01*
X-594Y13711D01*
X-594Y13711D01*
X-594Y13712D01*
X-586Y13738D01*
X-584Y13740D01*
X-582Y13749D01*
X-573D01*
X-570Y13750D01*
X225D01*
X534Y13718D01*
X556Y13620D01*
X512Y13593D01*
X430Y13506D01*
X374Y13400D01*
X347Y13284D01*
X351Y13164D01*
X386Y13050D01*
X449Y12949D01*
X536Y12867D01*
X641Y12811D01*
X758Y12784D01*
X877Y12787D01*
X991Y12822D01*
X1093Y12885D01*
X1174Y12972D01*
X1231Y13078D01*
X1245Y13137D01*
X1344Y13128D01*
X1346Y13066D01*
X1381Y12952D01*
X1444Y12851D01*
X1531Y12769D01*
X1636Y12713D01*
X1753Y12686D01*
X1872Y12689D01*
X1986Y12724D01*
X2088Y12787D01*
X2170Y12874D01*
X2203Y12936D01*
X2729Y12839D01*
X2919Y12793D01*
X2926Y12721D01*
X2968Y12609D01*
X3038Y12512D01*
X3130Y12437D01*
X3239Y12387D01*
X3357Y12368D01*
X3475Y12379D01*
X3587Y12422D01*
X3684Y12491D01*
X3760Y12583D01*
X3785Y12639D01*
X3881Y12610D01*
X3871Y12550D01*
X3883Y12431D01*
X3925Y12319D01*
X3994Y12222D01*
X4087Y12146D01*
X4196Y12097D01*
X4313Y12077D01*
X4432Y12089D01*
X4544Y12131D01*
X4641Y12201D01*
X4717Y12293D01*
X4766Y12402D01*
X4786Y12520D01*
X4774Y12639D01*
X4732Y12751D01*
X4662Y12848D01*
X4570Y12923D01*
X4461Y12973D01*
X4343Y12992D01*
X4225Y12981D01*
X4113Y12938D01*
X4016Y12869D01*
X3940Y12777D01*
X3915Y12721D01*
X3819Y12750D01*
X3829Y12810D01*
X3817Y12929D01*
X3775Y13041D01*
X3706Y13138D01*
X3613Y13214D01*
X3504Y13263D01*
X3386Y13283D01*
X3268Y13271D01*
X3156Y13229D01*
X3059Y13159D01*
X2983Y13067D01*
X2980Y13061D01*
X2786Y13108D01*
X2249Y13207D01*
X2249Y13216D01*
X2214Y13330D01*
X2151Y13431D01*
X2064Y13513D01*
X1959Y13569D01*
X1842Y13596D01*
X1723Y13592D01*
X1609Y13558D01*
X1507Y13495D01*
X1426Y13408D01*
X1369Y13302D01*
X1355Y13243D01*
X1256Y13252D01*
X1254Y13314D01*
X1219Y13428D01*
X1156Y13529D01*
X1069Y13611D01*
X994Y13651D01*
X992Y13660D01*
X1012Y13737D01*
X1014Y13741D01*
X1016Y13748D01*
X1023D01*
X1028Y13750D01*
X3437D01*
X3438Y13750D01*
X3450D01*
X3460Y13745D01*
X3462Y13745D01*
X6250Y12450D01*
X7493Y11596D01*
Y11596D01*
D01*
D01*
Y11596D01*
X7493Y11487D01*
X7148Y11142D01*
X7072Y11207D01*
X7095Y11239D01*
X7137Y11350D01*
X7148Y11469D01*
X7129Y11587D01*
X7080Y11696D01*
X7004Y11788D01*
X6907Y11858D01*
X6795Y11900D01*
X6676Y11912D01*
X6558Y11892D01*
X6449Y11843D01*
X6357Y11767D01*
X6321Y11717D01*
X6233Y11765D01*
X6255Y11822D01*
X6266Y11941D01*
X6247Y12059D01*
X6198Y12167D01*
X6122Y12260D01*
X6025Y12329D01*
X5913Y12371D01*
X5794Y12383D01*
X5676Y12364D01*
X5567Y12314D01*
X5475Y12239D01*
X5405Y12141D01*
X5363Y12030D01*
X5352Y11911D01*
X5371Y11793D01*
X5420Y11684D01*
X5496Y11592D01*
X5593Y11522D01*
X5705Y11480D01*
X5824Y11468D01*
X5942Y11488D01*
X6051Y11537D01*
X6143Y11613D01*
X6179Y11663D01*
X6267Y11615D01*
X6245Y11558D01*
X6234Y11439D01*
X6253Y11321D01*
X6302Y11213D01*
X6378Y11120D01*
X6475Y11051D01*
X6587Y11009D01*
X6706Y10997D01*
X6824Y11016D01*
X6932Y11065D01*
X6989Y10983D01*
X6781Y10776D01*
X6759Y10743D01*
X6752Y10704D01*
Y10293D01*
X6697Y10271D01*
X6633Y10221D01*
X6583Y10156D01*
X6552Y10081D01*
X6541Y10000D01*
X6552Y9919D01*
X6583Y9844D01*
X6633Y9779D01*
X6697Y9729D01*
X6773Y9698D01*
X6854Y9687D01*
X6935Y9698D01*
X7010Y9729D01*
X7075Y9779D01*
X7124Y9844D01*
X7156Y9919D01*
X7166Y10000D01*
X7156Y10081D01*
X7124Y10156D01*
X7123Y10158D01*
X7173Y10245D01*
X7253Y10234D01*
X7334Y10245D01*
X7409Y10276D01*
X7474Y10326D01*
X7511Y10374D01*
X7576Y10369D01*
X7619Y10351D01*
X7652Y10291D01*
X7733Y10203D01*
X7835Y10140D01*
X7949Y10106D01*
X8068Y10102D01*
X8185Y10129D01*
X8290Y10185D01*
X8335Y10227D01*
X8412Y10164D01*
X8380Y10112D01*
X8345Y9997D01*
X8341Y9878D01*
X8368Y9762D01*
X8425Y9656D01*
X8472Y9606D01*
X8758Y9955D01*
X8835Y9891D01*
X8549Y9542D01*
X8608Y9506D01*
X8722Y9471D01*
X8841Y9467D01*
X8958Y9495D01*
X8968Y9500D01*
X9029Y9421D01*
X8979Y9356D01*
X8948Y9281D01*
X8937Y9200D01*
X8948Y9119D01*
X8979Y9044D01*
X9029Y8979D01*
X9094Y8929D01*
X9169Y8898D01*
X9250Y8887D01*
X9331Y8898D01*
X9395Y8925D01*
X9436Y8890D01*
X9469Y8848D01*
X9467Y8841D01*
X9471Y8722D01*
X9506Y8608D01*
X9569Y8506D01*
X9656Y8425D01*
X9762Y8368D01*
X9878Y8341D01*
X9997Y8345D01*
X10112Y8380D01*
X10164Y8412D01*
X10227Y8335D01*
X10185Y8290D01*
X10129Y8185D01*
X10102Y8068D01*
X10106Y7949D01*
X10140Y7835D01*
X10203Y7733D01*
X10244Y7695D01*
X10208Y7602D01*
X9906D01*
X9867Y7594D01*
X9834Y7572D01*
X9313Y7051D01*
X9275Y7076D01*
X9161Y7115D01*
X9042Y7122D01*
X8925Y7099D01*
X8818Y7046D01*
X8728Y6967D01*
X8662Y6868D01*
X8623Y6755D01*
X8616Y6636D01*
X8639Y6519D01*
X8692Y6411D01*
X8770Y6322D01*
X8870Y6255D01*
X8983Y6217D01*
X9102Y6209D01*
X9219Y6232D01*
X9274Y6259D01*
X9330Y6176D01*
X9284Y6136D01*
X9217Y6037D01*
X9179Y5924D01*
X9171Y5804D01*
X9194Y5687D01*
X9247Y5580D01*
X9326Y5490D01*
X9425Y5424D01*
X9539Y5385D01*
X9658Y5378D01*
X9775Y5401D01*
X9882Y5454D01*
X9972Y5533D01*
X10038Y5632D01*
X10077Y5745D01*
X10084Y5864D01*
X10061Y5981D01*
X10008Y6089D01*
X9930Y6178D01*
X9830Y6245D01*
X9717Y6283D01*
X9598Y6291D01*
X9481Y6268D01*
X9426Y6241D01*
X9370Y6324D01*
X9416Y6364D01*
X9483Y6463D01*
X9521Y6576D01*
X9529Y6696D01*
X9506Y6813D01*
X9459Y6908D01*
X9949Y7398D01*
X11127D01*
X11129Y7394D01*
X11179Y7329D01*
X11244Y7279D01*
X11319Y7248D01*
X11328Y7247D01*
X11365Y7154D01*
X11350Y7137D01*
X11239Y7095D01*
X11141Y7025D01*
X11066Y6933D01*
X11016Y6824D01*
X10997Y6706D01*
X11009Y6587D01*
X11051Y6475D01*
X11120Y6378D01*
X11213Y6302D01*
X11321Y6253D01*
X11439Y6234D01*
X11558Y6245D01*
X11615Y6267D01*
X11663Y6179D01*
X11613Y6143D01*
X11537Y6051D01*
X11488Y5942D01*
X11468Y5824D01*
X11480Y5705D01*
X11522Y5593D01*
X11592Y5496D01*
X11684Y5420D01*
X11730Y5400D01*
X11709Y5302D01*
X11193D01*
X11171Y5356D01*
X11121Y5421D01*
X11056Y5471D01*
X10981Y5502D01*
X10900Y5513D01*
X10819Y5502D01*
X10744Y5471D01*
X10679Y5421D01*
X10629Y5356D01*
X10598Y5281D01*
X10587Y5200D01*
X10594Y5153D01*
X10504Y5108D01*
X10477Y5135D01*
X10374Y5195D01*
X10258Y5226D01*
X10139D01*
X10024Y5195D01*
X9920Y5135D01*
X9836Y5051D01*
X9776Y4947D01*
X9745Y4832D01*
Y4712D01*
X9776Y4597D01*
X9836Y4493D01*
X9920Y4409D01*
X10024Y4349D01*
X10139Y4318D01*
X10258D01*
X10317Y4334D01*
X10356Y4242D01*
X10303Y4211D01*
X10218Y4127D01*
X10159Y4023D01*
X10128Y3908D01*
Y3788D01*
X10159Y3673D01*
X10218Y3569D01*
X10303Y3485D01*
X10406Y3425D01*
X10522Y3394D01*
X10641D01*
X10756Y3425D01*
X10860Y3485D01*
X10944Y3569D01*
X11004Y3673D01*
X11035Y3788D01*
Y3908D01*
X11004Y4023D01*
X10944Y4127D01*
X10860Y4211D01*
X10756Y4271D01*
X10641Y4302D01*
X10522D01*
X10463Y4286D01*
X10424Y4378D01*
X10477Y4409D01*
X10562Y4493D01*
X10621Y4597D01*
X10652Y4712D01*
Y4832D01*
X10636Y4892D01*
X10719Y4948D01*
X10744Y4929D01*
X10819Y4898D01*
X10900Y4887D01*
X10981Y4898D01*
X11056Y4929D01*
X11121Y4979D01*
X11171Y5044D01*
X11193Y5098D01*
X13122D01*
X13350Y4300D01*
X13950Y2300D01*
X13950Y2300D01*
X13950D01*
Y-1100D01*
X13950Y-1100D01*
X13739Y-2050D01*
X13695Y-2248D01*
X13458D01*
X13430Y-2152D01*
X13431Y-2151D01*
X13513Y-2064D01*
X13569Y-1959D01*
X13596Y-1842D01*
X13592Y-1723D01*
X13558Y-1609D01*
X13495Y-1507D01*
X13408Y-1426D01*
X13302Y-1369D01*
X13186Y-1342D01*
X13066Y-1346D01*
X12952Y-1381D01*
X12851Y-1444D01*
X12769Y-1531D01*
X12713Y-1636D01*
X12686Y-1753D01*
X12689Y-1863D01*
X12622Y-1893D01*
X12595Y-1901D01*
X12418Y-1723D01*
X12421Y-1671D01*
X12471Y-1606D01*
X12502Y-1531D01*
X12513Y-1450D01*
X12502Y-1369D01*
X12471Y-1294D01*
X12421Y-1229D01*
X12356Y-1179D01*
X12281Y-1148D01*
X12200Y-1137D01*
X12119Y-1148D01*
X12044Y-1179D01*
X11979Y-1229D01*
X11929Y-1294D01*
X11898Y-1369D01*
X11887Y-1450D01*
X11898Y-1531D01*
X11929Y-1606D01*
X11979Y-1671D01*
X12044Y-1721D01*
X12119Y-1752D01*
X12164Y-1758D01*
X12562Y-2157D01*
X12518Y-2246D01*
X12450Y-2237D01*
X12369Y-2248D01*
X12294Y-2279D01*
X12229Y-2329D01*
X12179Y-2394D01*
X12148Y-2469D01*
X12137Y-2550D01*
X12148Y-2631D01*
X12179Y-2706D01*
X12229Y-2771D01*
X12294Y-2821D01*
X12369Y-2852D01*
X12450Y-2863D01*
X12531Y-2852D01*
X12606Y-2821D01*
X12671Y-2771D01*
X12721Y-2706D01*
X12743Y-2652D01*
X12986D01*
X13153Y-2661D01*
X13518Y-2701D01*
X13576Y-2782D01*
X13250Y-4250D01*
X12000Y-7000D01*
X11250Y-8250D01*
X11250Y-8250D01*
X10806Y-8694D01*
X10417Y-9083D01*
X10318Y-9069D01*
X10310Y-9054D01*
X10308Y-9036D01*
X10340Y-8985D01*
X10374Y-8871D01*
X10378Y-8752D01*
X10351Y-8635D01*
X10295Y-8530D01*
X10253Y-8485D01*
X10316Y-8408D01*
X10368Y-8440D01*
X10483Y-8475D01*
X10602Y-8479D01*
X10718Y-8452D01*
X10824Y-8395D01*
X10911Y-8314D01*
X10974Y-8212D01*
X11009Y-8098D01*
X11013Y-7979D01*
X10985Y-7862D01*
X10929Y-7757D01*
X10848Y-7670D01*
X10746Y-7607D01*
X10632Y-7572D01*
X10512Y-7568D01*
X10396Y-7595D01*
X10291Y-7652D01*
X10203Y-7733D01*
X10140Y-7835D01*
X10106Y-7949D01*
X10102Y-8068D01*
X10129Y-8185D01*
X10185Y-8290D01*
X10227Y-8335D01*
X10164Y-8412D01*
X10112Y-8380D01*
X9997Y-8345D01*
X9878Y-8341D01*
X9762Y-8368D01*
X9656Y-8425D01*
X9606Y-8472D01*
X9955Y-8758D01*
X9923Y-8796D01*
X9962Y-8828D01*
X9675Y-9177D01*
X9734Y-9213D01*
X9848Y-9248D01*
X9968Y-9252D01*
X10084Y-9225D01*
X10189Y-9169D01*
X10210Y-9188D01*
X10212Y-9288D01*
X9500Y-10000D01*
X9326Y-10145D01*
X9325Y-10146D01*
X9239Y-10133D01*
X9211Y-10110D01*
X9225Y-10084D01*
X9252Y-9968D01*
X9248Y-9848D01*
X9213Y-9734D01*
X9150Y-9632D01*
X9063Y-9551D01*
X8958Y-9495D01*
X8841Y-9467D01*
X8722Y-9471D01*
X8608Y-9506D01*
X8506Y-9569D01*
X8425Y-9656D01*
X8368Y-9762D01*
X8341Y-9878D01*
X8345Y-9997D01*
X8380Y-10112D01*
X8412Y-10164D01*
X8335Y-10227D01*
X8290Y-10185D01*
X8185Y-10129D01*
X8068Y-10102D01*
X7949Y-10106D01*
X7835Y-10140D01*
X7733Y-10203D01*
X7652Y-10291D01*
X7595Y-10396D01*
X7568Y-10512D01*
X7572Y-10632D01*
X7595Y-10707D01*
X7151Y-11012D01*
X6988Y-11111D01*
X6933Y-11066D01*
X6824Y-11016D01*
X6706Y-10997D01*
X6587Y-11009D01*
X6475Y-11051D01*
X6378Y-11120D01*
X6302Y-11213D01*
X6253Y-11321D01*
X6234Y-11439D01*
X6245Y-11558D01*
X6267Y-11615D01*
X6179Y-11663D01*
X6143Y-11613D01*
X6051Y-11537D01*
X5942Y-11488D01*
X5824Y-11468D01*
X5705Y-11480D01*
X5593Y-11522D01*
X5496Y-11592D01*
X5420Y-11684D01*
X5371Y-11793D01*
X5352Y-11911D01*
X5359Y-11981D01*
X5339Y-11991D01*
X4704Y-12254D01*
X4689Y-12259D01*
X4641Y-12201D01*
X4544Y-12131D01*
X4432Y-12089D01*
X4313Y-12077D01*
X4196Y-12097D01*
X4087Y-12146D01*
X3994Y-12222D01*
X3925Y-12319D01*
X3883Y-12431D01*
X3871Y-12550D01*
X3881Y-12610D01*
X3785Y-12639D01*
X3760Y-12583D01*
X3684Y-12491D01*
X3587Y-12422D01*
X3475Y-12379D01*
X3357Y-12368D01*
X3239Y-12387D01*
X3130Y-12437D01*
X3038Y-12512D01*
X2968Y-12609D01*
X2926Y-12721D01*
X2914Y-12840D01*
X2934Y-12958D01*
X2983Y-13067D01*
X3059Y-13159D01*
X3106Y-13193D01*
X3131Y-13275D01*
X3125Y-13287D01*
X3125Y-13287D01*
X3125D01*
X3119Y-13296D01*
X3118Y-13303D01*
X3117Y-13304D01*
X3118Y-13305D01*
X3118Y-13306D01*
X3115Y-13310D01*
X3114Y-13311D01*
X2500Y-13500D01*
X2216D01*
X2212Y-13499D01*
X2209Y-13496D01*
X2209Y-13495D01*
X2208Y-13494D01*
X2206Y-13492D01*
X2206Y-13492D01*
X2205Y-13492D01*
X2205Y-13488D01*
X2203Y-13488D01*
X2202Y-13486D01*
X2195Y-13481D01*
X2189Y-13479D01*
X2188Y-13478D01*
X2187Y-13477D01*
X2187D01*
X2187Y-13477D01*
D01*
D01*
D01*
D01*
D01*
X2187Y-13374D01*
X2214Y-13330D01*
X2249Y-13216D01*
X2253Y-13096D01*
X2226Y-12980D01*
X2170Y-12874D01*
X2088Y-12787D01*
X1986Y-12724D01*
X1872Y-12689D01*
X1753Y-12686D01*
X1636Y-12713D01*
X1531Y-12769D01*
X1444Y-12851D01*
X1381Y-12952D01*
X1346Y-13066D01*
X1344Y-13128D01*
X1245Y-13137D01*
X1231Y-13078D01*
X1174Y-12972D01*
X1093Y-12885D01*
X991Y-12822D01*
X877Y-12787D01*
X808Y-12785D01*
X852Y-13234D01*
X803Y-13239D01*
X807Y-13289D01*
X358Y-13333D01*
X374Y-13400D01*
X344Y-13489D01*
X344D01*
X344Y-13489D01*
X335Y-13493D01*
X329Y-13498D01*
X323Y-13500D01*
X-323D01*
X-329Y-13498D01*
X-335Y-13493D01*
X-344Y-13489D01*
X-392Y-13453D01*
X-397Y-13442D01*
X-374Y-13400D01*
X-347Y-13284D01*
X-351Y-13164D01*
X-386Y-13050D01*
X-449Y-12949D01*
X-536Y-12867D01*
X-641Y-12811D01*
X-758Y-12784D01*
X-877Y-12788D01*
X-991Y-12822D01*
X-1093Y-12885D01*
X-1174Y-12972D01*
X-1231Y-13078D01*
X-1245Y-13137D01*
X-1344Y-13128D01*
X-1346Y-13066D01*
X-1381Y-12952D01*
X-1444Y-12851D01*
X-1531Y-12769D01*
X-1636Y-12713D01*
X-1753Y-12686D01*
X-1872Y-12689D01*
X-1986Y-12724D01*
X-2088Y-12787D01*
X-2170Y-12874D01*
X-2226Y-12980D01*
X-2253Y-13096D01*
X-2249Y-13216D01*
X-2214Y-13330D01*
X-2187Y-13374D01*
X-2187Y-13471D01*
X-2195Y-13481D01*
X-2195D01*
X-2195Y-13481D01*
X-2202Y-13486D01*
X-2203Y-13488D01*
X-2205Y-13488D01*
X-2205Y-13492D01*
X-2206Y-13492D01*
X-2206Y-13492D01*
X-2208Y-13494D01*
X-2209Y-13495D01*
X-2209Y-13496D01*
X-2212Y-13499D01*
X-2216Y-13500D01*
X-2750D01*
X-3383Y-13342D01*
X-3391Y-13336D01*
X-3392Y-13336D01*
X-3392Y-13335D01*
X-3397Y-13313D01*
X-3403Y-13305D01*
X-3386Y-13283D01*
D01*
X-3386D01*
X-3386D01*
Y-13283D01*
D01*
D01*
X-3268Y-13271D01*
X-3156Y-13229D01*
X-3059Y-13159D01*
X-2983Y-13067D01*
X-2934Y-12958D01*
X-2914Y-12840D01*
X-2926Y-12721D01*
X-2968Y-12609D01*
X-3038Y-12512D01*
X-3130Y-12437D01*
X-3239Y-12387D01*
X-3357Y-12368D01*
X-3475Y-12379D01*
X-3587Y-12422D01*
X-3684Y-12491D01*
X-3760Y-12583D01*
X-3785Y-12639D01*
X-3881Y-12610D01*
X-3871Y-12550D01*
X-3883Y-12431D01*
X-3925Y-12319D01*
X-3994Y-12222D01*
X-4087Y-12146D01*
X-4196Y-12097D01*
X-4313Y-12077D01*
X-4432Y-12089D01*
X-4544Y-12131D01*
X-4641Y-12201D01*
X-4717Y-12293D01*
X-4766Y-12402D01*
X-4786Y-12520D01*
X-4774Y-12639D01*
X-4732Y-12751D01*
X-4662Y-12848D01*
X-4570Y-12923D01*
X-4490Y-12960D01*
X-4514Y-13055D01*
X-4523Y-13057D01*
X-4750Y-13000D01*
X-6727Y-12135D01*
X-8750Y-11250D01*
X-8750Y-11250D01*
X-9615Y-10385D01*
X-10500Y-9500D01*
X-11750D01*
X-12260Y-10264D01*
X-12745Y-10993D01*
X-12746Y-10993D01*
X-12751Y-10998D01*
X-12758Y-10999D01*
X-12759Y-11000D01*
X-13487D01*
X-13496Y-10996D01*
X-13500Y-10987D01*
Y-10551D01*
X-13500D01*
Y-10551D01*
D01*
D01*
D01*
D01*
D01*
D01*
Y-10551D01*
D01*
X-13500D01*
X-13461Y-10522D01*
X-13416Y-10493D01*
X-13382Y-10503D01*
X-13250Y-10516D01*
Y-9591D01*
Y-8665D01*
X-13382Y-8678D01*
X-13416Y-8688D01*
X-13461Y-8659D01*
X-13500Y-8630D01*
Y-2500D01*
X-14000Y-1250D01*
Y1750D01*
X-12750Y6000D01*
D01*
D01*
D01*
D01*
D01*
X-12750D01*
D01*
D01*
D01*
Y6000D01*
D01*
Y6000D01*
Y6000D01*
X-12750D01*
D01*
Y6000D01*
D01*
D01*
D01*
D01*
Y6000D01*
D01*
D01*
D01*
X-12750D01*
D01*
D01*
D01*
X-12750D01*
X-9035Y11202D01*
Y11202D01*
X-9000Y11250D01*
X-10742Y12743D01*
X-10745Y12750D01*
X-10746Y12752D01*
X-10747Y12754D01*
X-10750Y12761D01*
Y13737D01*
X-10746Y13746D01*
X-10737Y13750D01*
X-10454D01*
X-10447Y13748D01*
X-10442Y13743D01*
X-10438Y13741D01*
X-10425Y13706D01*
X-10425Y13607D01*
X-10453Y13556D01*
X-10506Y13382D01*
X-10519Y13250D01*
X-8667D01*
X-8680Y13382D01*
X-8733Y13556D01*
X-8819Y13717D01*
X-8828Y13728D01*
X-8825Y13736D01*
X-8811Y13741D01*
X-8803Y13749D01*
X-8802Y13750D01*
X-6750D01*
X-5381Y13756D01*
X-4013Y13763D01*
X-2500Y13750D01*
D02*
G37*
G36*
X17350Y13800D02*
Y-13150D01*
X15750Y-14750D01*
X14901D01*
X14837Y-14666D01*
X14834Y-14660D01*
X14898Y-14577D01*
X14939Y-14478D01*
X14952Y-14373D01*
Y-13684D01*
X14939Y-13578D01*
X14898Y-13480D01*
X14833Y-13395D01*
X14748Y-13331D01*
X14650Y-13290D01*
X14544Y-13276D01*
X13856D01*
X13750Y-13290D01*
X13652Y-13331D01*
X13567Y-13395D01*
X13502Y-13480D01*
X13461Y-13578D01*
X13448Y-13684D01*
Y-14373D01*
X13461Y-14478D01*
X13502Y-14577D01*
X13566Y-14660D01*
X13563Y-14666D01*
X13499Y-14750D01*
X10632D01*
X10609Y-14721D01*
X10579Y-14660D01*
X10621Y-14606D01*
X10652Y-14531D01*
X10656Y-14500D01*
X10044D01*
X10048Y-14531D01*
X10079Y-14606D01*
X10121Y-14660D01*
X10091Y-14721D01*
X10068Y-14750D01*
X-11691D01*
X-11723Y-14655D01*
X-11679Y-14621D01*
X-11629Y-14556D01*
X-11598Y-14481D01*
X-11587Y-14400D01*
X-11598Y-14319D01*
X-11629Y-14244D01*
X-11679Y-14179D01*
X-11744Y-14129D01*
X-11819Y-14098D01*
X-11900Y-14087D01*
X-11981Y-14098D01*
X-12056Y-14129D01*
X-12121Y-14179D01*
X-12171Y-14244D01*
X-12179Y-14262D01*
X-12389D01*
Y-14143D01*
X-12500D01*
Y-13857D01*
X-12389D01*
Y-13738D01*
X-12179D01*
X-12171Y-13756D01*
X-12121Y-13821D01*
X-12056Y-13871D01*
X-11981Y-13902D01*
X-11950Y-13906D01*
Y-13600D01*
Y-13294D01*
X-11900Y-13287D01*
X-11900Y-13287D01*
X-11863Y-13250D01*
X-7609D01*
X-7577Y-13345D01*
X-7621Y-13379D01*
X-7671Y-13444D01*
X-7702Y-13519D01*
X-7706Y-13550D01*
X-7400D01*
Y-13600D01*
X-7350D01*
Y-13906D01*
X-7325Y-13903D01*
X-7250Y-13969D01*
Y-14000D01*
X7445D01*
Y-14124D01*
X8155D01*
Y-14000D01*
X8462D01*
X8506Y-14090D01*
X8493Y-14107D01*
X8461Y-14182D01*
X8457Y-14213D01*
X9069D01*
X9065Y-14182D01*
X9034Y-14107D01*
X8984Y-14042D01*
X8999Y-14000D01*
X9343D01*
Y-14085D01*
X9857D01*
Y-14000D01*
X11543D01*
Y-14011D01*
X12057D01*
Y-14000D01*
X12200D01*
X13900Y-12450D01*
X14250D01*
X15503Y-11347D01*
X15578Y-11357D01*
X15722Y-11338D01*
X15856Y-11282D01*
X15972Y-11194D01*
X16060Y-11078D01*
X16116Y-10944D01*
X16135Y-10800D01*
X16134Y-10792D01*
X16750Y-10250D01*
Y-10057D01*
X16885D01*
Y-9800D01*
Y-9543D01*
X16750D01*
Y-7007D01*
X16800Y-6963D01*
X16750Y-6956D01*
Y-6650D01*
Y-6344D01*
X16800Y-6337D01*
X16750Y-6293D01*
Y-5788D01*
X16800Y-5744D01*
X16893Y-5732D01*
X16979Y-5696D01*
X17053Y-5639D01*
X17110Y-5565D01*
X17146Y-5479D01*
X17158Y-5386D01*
X17146Y-5293D01*
X17110Y-5207D01*
X17053Y-5132D01*
X16979Y-5076D01*
X16893Y-5040D01*
X16800Y-5027D01*
X16750Y-4984D01*
Y-4805D01*
X17044D01*
Y-4095D01*
X16803D01*
X16767Y-4001D01*
X16800Y-3973D01*
X16893Y-3960D01*
X16979Y-3925D01*
X17053Y-3868D01*
X17110Y-3793D01*
X17146Y-3707D01*
X17158Y-3614D01*
X17146Y-3521D01*
X17110Y-3435D01*
X17053Y-3361D01*
X16979Y-3304D01*
X16893Y-3268D01*
X16800Y-3256D01*
X16750Y-3212D01*
Y-2457D01*
X16885D01*
Y-2200D01*
Y-1943D01*
X16750D01*
Y-1288D01*
X16800Y-1244D01*
X16893Y-1232D01*
X16979Y-1196D01*
X17053Y-1139D01*
X17110Y-1065D01*
X17146Y-979D01*
X17158Y-886D01*
X17146Y-793D01*
X17110Y-707D01*
X17053Y-632D01*
X16979Y-575D01*
X16893Y-540D01*
X16800Y-527D01*
X16750Y-484D01*
Y-355D01*
X17044D01*
Y355D01*
X16750D01*
Y484D01*
X16800Y527D01*
X16893Y540D01*
X16979Y575D01*
X17053Y632D01*
X17110Y707D01*
X17146Y793D01*
X17158Y886D01*
X17146Y979D01*
X17110Y1065D01*
X17053Y1139D01*
X16979Y1196D01*
X16893Y1232D01*
X16800Y1244D01*
X16750Y1288D01*
Y1895D01*
X16815Y1953D01*
X16765Y1959D01*
Y2265D01*
Y2571D01*
X16815Y2578D01*
X16750Y2635D01*
Y3212D01*
X16800Y3256D01*
X16893Y3268D01*
X16979Y3304D01*
X17053Y3361D01*
X17110Y3435D01*
X17146Y3521D01*
X17158Y3614D01*
X17146Y3707D01*
X17110Y3793D01*
X17053Y3868D01*
X16979Y3925D01*
X16893Y3960D01*
X16800Y3973D01*
X16750Y4016D01*
Y4095D01*
X17044D01*
Y4805D01*
X16750D01*
Y4984D01*
X16800Y5027D01*
X16893Y5040D01*
X16979Y5076D01*
X17053Y5132D01*
X17110Y5207D01*
X17146Y5293D01*
X17158Y5386D01*
X17146Y5479D01*
X17110Y5565D01*
X17053Y5639D01*
X16979Y5696D01*
X16893Y5732D01*
X16800Y5744D01*
X16750Y5788D01*
Y6543D01*
X16885D01*
Y6800D01*
Y7057D01*
X16750D01*
Y8500D01*
X16128D01*
X16073Y8583D01*
X16116Y8687D01*
X16135Y8831D01*
X16116Y8976D01*
X16060Y9110D01*
X15972Y9225D01*
X15856Y9314D01*
X15722Y9369D01*
X15578Y9388D01*
X15434Y9369D01*
X15300Y9314D01*
X15184Y9225D01*
X15096Y9110D01*
X15040Y8976D01*
X15021Y8831D01*
X15040Y8687D01*
X15082Y8585D01*
X15027Y8502D01*
X13493D01*
X13471Y8556D01*
X13435Y8603D01*
X13485Y8689D01*
X13450Y8694D01*
Y8950D01*
X13194D01*
X13198Y8919D01*
X13229Y8844D01*
X13265Y8797D01*
X13215Y8711D01*
X13200Y8713D01*
X13119Y8702D01*
X13044Y8671D01*
X12979Y8621D01*
X12929Y8556D01*
X12906Y8500D01*
X12657D01*
Y8542D01*
X12143D01*
Y8500D01*
X12005D01*
Y8588D01*
X12005D01*
Y8854D01*
X11295D01*
Y8588D01*
X11295D01*
Y8571D01*
X11224Y8500D01*
X10950D01*
X10266Y9298D01*
X10308Y9389D01*
X10350D01*
Y9665D01*
X10450D01*
Y9389D01*
X10657D01*
Y9389D01*
X10657D01*
X10657Y9389D01*
X10743D01*
Y9389D01*
X10950D01*
Y9665D01*
X11000D01*
Y9715D01*
X11257D01*
Y9768D01*
X11349Y9807D01*
X11778Y9378D01*
X11811Y9356D01*
X11850Y9348D01*
X12200D01*
X12239Y9356D01*
X12272Y9378D01*
X12702Y9808D01*
X15043D01*
X15048Y9769D01*
X15079Y9694D01*
X15129Y9629D01*
X15194Y9579D01*
X15269Y9548D01*
X15350Y9537D01*
X15431Y9548D01*
X15506Y9579D01*
X15571Y9629D01*
X15621Y9694D01*
X15652Y9769D01*
X15663Y9850D01*
X15707Y9900D01*
X16750D01*
Y11273D01*
X16915D01*
Y11530D01*
Y11787D01*
X16750D01*
Y12900D01*
X16118D01*
X16116Y12913D01*
X16060Y13047D01*
X15972Y13162D01*
X15856Y13251D01*
X15722Y13306D01*
X15578Y13325D01*
X15434Y13306D01*
X15300Y13251D01*
X15184Y13162D01*
X15096Y13047D01*
X15040Y12913D01*
X15038Y12900D01*
X13392D01*
X13070Y13222D01*
X13037Y13244D01*
X12998Y13252D01*
X12600D01*
Y13293D01*
X12600D01*
Y13500D01*
X12323D01*
Y13600D01*
X12600D01*
Y13807D01*
X12532D01*
Y13952D01*
X12580Y13989D01*
X12627Y14051D01*
X12657Y14123D01*
X12661Y14150D01*
X12368D01*
Y14200D01*
X12319D01*
Y14492D01*
X12291Y14489D01*
X12219Y14459D01*
X12157Y14411D01*
X12145Y14395D01*
X12050Y14427D01*
Y14650D01*
X13443D01*
X13498Y14567D01*
X13461Y14478D01*
X13448Y14373D01*
Y13684D01*
X13461Y13578D01*
X13502Y13480D01*
X13567Y13395D01*
X13652Y13331D01*
X13750Y13290D01*
X13856Y13276D01*
X14544D01*
X14650Y13290D01*
X14748Y13331D01*
X14833Y13395D01*
X14898Y13480D01*
X14939Y13578D01*
X14952Y13684D01*
Y14373D01*
X14939Y14478D01*
X14898Y14577D01*
X14934Y14650D01*
X16500D01*
X17350Y13800D01*
D02*
G37*
G36*
X16334Y4661D02*
Y4095D01*
X16627D01*
X16673Y4031D01*
X16646Y3935D01*
X16621Y3925D01*
X16547Y3868D01*
X16490Y3793D01*
X16454Y3707D01*
X16442Y3614D01*
X16454Y3521D01*
X16490Y3435D01*
X16547Y3361D01*
X16621Y3304D01*
X16697Y3272D01*
X16697Y3272D01*
X16685Y3216D01*
D01*
D01*
X16685Y3216D01*
X16685D01*
Y3216D01*
Y3216D01*
X16685D01*
X16686Y3214D01*
X16685Y3212D01*
Y2635D01*
X16686Y2633D01*
X16685Y2631D01*
X16695Y2611D01*
X16695Y2611D01*
X16659Y2536D01*
X16594Y2486D01*
X16545Y2422D01*
X16526Y2378D01*
X15057D01*
Y2542D01*
X14543D01*
Y1989D01*
X14688D01*
Y1811D01*
X14543D01*
Y1258D01*
X15057D01*
Y1811D01*
X14912D01*
Y1989D01*
X15057D01*
Y2153D01*
X16526D01*
X16545Y2109D01*
X16594Y2044D01*
X16659Y1995D01*
X16695Y1920D01*
D01*
X16695D01*
X16685Y1900D01*
X16686Y1897D01*
X16685Y1895D01*
Y1288D01*
X16686Y1286D01*
X16685Y1284D01*
X16685Y1284D01*
Y1284D01*
Y1284D01*
X16685D01*
X16685Y1284D01*
D01*
D01*
X16697Y1228D01*
X16697D01*
X16621Y1196D01*
X16547Y1139D01*
X16490Y1065D01*
X16454Y979D01*
X16448Y936D01*
X16800D01*
Y836D01*
X16448D01*
X16454Y793D01*
X16490Y707D01*
X16547Y632D01*
X16621Y575D01*
X16697Y544D01*
X16697Y544D01*
X16685Y488D01*
D01*
D01*
X16685Y488D01*
X16685D01*
Y488D01*
Y488D01*
X16685D01*
X16686Y486D01*
X16685Y484D01*
Y355D01*
X16334D01*
Y102D01*
X16250D01*
X16211Y94D01*
X16178Y72D01*
X15759Y-347D01*
X15708Y-326D01*
Y-326D01*
X15666Y-309D01*
Y355D01*
X15433D01*
Y689D01*
X15424Y736D01*
X15413Y752D01*
X15398Y775D01*
X15221Y952D01*
X15181Y978D01*
X15135Y988D01*
X15057D01*
Y1142D01*
X14543D01*
Y589D01*
X15057D01*
Y639D01*
X15106Y660D01*
X15189Y604D01*
Y355D01*
X14956D01*
Y-355D01*
X15620D01*
X15637Y-397D01*
X15637D01*
X15658Y-448D01*
X13902Y-2204D01*
X13802Y-2199D01*
X13802Y-2200D01*
X13779Y-2170D01*
X13802Y-2064D01*
Y-2064D01*
X14013Y-1114D01*
X14012Y-1107D01*
X14015Y-1100D01*
Y2300D01*
D01*
D01*
D01*
D01*
D01*
D01*
D01*
X14015D01*
D01*
D01*
D01*
X14015D01*
Y2300D01*
D01*
D01*
D01*
Y2300D01*
D01*
D01*
D01*
D01*
D01*
D01*
Y2300D01*
D01*
D01*
D01*
D01*
D01*
D01*
D01*
D01*
D01*
D01*
X14012Y2319D01*
D01*
D01*
D01*
D01*
D01*
X13743Y3216D01*
X13533Y3915D01*
X13485Y4077D01*
X13412Y4318D01*
X13212Y5018D01*
X13273Y5098D01*
X15897D01*
X16334Y4661D01*
D02*
G37*
G36*
Y-191D02*
Y-355D01*
X16685D01*
Y-484D01*
X16686Y-486D01*
X16685Y-488D01*
X16685Y-488D01*
Y-488D01*
Y-488D01*
X16685D01*
X16685Y-488D01*
D01*
D01*
X16697Y-544D01*
X16697D01*
X16621Y-575D01*
X16547Y-632D01*
X16490Y-707D01*
X16454Y-793D01*
X16442Y-886D01*
X16454Y-979D01*
X16490Y-1065D01*
X16547Y-1139D01*
X16621Y-1196D01*
X16697Y-1228D01*
X16697Y-1228D01*
X16685Y-1284D01*
D01*
D01*
X16685Y-1284D01*
X16685D01*
Y-1284D01*
Y-1284D01*
X16685D01*
X16686Y-1286D01*
X16685Y-1288D01*
Y-1943D01*
X16658D01*
Y-2457D01*
X16685D01*
Y-3212D01*
X16686Y-3214D01*
X16685Y-3216D01*
X16685Y-3216D01*
Y-3216D01*
Y-3216D01*
X16685D01*
X16685Y-3216D01*
D01*
D01*
X16697Y-3272D01*
X16697D01*
X16621Y-3304D01*
X16547Y-3361D01*
X16490Y-3435D01*
X16454Y-3521D01*
X16448Y-3564D01*
X16800D01*
Y-3664D01*
X16448D01*
X16454Y-3707D01*
X16490Y-3793D01*
X16547Y-3868D01*
X16621Y-3925D01*
X16667Y-3944D01*
X16696Y-4040D01*
X16658Y-4095D01*
X16334D01*
Y-4159D01*
X16241Y-4197D01*
X15705Y-3661D01*
X15749Y-3571D01*
X15816Y-3580D01*
X15934Y-3564D01*
X16045Y-3518D01*
X16139Y-3446D01*
X16212Y-3351D01*
X16258Y-3240D01*
X16273Y-3122D01*
X16258Y-3004D01*
X16212Y-2893D01*
X16139Y-2798D01*
X16045Y-2726D01*
X15934Y-2680D01*
X15816Y-2664D01*
X15697Y-2680D01*
X15587Y-2726D01*
X15492Y-2798D01*
X15419Y-2893D01*
X15374Y-3004D01*
X15358Y-3122D01*
X15367Y-3189D01*
X15277Y-3233D01*
X14522Y-2478D01*
X14489Y-2456D01*
X14450Y-2448D01*
X14077D01*
X14039Y-2356D01*
X16241Y-153D01*
X16334Y-191D01*
D02*
G37*
G36*
X12738Y12803D02*
X12715Y12785D01*
X12673Y12731D01*
X12647Y12668D01*
X12644Y12650D01*
X12900D01*
Y12600D01*
X12950D01*
Y12344D01*
X12968Y12347D01*
X13031Y12373D01*
X13085Y12415D01*
X13127Y12469D01*
X13153Y12532D01*
X13292Y12514D01*
X14085Y11720D01*
X14079Y11621D01*
X14029Y11556D01*
X13998Y11481D01*
X13987Y11400D01*
X13998Y11319D01*
X14029Y11244D01*
X14079Y11179D01*
X14144Y11129D01*
X14219Y11098D01*
X14300Y11087D01*
X14311Y11089D01*
X14355Y10999D01*
X14258Y10902D01*
X14143D01*
X14121Y10956D01*
X14071Y11021D01*
X14006Y11071D01*
X13931Y11102D01*
X13850Y11113D01*
X13769Y11102D01*
X13694Y11071D01*
X13629Y11021D01*
X13579Y10956D01*
X13548Y10881D01*
X13537Y10800D01*
X13548Y10719D01*
X13579Y10644D01*
X13629Y10579D01*
X13694Y10529D01*
X13769Y10498D01*
X13850Y10487D01*
X13931Y10498D01*
X14006Y10529D01*
X14071Y10579D01*
X14121Y10644D01*
X14143Y10698D01*
X14300D01*
X14339Y10706D01*
X14372Y10728D01*
X14772Y11128D01*
X14794Y11161D01*
X14802Y11200D01*
Y11700D01*
X14794Y11739D01*
X14772Y11772D01*
X14575Y11969D01*
X14641Y12044D01*
X14669Y12023D01*
X14732Y11997D01*
X14750Y11994D01*
Y12200D01*
X14544D01*
X14547Y12182D01*
X14573Y12119D01*
X14593Y12093D01*
X14522Y12022D01*
X14489Y12044D01*
X14450Y12052D01*
X14240D01*
X13550Y12743D01*
X13588Y12835D01*
X14140D01*
X14184Y12745D01*
X14173Y12731D01*
X14147Y12668D01*
X14144Y12650D01*
X14656D01*
X14653Y12668D01*
X14627Y12731D01*
X14585Y12785D01*
X14531Y12827D01*
X14533Y12835D01*
X14963D01*
X15021Y12769D01*
X15028Y12818D01*
X16128D01*
X16135Y12769D01*
X16193Y12835D01*
X16685D01*
Y11787D01*
X16688Y11779D01*
Y11281D01*
X16685Y11273D01*
Y9965D01*
X15707D01*
X15704Y9964D01*
X15702Y9965D01*
X15702Y9965D01*
X15702D01*
X15702D01*
Y9965D01*
X15702Y9965D01*
D01*
X15643Y9953D01*
X15621Y10006D01*
X15571Y10071D01*
X15506Y10121D01*
X15431Y10152D01*
X15350Y10163D01*
X15269Y10152D01*
X15194Y10121D01*
X15152Y10089D01*
X15086Y10164D01*
X15266Y10344D01*
X15300Y10318D01*
X15434Y10262D01*
X15578Y10243D01*
X15722Y10262D01*
X15856Y10318D01*
X15972Y10406D01*
X16060Y10522D01*
X16116Y10656D01*
X16135Y10800D01*
X16116Y10944D01*
X16060Y11078D01*
X15972Y11194D01*
X15856Y11282D01*
X15722Y11338D01*
X15578Y11357D01*
X15434Y11338D01*
X15300Y11282D01*
X15184Y11194D01*
X15096Y11078D01*
X15040Y10944D01*
X15021Y10800D01*
X15040Y10656D01*
X15096Y10522D01*
X15122Y10488D01*
X14786Y10152D01*
X12213D01*
X12174Y10144D01*
X12142Y10123D01*
X12087Y10146D01*
X12006Y10156D01*
X11925Y10146D01*
X11850Y10114D01*
X11785Y10065D01*
X11736Y10000D01*
X11704Y9925D01*
X11698Y9873D01*
X11603Y9841D01*
X11372Y10072D01*
X11339Y10094D01*
X11300Y10102D01*
X11257D01*
Y10611D01*
X11102D01*
Y11000D01*
X11094Y11039D01*
X11091Y11044D01*
X11079Y11062D01*
X11102Y11119D01*
X11113Y11200D01*
X11102Y11281D01*
X11071Y11356D01*
X11021Y11421D01*
X10956Y11471D01*
X10881Y11502D01*
X10800Y11513D01*
X10719Y11502D01*
X10665Y11480D01*
X10622Y11522D01*
X10589Y11544D01*
X10550Y11552D01*
X10257D01*
Y11589D01*
X10257D01*
Y12142D01*
X9743D01*
D01*
D01*
X9743Y12142D01*
X9657Y12142D01*
Y12142D01*
X9143D01*
Y11589D01*
X9298D01*
Y11400D01*
X9306Y11361D01*
X9328Y11328D01*
X9678Y10978D01*
X9711Y10956D01*
X9750Y10948D01*
X9904D01*
X9926Y10894D01*
X9976Y10829D01*
X10040Y10779D01*
X10116Y10748D01*
X10197Y10737D01*
X10223Y10741D01*
X10264Y10705D01*
X10229Y10611D01*
X10143D01*
Y10102D01*
X10000D01*
X9961Y10094D01*
X9928Y10072D01*
X9350Y9494D01*
X9331Y9502D01*
X9250Y9513D01*
X9169Y9502D01*
X9144Y9491D01*
X9089Y9576D01*
X9150Y9632D01*
X9213Y9734D01*
X9248Y9848D01*
X9252Y9968D01*
X9225Y10084D01*
X9168Y10189D01*
X9087Y10277D01*
X8985Y10340D01*
X8871Y10374D01*
X8752Y10378D01*
X8635Y10351D01*
X8530Y10295D01*
X8485Y10253D01*
X8408Y10316D01*
X8440Y10368D01*
X8475Y10483D01*
X8479Y10602D01*
X8452Y10718D01*
X8395Y10824D01*
X8314Y10911D01*
X8212Y10974D01*
X8098Y11009D01*
X7979Y11013D01*
X7867Y10986D01*
X7818Y11074D01*
X8822Y12078D01*
X8844Y12111D01*
X8852Y12150D01*
Y12444D01*
X8881Y12448D01*
X8956Y12479D01*
X9021Y12529D01*
X9048Y12565D01*
X9143Y12532D01*
Y12258D01*
X9657D01*
Y12258D01*
X9657D01*
X9657Y12258D01*
X9743Y12258D01*
Y12258D01*
X10257D01*
Y12297D01*
X10352Y12329D01*
X10364Y12314D01*
X10428Y12264D01*
X10504Y12233D01*
X10585Y12222D01*
X10666Y12233D01*
X10741Y12264D01*
X10806Y12314D01*
X10855Y12378D01*
X10887Y12454D01*
X10897Y12535D01*
X10887Y12616D01*
X10855Y12691D01*
X10806Y12756D01*
X10744Y12803D01*
X10760Y12851D01*
X10779Y12898D01*
X12706D01*
X12738Y12803D01*
D02*
G37*
G36*
X15994Y8467D02*
D01*
X16082Y8454D01*
X16082Y8454D01*
D01*
X16082D01*
Y8454D01*
X16082Y8454D01*
X16116Y8436D01*
X16122Y8438D01*
X16128Y8435D01*
X16128Y8435D01*
X16128Y8435D01*
X16685D01*
Y7057D01*
X16658D01*
Y6543D01*
X16685D01*
Y5788D01*
X16686Y5786D01*
X16685Y5784D01*
X16685Y5784D01*
Y5784D01*
Y5784D01*
X16685D01*
X16685Y5784D01*
D01*
D01*
X16697Y5728D01*
X16697D01*
X16621Y5696D01*
X16547Y5639D01*
X16490Y5565D01*
X16454Y5479D01*
X16448Y5436D01*
X16800D01*
Y5336D01*
X16448D01*
X16454Y5293D01*
X16490Y5207D01*
X16547Y5132D01*
X16621Y5076D01*
X16697Y5044D01*
X16697Y5044D01*
X16685Y4988D01*
D01*
D01*
X16685Y4988D01*
X16685D01*
Y4988D01*
Y4988D01*
X16685D01*
X16686Y4986D01*
X16685Y4984D01*
Y4805D01*
X16478D01*
X16011Y5272D01*
X15978Y5294D01*
X15939Y5302D01*
X12146D01*
X12128Y5400D01*
X12141Y5405D01*
X12239Y5475D01*
X12314Y5567D01*
X12364Y5676D01*
X12383Y5794D01*
X12371Y5913D01*
X12329Y6025D01*
X12260Y6122D01*
X12167Y6198D01*
X12059Y6247D01*
X11941Y6266D01*
X11822Y6255D01*
X11765Y6233D01*
X11717Y6321D01*
X11767Y6357D01*
X11843Y6449D01*
X11892Y6558D01*
X11912Y6676D01*
X11900Y6795D01*
X11858Y6907D01*
X11788Y7004D01*
X11696Y7080D01*
X11587Y7129D01*
X11469Y7148D01*
X11460Y7238D01*
X11465Y7246D01*
X11481Y7248D01*
X11556Y7279D01*
X11621Y7329D01*
X11671Y7394D01*
X11702Y7469D01*
X11713Y7550D01*
X11702Y7631D01*
X11671Y7706D01*
X11621Y7771D01*
X11556Y7821D01*
X11560Y7840D01*
X11600D01*
Y8156D01*
X11650D01*
Y8206D01*
X12005D01*
Y8435D01*
X12005Y8435D01*
X12143D01*
Y8315D01*
X12657D01*
Y8435D01*
X12857D01*
X12887Y8400D01*
X12898Y8319D01*
X12929Y8244D01*
X12979Y8179D01*
X13044Y8129D01*
X13119Y8098D01*
X13200Y8087D01*
X13281Y8098D01*
X13356Y8129D01*
X13421Y8179D01*
X13454Y8222D01*
X13554Y8222D01*
X13567Y8205D01*
X13502Y8120D01*
X13461Y8022D01*
X13448Y7916D01*
Y7227D01*
X13461Y7122D01*
X13502Y7023D01*
X13567Y6939D01*
X13652Y6874D01*
X13750Y6833D01*
X13856Y6819D01*
X14544D01*
X14650Y6833D01*
X14748Y6874D01*
X14833Y6939D01*
X14898Y7023D01*
X14939Y7122D01*
X14952Y7227D01*
Y7916D01*
X14939Y8022D01*
X14898Y8120D01*
X14833Y8205D01*
X14748Y8269D01*
X14754Y8298D01*
X15146D01*
X15185Y8306D01*
X15219Y8328D01*
X15266Y8375D01*
X15300Y8349D01*
X15434Y8294D01*
X15578Y8275D01*
X15676Y8288D01*
X15677Y8286D01*
X15677D01*
X15702Y8191D01*
X15669Y8177D01*
X15615Y8135D01*
X15573Y8081D01*
X15547Y8018D01*
X15544Y8000D01*
X15750D01*
Y8206D01*
X15778Y8209D01*
X15777Y8211D01*
X15777D01*
X15752Y8306D01*
X15856Y8349D01*
X15972Y8438D01*
X15994Y8467D01*
X15994Y8467D01*
D02*
G37*
G36*
X11985Y14427D02*
X11991Y14413D01*
X11992Y14398D01*
X12000Y14391D01*
X12004Y14381D01*
X12018Y14375D01*
X12029Y14366D01*
X12042Y14361D01*
X12080Y14277D01*
X12070Y14200D01*
X12080Y14123D01*
X12110Y14051D01*
X12157Y13989D01*
X12205Y13952D01*
Y13807D01*
X12047D01*
Y13293D01*
D01*
Y13293D01*
X12006Y13252D01*
X11931D01*
Y13252D01*
Y13293D01*
X11931Y13323D01*
X11931Y13323D01*
X11931D01*
Y13500D01*
X11378D01*
Y13323D01*
Y13323D01*
X11378D01*
Y13323D01*
D01*
Y13323D01*
X11378D01*
X11378Y13293D01*
X11336Y13252D01*
X10892D01*
X10780Y13365D01*
X10802Y13419D01*
X10813Y13500D01*
X10802Y13581D01*
X10771Y13656D01*
X10721Y13721D01*
X10656Y13771D01*
X10581Y13802D01*
X10500Y13813D01*
X10419Y13802D01*
X10344Y13771D01*
X10279Y13721D01*
X10229Y13656D01*
X10206Y13601D01*
X10108Y13621D01*
Y13922D01*
X10156Y13941D01*
X10218Y13989D01*
X10265Y14051D01*
X10295Y14123D01*
X10305Y14200D01*
X10295Y14277D01*
X10265Y14349D01*
X10218Y14411D01*
X10156Y14459D01*
X10084Y14489D01*
X10006Y14499D01*
X9929Y14489D01*
X9857Y14459D01*
X9795Y14411D01*
X9748Y14349D01*
X9718Y14277D01*
X9708Y14200D01*
X9718Y14123D01*
X9748Y14051D01*
X9795Y13989D01*
X9857Y13941D01*
X9904Y13922D01*
Y13449D01*
X9328Y12872D01*
X9306Y12839D01*
X9300Y12811D01*
X9143D01*
Y12811D01*
X9105D01*
X9102Y12831D01*
X9071Y12906D01*
X9021Y12971D01*
X8956Y13021D01*
X8881Y13052D01*
X8800Y13063D01*
X8719Y13052D01*
X8644Y13021D01*
X8579Y12971D01*
X8529Y12906D01*
X8498Y12831D01*
X8491Y12777D01*
X8398Y12738D01*
X8356Y12771D01*
X8281Y12802D01*
X8200Y12813D01*
X8119Y12802D01*
X8044Y12771D01*
X7979Y12721D01*
X7929Y12656D01*
X7898Y12581D01*
X7887Y12500D01*
X7898Y12419D01*
X7929Y12344D01*
X7979Y12279D01*
X8044Y12229D01*
X8098Y12207D01*
Y12092D01*
X7784Y11778D01*
X7635Y11682D01*
X7539Y11642D01*
D01*
D01*
X7533Y11644D01*
X7530Y11649D01*
X6287Y12504D01*
X6281Y12505D01*
X6277Y12509D01*
X3489Y13803D01*
X3488Y13804D01*
X3488Y13804D01*
X3488Y13804D01*
X3477Y13808D01*
X3466Y13809D01*
X3464Y13809D01*
X3463Y13809D01*
X3463Y13809D01*
X3463Y13809D01*
X3462Y13810D01*
X3461D01*
X3450Y13814D01*
X3438D01*
X3438Y13814D01*
X3438Y13814D01*
X3437Y13815D01*
X1028D01*
X1023Y13813D01*
D01*
X1016D01*
X1008Y13810D01*
X1003D01*
X999Y13808D01*
X996Y13806D01*
X983Y13804D01*
X978Y13797D01*
X970Y13794D01*
X965Y13781D01*
X962Y13780D01*
X959Y13776D01*
X958Y13771D01*
X953Y13764D01*
X951Y13757D01*
X949Y13753D01*
X929Y13675D01*
X847Y13694D01*
X728Y13691D01*
X685Y13677D01*
X598Y13728D01*
X597Y13732D01*
X588Y13744D01*
X584Y13758D01*
X575Y13764D01*
X568Y13773D01*
X553Y13775D01*
X540Y13782D01*
X232Y13815D01*
X229Y13814D01*
X225Y13815D01*
X-570D01*
X-573Y13814D01*
D01*
X-582D01*
X-591Y13810D01*
X-595D01*
X-598Y13809D01*
X-600Y13807D01*
X-613Y13805D01*
X-619Y13798D01*
X-628Y13795D01*
X-633Y13782D01*
X-635Y13781D01*
X-637Y13778D01*
X-638Y13774D01*
X-644Y13766D01*
X-647Y13758D01*
X-649Y13755D01*
X-653Y13742D01*
X-660Y13733D01*
X-660Y13733D01*
X-660Y13732D01*
X-675Y13714D01*
X-675Y13714D01*
X-676Y13713D01*
X-676Y13713D01*
D01*
D01*
D01*
Y13713D01*
X-676Y13713D01*
X-676Y13713D01*
X-676Y13713D01*
D01*
D01*
D01*
Y13713D01*
X-698Y13681D01*
X-728Y13691D01*
X-847Y13694D01*
X-932Y13675D01*
X-955Y13764D01*
X-965Y13778D01*
X-972Y13794D01*
X-980Y13797D01*
X-985Y13804D01*
X-996Y13806D01*
X-999Y13808D01*
X-1003Y13810D01*
X-1010D01*
X-1018Y13813D01*
X-1023D01*
X-1023Y13813D01*
X-1023Y13813D01*
X-1028Y13815D01*
X-2500D01*
X-4012Y13827D01*
X-4012Y13827D01*
X-4013Y13827D01*
X-5381Y13821D01*
X-6750Y13815D01*
X-8802D01*
X-8803Y13814D01*
X-8803Y13814D01*
X-8813Y13811D01*
X-8824Y13811D01*
X-8824Y13811D01*
X-8825Y13811D01*
X-8825Y13811D01*
D01*
X-8840Y13800D01*
X-8850Y13796D01*
D01*
X-8850Y13796D01*
X-8850Y13796D01*
Y13796D01*
X-8850Y13796D01*
D01*
X-8870Y13778D01*
X-8935Y13858D01*
X-9076Y13974D01*
X-9237Y14060D01*
X-9411Y14113D01*
X-9593Y14131D01*
X-9775Y14113D01*
X-9949Y14060D01*
X-10110Y13974D01*
X-10251Y13858D01*
X-10263Y13843D01*
X-10382Y13794D01*
X-10400Y13793D01*
X-10401Y13794D01*
X-10408Y13797D01*
X-10410Y13800D01*
X-10412Y13800D01*
X-10413Y13801D01*
X-10417Y13803D01*
X-10420D01*
X-10432Y13811D01*
X-10438Y13813D01*
X-10444Y13812D01*
X-10447Y13813D01*
D01*
X-10447Y13813D01*
X-10447Y13813D01*
D01*
X-10447D01*
Y13813D01*
D01*
D01*
X-10448Y13813D01*
X-10449Y13813D01*
Y13813D01*
D01*
D01*
D01*
X-10449D01*
Y13813D01*
D01*
X-10454Y13815D01*
X-10737D01*
X-10749Y13810D01*
X-10762Y13810D01*
X-10771Y13806D01*
X-10771D01*
X-10771Y13806D01*
X-10771Y13806D01*
X-10780Y13797D01*
X-10783Y13796D01*
X-10784Y13793D01*
X-10786Y13791D01*
X-10793Y13784D01*
X-10796Y13783D01*
X-10797Y13780D01*
X-10806Y13771D01*
X-10810Y13762D01*
X-10810Y13749D01*
X-10815Y13737D01*
Y12761D01*
X-10811Y12752D01*
X-10811Y12752D01*
X-10811Y12751D01*
X-10811Y12749D01*
X-10811Y12747D01*
X-10809Y12742D01*
X-10808Y12732D01*
X-10805Y12725D01*
Y12725D01*
X-10802Y12718D01*
X-10794Y12711D01*
X-10792Y12706D01*
X-10790Y12704D01*
X-10789Y12703D01*
X-10789Y12702D01*
X-10788Y12702D01*
X-10784Y12694D01*
X-9087Y11239D01*
Y11239D01*
X-12803Y6038D01*
X-12805Y6027D01*
X-12812Y6018D01*
X-14062Y1768D01*
X-14061Y1759D01*
X-14065Y1750D01*
Y-1250D01*
X-14060Y-1262D01*
X-14060Y-1274D01*
X-13565Y-2513D01*
Y-8630D01*
X-13563Y-8634D01*
X-13564Y-8639D01*
X-13558Y-8650D01*
X-13585Y-8746D01*
X-13717Y-8817D01*
X-13858Y-8932D01*
X-13974Y-9074D01*
X-14060Y-9234D01*
X-14113Y-9409D01*
X-14131Y-9591D01*
X-14113Y-9772D01*
X-14060Y-9947D01*
X-13974Y-10108D01*
X-13858Y-10249D01*
X-13717Y-10364D01*
X-13585Y-10435D01*
X-13558Y-10531D01*
X-13564Y-10542D01*
X-13563Y-10547D01*
X-13565Y-10551D01*
Y-10987D01*
X-13560Y-10999D01*
X-13560Y-11012D01*
X-13556Y-11021D01*
Y-11021D01*
X-13556Y-11021D01*
X-13556Y-11021D01*
X-13547Y-11030D01*
X-13546Y-11033D01*
X-13543Y-11034D01*
X-13541Y-11036D01*
X-13534Y-11043D01*
X-13533Y-11046D01*
X-13530Y-11047D01*
X-13521Y-11056D01*
X-13512Y-11060D01*
X-13499Y-11060D01*
X-13487Y-11065D01*
X-12759D01*
X-12752Y-11062D01*
X-12751Y-11063D01*
D01*
D01*
Y-11063D01*
D01*
D01*
D01*
D01*
D01*
X-12751Y-11063D01*
D01*
D01*
D01*
D01*
X-12751Y-11063D01*
X-12751Y-11063D01*
X-12751Y-11063D01*
Y-11063D01*
D01*
D01*
Y-11063D01*
X-12749Y-11062D01*
X-12745Y-11063D01*
X-12738Y-11062D01*
X-12729Y-11055D01*
X-12723Y-11054D01*
X-12722Y-11053D01*
X-12722Y-11053D01*
X-12720Y-11053D01*
X-12716Y-11048D01*
X-12705Y-11044D01*
X-12700Y-11039D01*
X-12699Y-11035D01*
X-12697Y-11034D01*
X-12697Y-11034D01*
X-12697Y-11033D01*
X-12691Y-11029D01*
X-12206Y-10300D01*
Y-10300D01*
X-11715Y-9565D01*
X-10527D01*
X-9661Y-10430D01*
X-9661Y-10430D01*
X-8796Y-11296D01*
X-8796Y-11296D01*
X-8796D01*
X-8785Y-11301D01*
X-8776Y-11309D01*
X-6753Y-12195D01*
X-4776Y-13060D01*
X-4770Y-13060D01*
X-4766Y-13063D01*
X-4539Y-13120D01*
X-4526Y-13118D01*
X-4513Y-13121D01*
X-4504Y-13120D01*
X-4493Y-13113D01*
X-4480Y-13111D01*
X-4473Y-13101D01*
X-4461Y-13094D01*
X-4458Y-13082D01*
X-4451Y-13071D01*
X-4427Y-12978D01*
X-4343Y-12992D01*
X-4225Y-12981D01*
X-4113Y-12938D01*
X-4016Y-12869D01*
X-3940Y-12777D01*
X-3915Y-12721D01*
X-3819Y-12750D01*
X-3829Y-12810D01*
X-3817Y-12929D01*
X-3775Y-13041D01*
X-3706Y-13138D01*
X-3613Y-13214D01*
X-3504Y-13263D01*
X-3466Y-13269D01*
Y-13269D01*
X-3467Y-13294D01*
X-3467Y-13294D01*
X-3467D01*
Y-13294D01*
D01*
D01*
X-3467Y-13295D01*
X-3467Y-13314D01*
D01*
X-3467Y-13314D01*
X-3467D01*
D01*
D01*
X-3467Y-13314D01*
X-3460Y-13327D01*
X-3460Y-13328D01*
X-3455Y-13350D01*
X-3449Y-13358D01*
X-3447Y-13369D01*
X-3445Y-13371D01*
X-3444Y-13374D01*
X-3435Y-13380D01*
X-3430Y-13388D01*
X-3422Y-13394D01*
X-3410Y-13397D01*
X-3407Y-13399D01*
X-3407Y-13399D01*
X-3407D01*
X-3399Y-13405D01*
X-2766Y-13563D01*
X-2758Y-13562D01*
X-2750Y-13565D01*
X-2216D01*
X-2213Y-13563D01*
X-2212Y-13564D01*
X-2207Y-13562D01*
X-2199Y-13562D01*
X-2194Y-13561D01*
X-2183Y-13552D01*
X-2181Y-13552D01*
X-2181Y-13552D01*
X-2178Y-13550D01*
X-2173Y-13547D01*
X-2172Y-13547D01*
X-2171Y-13547D01*
X-2169Y-13546D01*
X-2167Y-13545D01*
X-2167Y-13545D01*
X-2166Y-13545D01*
X-2163Y-13542D01*
X-2163Y-13541D01*
X-2162Y-13540D01*
X-2160Y-13538D01*
X-2158Y-13534D01*
X-2155Y-13532D01*
X-2153Y-13528D01*
X-2149Y-13527D01*
D01*
D01*
D01*
Y-13527D01*
D01*
D01*
D01*
D01*
X-2149D01*
X-2149D01*
D01*
D01*
D01*
D01*
D01*
Y-13527D01*
X-2064Y-13513D01*
D01*
X-1959Y-13569D01*
X-1842Y-13596D01*
X-1723Y-13592D01*
X-1609Y-13558D01*
X-1507Y-13495D01*
X-1426Y-13408D01*
X-1369Y-13302D01*
X-1355Y-13243D01*
X-1256Y-13252D01*
X-1254Y-13314D01*
X-1219Y-13428D01*
X-1156Y-13529D01*
X-1069Y-13611D01*
X-964Y-13667D01*
X-847Y-13694D01*
X-728Y-13691D01*
X-614Y-13656D01*
X-512Y-13593D01*
X-471Y-13549D01*
X-371Y-13547D01*
X-369Y-13549D01*
X-360Y-13553D01*
X-357D01*
X-345Y-13561D01*
X-339Y-13563D01*
X-333Y-13562D01*
X-329Y-13563D01*
X-328Y-13563D01*
X-323Y-13565D01*
X323D01*
X328Y-13563D01*
X329Y-13563D01*
X329Y-13563D01*
X333Y-13562D01*
X339Y-13563D01*
X345Y-13561D01*
X357Y-13553D01*
X360D01*
X369Y-13549D01*
X370Y-13547D01*
X372Y-13547D01*
X372Y-13547D01*
X372Y-13547D01*
X372Y-13547D01*
Y-13547D01*
X372Y-13547D01*
X390Y-13535D01*
D01*
X390D01*
D01*
X501Y-13581D01*
X512Y-13593D01*
X614Y-13656D01*
X728Y-13691D01*
X847Y-13694D01*
X964Y-13667D01*
X1069Y-13611D01*
X1156Y-13529D01*
X1219Y-13428D01*
X1254Y-13314D01*
X1256Y-13252D01*
X1355Y-13243D01*
X1369Y-13302D01*
X1426Y-13408D01*
X1507Y-13495D01*
X1609Y-13558D01*
X1723Y-13592D01*
X1842Y-13596D01*
X1959Y-13569D01*
X2064Y-13513D01*
X2066Y-13512D01*
X2113Y-13492D01*
X2113D01*
X2132Y-13510D01*
Y-13510D01*
X2132Y-13510D01*
D01*
D01*
X2132Y-13511D01*
X2137Y-13515D01*
X2137Y-13515D01*
X2141Y-13523D01*
D01*
Y-13523D01*
X2141Y-13523D01*
X2142Y-13524D01*
X2149Y-13527D01*
X2154Y-13534D01*
X2155Y-13534D01*
X2158Y-13535D01*
X2160Y-13538D01*
X2162Y-13540D01*
X2163Y-13541D01*
X2163Y-13542D01*
X2166Y-13545D01*
X2167Y-13545D01*
X2167Y-13545D01*
X2168Y-13546D01*
X2171Y-13547D01*
X2172Y-13547D01*
X2173Y-13547D01*
X2178Y-13550D01*
X2181Y-13552D01*
X2181Y-13552D01*
X2183Y-13552D01*
X2194Y-13561D01*
X2199Y-13562D01*
X2199Y-13562D01*
X2199D01*
D01*
D01*
D01*
D01*
X2207Y-13562D01*
X2212Y-13564D01*
X2213Y-13563D01*
X2216Y-13565D01*
X2500D01*
X2509Y-13561D01*
X2519Y-13562D01*
X3133Y-13373D01*
X3134Y-13372D01*
X3135Y-13372D01*
X3141Y-13366D01*
X3152Y-13364D01*
X3153Y-13363D01*
X3161Y-13350D01*
X3162Y-13349D01*
X3169Y-13345D01*
X3170Y-13343D01*
X3173Y-13340D01*
X3175Y-13336D01*
X3176Y-13328D01*
X3180Y-13321D01*
X3180Y-13321D01*
X3267Y-13270D01*
X3268Y-13271D01*
X3386Y-13283D01*
X3504Y-13263D01*
X3613Y-13214D01*
X3706Y-13138D01*
X3775Y-13041D01*
X3817Y-12929D01*
X3829Y-12810D01*
X3819Y-12750D01*
X3915Y-12721D01*
X3940Y-12777D01*
X4016Y-12869D01*
X4113Y-12938D01*
X4225Y-12981D01*
X4343Y-12992D01*
X4461Y-12973D01*
X4570Y-12923D01*
X4662Y-12848D01*
X4732Y-12751D01*
X4774Y-12639D01*
X4786Y-12520D01*
X4785Y-12517D01*
X4802Y-12511D01*
X5451Y-12242D01*
X5471Y-12233D01*
X5475Y-12239D01*
X5567Y-12314D01*
X5676Y-12364D01*
X5794Y-12383D01*
X5913Y-12371D01*
X6025Y-12329D01*
X6122Y-12260D01*
X6198Y-12167D01*
X6247Y-12059D01*
X6266Y-11941D01*
X6255Y-11822D01*
X6233Y-11765D01*
X6321Y-11717D01*
X6357Y-11767D01*
X6449Y-11843D01*
X6558Y-11892D01*
X6676Y-11912D01*
X6795Y-11900D01*
X6907Y-11858D01*
X7004Y-11788D01*
X7080Y-11696D01*
X7129Y-11587D01*
X7148Y-11469D01*
X7137Y-11350D01*
X7134Y-11344D01*
X7301Y-11242D01*
X7757Y-10929D01*
X7757Y-10929D01*
X7862Y-10985D01*
X7979Y-11013D01*
X8098Y-11009D01*
X8212Y-10974D01*
X8314Y-10911D01*
X8395Y-10824D01*
X8452Y-10718D01*
X8479Y-10602D01*
X8475Y-10483D01*
X8440Y-10368D01*
X8408Y-10316D01*
X8485Y-10253D01*
X8530Y-10295D01*
X8635Y-10351D01*
X8752Y-10378D01*
X8871Y-10374D01*
X8985Y-10340D01*
X9087Y-10277D01*
X9168Y-10189D01*
X9198Y-10183D01*
X9198Y-10184D01*
X9215Y-10189D01*
X9230Y-10197D01*
X9316Y-10210D01*
X9318Y-10209D01*
X9319Y-10210D01*
X9342Y-10203D01*
X9364Y-10198D01*
X9365Y-10196D01*
X9367Y-10195D01*
X9368Y-10195D01*
Y-10195D01*
X9542Y-10050D01*
X9543Y-10047D01*
X9546Y-10046D01*
X10258Y-9334D01*
X10258Y-9333D01*
X10259Y-9333D01*
X10268Y-9310D01*
X10277Y-9288D01*
X10277Y-9287D01*
X10277Y-9286D01*
X10275Y-9205D01*
X10318Y-9167D01*
X10374Y-9142D01*
X10408Y-9147D01*
X10413Y-9146D01*
X10417Y-9148D01*
X10436Y-9140D01*
X10456Y-9134D01*
X10459Y-9130D01*
X10463Y-9129D01*
X10852Y-8740D01*
X11296Y-8296D01*
X11296Y-8296D01*
Y-8296D01*
X11299Y-8288D01*
X11306Y-8283D01*
X12056Y-7033D01*
X12056Y-7030D01*
X12059Y-7027D01*
X13309Y-4277D01*
X13309Y-4270D01*
X13313Y-4264D01*
X13640Y-2797D01*
X13639Y-2795D01*
X13640Y-2793D01*
X13635Y-2770D01*
X13631Y-2748D01*
X13629Y-2746D01*
X13629Y-2745D01*
X13571Y-2663D01*
X13571Y-2662D01*
X13605Y-2652D01*
X14408D01*
X16278Y-4522D01*
X16311Y-4544D01*
X16334Y-4549D01*
Y-4805D01*
X16685D01*
Y-4984D01*
X16686Y-4986D01*
X16685Y-4988D01*
X16685Y-4988D01*
Y-4988D01*
Y-4988D01*
X16685D01*
X16685Y-4988D01*
D01*
D01*
X16697Y-5044D01*
X16697D01*
X16621Y-5076D01*
X16547Y-5132D01*
X16490Y-5207D01*
X16454Y-5293D01*
X16442Y-5386D01*
X16454Y-5479D01*
X16490Y-5565D01*
X16547Y-5639D01*
X16621Y-5696D01*
X16697Y-5728D01*
X16697Y-5728D01*
X16685Y-5784D01*
D01*
D01*
X16685Y-5784D01*
X16685D01*
Y-5784D01*
Y-5784D01*
X16685D01*
X16686Y-5786D01*
X16685Y-5788D01*
Y-6293D01*
X16686Y-6296D01*
X16685Y-6298D01*
X16685Y-6298D01*
X16685Y-6298D01*
X16685Y-6344D01*
X16685Y-6344D01*
Y-6362D01*
X16685Y-6362D01*
X16644Y-6379D01*
X16579Y-6429D01*
X16529Y-6494D01*
X16511Y-6538D01*
X15562D01*
X15257Y-6233D01*
Y-5858D01*
X14743D01*
Y-6411D01*
X15118D01*
X15436Y-6729D01*
X15436Y-6729D01*
X15472Y-6754D01*
X15515Y-6762D01*
X15515Y-6762D01*
X16511D01*
X16529Y-6806D01*
X16579Y-6871D01*
X16644Y-6921D01*
X16685Y-6938D01*
X16685Y-6938D01*
D01*
X16685Y-6938D01*
Y-6956D01*
X16685Y-6956D01*
X16685Y-7002D01*
X16685Y-7002D01*
X16685D01*
X16686Y-7004D01*
X16685Y-7007D01*
Y-9543D01*
X16658D01*
Y-10057D01*
X16685D01*
Y-10221D01*
X16200Y-10647D01*
X16103Y-10625D01*
X16060Y-10522D01*
X15972Y-10406D01*
X15856Y-10318D01*
X15722Y-10262D01*
X15578Y-10243D01*
X15434Y-10262D01*
X15300Y-10318D01*
X15184Y-10406D01*
X15096Y-10522D01*
X15040Y-10656D01*
X15021Y-10800D01*
X15040Y-10944D01*
X15096Y-11078D01*
X15184Y-11194D01*
X15300Y-11282D01*
X15334Y-11297D01*
X15350Y-11395D01*
X14225Y-12385D01*
X13900D01*
X13878Y-12394D01*
X13856Y-12402D01*
X12175Y-13935D01*
X12057D01*
Y-13458D01*
X11543D01*
Y-13568D01*
X11451Y-13607D01*
X11179Y-13335D01*
X11202Y-13281D01*
X11213Y-13200D01*
X11202Y-13119D01*
X11171Y-13044D01*
X11121Y-12979D01*
X11056Y-12929D01*
X10981Y-12898D01*
X10991Y-12819D01*
X11000Y-12813D01*
X10950Y-12806D01*
Y-12500D01*
Y-12194D01*
X10919Y-12198D01*
X10844Y-12229D01*
X10779Y-12279D01*
X10721D01*
X10656Y-12229D01*
X10581Y-12198D01*
X10550Y-12194D01*
Y-12500D01*
Y-12806D01*
X10581Y-12802D01*
X10656Y-12771D01*
X10721Y-12721D01*
X10779D01*
X10844Y-12771D01*
X10892Y-12791D01*
X10879Y-12890D01*
X10819Y-12898D01*
X10744Y-12929D01*
X10679Y-12979D01*
X10629Y-13044D01*
X10598Y-13119D01*
X10587Y-13200D01*
X10598Y-13281D01*
X10629Y-13356D01*
X10679Y-13421D01*
X10744Y-13471D01*
X10819Y-13502D01*
X10900Y-13513D01*
X10981Y-13502D01*
X11035Y-13479D01*
X11363Y-13807D01*
X11396Y-13829D01*
X11429Y-13836D01*
X11419Y-13935D01*
X9857D01*
Y-13858D01*
X9343D01*
Y-13935D01*
X8999D01*
X8985Y-13941D01*
X8970Y-13942D01*
X8963Y-13950D01*
X8953Y-13954D01*
X8953Y-13954D01*
Y-13954D01*
X8920Y-13993D01*
X8920Y-13993D01*
X8844Y-13961D01*
X8763Y-13951D01*
X8682Y-13961D01*
X8607Y-13993D01*
X8521Y-13972D01*
X8520Y-13971D01*
X8512Y-13964D01*
X8508Y-13954D01*
X8494Y-13948D01*
X8483Y-13938D01*
X8472Y-13939D01*
X8462Y-13935D01*
X8155D01*
Y-13858D01*
X7445D01*
Y-13935D01*
X-7172D01*
X-7204Y-13840D01*
X-7179Y-13821D01*
X-7129Y-13756D01*
X-7098Y-13681D01*
X-7087Y-13600D01*
X-7098Y-13519D01*
X-7129Y-13444D01*
X-7179Y-13379D01*
X-7244Y-13329D01*
X-7319Y-13298D01*
X-7400Y-13287D01*
X-7481Y-13298D01*
X-7532Y-13275D01*
X-7547Y-13229D01*
X-7557Y-13218D01*
X-7563Y-13204D01*
X-7573Y-13200D01*
X-7580Y-13192D01*
X-7595Y-13191D01*
X-7609Y-13185D01*
X-11863D01*
X-11909Y-13204D01*
X-11930Y-13226D01*
X-11958Y-13230D01*
X-11977Y-13240D01*
X-11996Y-13248D01*
X-11998Y-13252D01*
X-12002Y-13254D01*
X-12007Y-13275D01*
X-12015Y-13294D01*
Y-13312D01*
X-12056Y-13329D01*
X-12121Y-13379D01*
X-12171Y-13444D01*
X-12179Y-13462D01*
X-12389D01*
Y-13343D01*
X-12942D01*
Y-13857D01*
X-12565D01*
Y-14143D01*
X-12942D01*
Y-14657D01*
X-12942D01*
Y-14711D01*
X-12987Y-14712D01*
X-13058Y-14642D01*
Y-14450D01*
X-13611D01*
Y-14657D01*
X-13611D01*
Y-14725D01*
X-14729Y-14749D01*
X-14800Y-14679D01*
Y14629D01*
X-14750Y14650D01*
D01*
X-14750D01*
D01*
Y14650D01*
X-14750D01*
D01*
X11985D01*
Y14427D01*
D02*
G37*
%LPC*%
G36*
X-13150Y-8665D02*
Y-9541D01*
X-12274D01*
X-12287Y-9409D01*
X-12340Y-9234D01*
X-12426Y-9074D01*
X-12542Y-8932D01*
X-12683Y-8817D01*
X-12844Y-8731D01*
X-13018Y-8678D01*
X-13150Y-8665D01*
D02*
G37*
G36*
X14450Y-9244D02*
X14432Y-9247D01*
X14369Y-9273D01*
X14315Y-9315D01*
X14273Y-9369D01*
X14247Y-9432D01*
X14244Y-9450D01*
X14450D01*
Y-9244D01*
D02*
G37*
G36*
X16215Y-9543D02*
X15989D01*
Y-9750D01*
X16215D01*
Y-9543D01*
D02*
G37*
G36*
X16542D02*
X16315D01*
Y-9750D01*
X16542D01*
Y-9543D01*
D02*
G37*
G36*
X17211D02*
X16985D01*
Y-9750D01*
X17211D01*
Y-9543D01*
D02*
G37*
G36*
X14550Y-9244D02*
Y-9450D01*
X14756D01*
X14753Y-9432D01*
X14727Y-9369D01*
X14685Y-9315D01*
X14631Y-9273D01*
X14568Y-9247D01*
X14550Y-9244D01*
D02*
G37*
G36*
X14450Y-8800D02*
X14244D01*
X14247Y-8818D01*
X14273Y-8881D01*
X14315Y-8935D01*
X14369Y-8977D01*
X14432Y-9003D01*
X14450Y-9006D01*
Y-8800D01*
D02*
G37*
G36*
X9542Y-8549D02*
X9506Y-8608D01*
X9471Y-8722D01*
X9467Y-8841D01*
X9495Y-8958D01*
X9551Y-9063D01*
X9598Y-9113D01*
X9852Y-8803D01*
X9542Y-8549D01*
D02*
G37*
G36*
X15528Y-8281D02*
X15434Y-8294D01*
X15300Y-8349D01*
X15184Y-8438D01*
X15096Y-8553D01*
X15040Y-8687D01*
X15028Y-8781D01*
X15528D01*
Y-8281D01*
D02*
G37*
G36*
X14756Y-8800D02*
X14550D01*
Y-9006D01*
X14568Y-9003D01*
X14631Y-8977D01*
X14685Y-8935D01*
X14727Y-8881D01*
X14753Y-8818D01*
X14756Y-8800D01*
D02*
G37*
G36*
X16128Y-8881D02*
X15628D01*
Y-9382D01*
X15722Y-9369D01*
X15856Y-9314D01*
X15972Y-9225D01*
X16060Y-9110D01*
X16116Y-8976D01*
X16128Y-8881D01*
D02*
G37*
G36*
X15528D02*
X15028D01*
X15040Y-8976D01*
X15096Y-9110D01*
X15184Y-9225D01*
X15300Y-9314D01*
X15434Y-9369D01*
X15528Y-9382D01*
Y-8881D01*
D02*
G37*
G36*
X-10512Y-7568D02*
X-10632Y-7572D01*
X-10746Y-7607D01*
X-10848Y-7670D01*
X-10929Y-7757D01*
X-10985Y-7862D01*
X-11013Y-7979D01*
X-11009Y-8098D01*
X-10974Y-8212D01*
X-10911Y-8314D01*
X-10824Y-8395D01*
X-10718Y-8452D01*
X-10602Y-8479D01*
X-10483Y-8475D01*
X-10368Y-8440D01*
X-10316Y-8408D01*
X-10253Y-8485D01*
X-10295Y-8530D01*
X-10351Y-8635D01*
X-10378Y-8752D01*
X-10374Y-8871D01*
X-10340Y-8985D01*
X-10277Y-9087D01*
X-10189Y-9168D01*
X-10084Y-9225D01*
X-9968Y-9252D01*
X-9848Y-9248D01*
X-9734Y-9213D01*
X-9632Y-9150D01*
X-9551Y-9063D01*
X-9495Y-8958D01*
X-9467Y-8841D01*
X-9471Y-8722D01*
X-9506Y-8608D01*
X-9569Y-8506D01*
X-9656Y-8425D01*
X-9762Y-8368D01*
X-9878Y-8341D01*
X-9997Y-8345D01*
X-10112Y-8380D01*
X-10164Y-8412D01*
X-10227Y-8335D01*
X-10185Y-8290D01*
X-10129Y-8185D01*
X-10102Y-8068D01*
X-10106Y-7949D01*
X-10140Y-7835D01*
X-10203Y-7733D01*
X-10291Y-7652D01*
X-10396Y-7595D01*
X-10512Y-7568D01*
D02*
G37*
G36*
X6636Y-8616D02*
X6519Y-8639D01*
X6411Y-8692D01*
X6322Y-8770D01*
X6255Y-8870D01*
X6217Y-8983D01*
X6209Y-9102D01*
X6232Y-9219D01*
X6259Y-9274D01*
X6176Y-9330D01*
X6136Y-9284D01*
X6037Y-9217D01*
X5924Y-9179D01*
X5804Y-9171D01*
X5687Y-9194D01*
X5580Y-9247D01*
X5490Y-9326D01*
X5424Y-9425D01*
X5385Y-9539D01*
X5378Y-9658D01*
X5401Y-9775D01*
X5454Y-9882D01*
X5533Y-9972D01*
X5632Y-10038D01*
X5745Y-10077D01*
X5864Y-10084D01*
X5981Y-10061D01*
X6089Y-10008D01*
X6178Y-9930D01*
X6245Y-9830D01*
X6283Y-9717D01*
X6291Y-9598D01*
X6268Y-9481D01*
X6241Y-9426D01*
X6324Y-9370D01*
X6364Y-9416D01*
X6463Y-9483D01*
X6576Y-9521D01*
X6696Y-9529D01*
X6813Y-9506D01*
X6920Y-9453D01*
X7010Y-9374D01*
X7076Y-9275D01*
X7115Y-9161D01*
X7122Y-9042D01*
X7099Y-8925D01*
X7046Y-8818D01*
X6967Y-8728D01*
X6868Y-8662D01*
X6755Y-8623D01*
X6636Y-8616D01*
D02*
G37*
G36*
X4832Y-9745D02*
X4712D01*
X4597Y-9776D01*
X4493Y-9836D01*
X4409Y-9920D01*
X4349Y-10024D01*
X4318Y-10139D01*
Y-10258D01*
X4334Y-10317D01*
X4242Y-10356D01*
X4211Y-10303D01*
X4127Y-10218D01*
X4023Y-10159D01*
X3908Y-10128D01*
X3788D01*
X3673Y-10159D01*
X3569Y-10218D01*
X3485Y-10303D01*
X3425Y-10406D01*
X3394Y-10522D01*
Y-10641D01*
X3425Y-10756D01*
X3485Y-10860D01*
X3569Y-10944D01*
X3673Y-11004D01*
X3788Y-11035D01*
X3908D01*
X4023Y-11004D01*
X4127Y-10944D01*
X4211Y-10860D01*
X4271Y-10756D01*
X4302Y-10641D01*
Y-10522D01*
X4286Y-10463D01*
X4378Y-10424D01*
X4409Y-10477D01*
X4493Y-10562D01*
X4597Y-10621D01*
X4712Y-10652D01*
X4832D01*
X4947Y-10621D01*
X5051Y-10562D01*
X5135Y-10477D01*
X5195Y-10374D01*
X5226Y-10258D01*
Y-10139D01*
X5195Y-10024D01*
X5135Y-9920D01*
X5051Y-9836D01*
X4947Y-9776D01*
X4832Y-9745D01*
D02*
G37*
G36*
X0Y10505D02*
X-634Y10486D01*
X-1266Y10428D01*
X-1894Y10333D01*
X-2514Y10200D01*
X-3125Y10029D01*
X-3725Y9822D01*
X-4311Y9579D01*
X-4882Y9302D01*
X-5435Y8990D01*
X-5967Y8645D01*
X-6478Y8269D01*
X-6966Y7863D01*
X-7428Y7428D01*
X-7863Y6966D01*
X-8269Y6478D01*
X-8645Y5967D01*
X-8990Y5435D01*
X-9302Y4882D01*
X-9579Y4311D01*
X-9822Y3725D01*
X-10029Y3125D01*
X-10200Y2514D01*
X-10333Y1894D01*
X-10428Y1266D01*
X-10486Y634D01*
X-10505Y0D01*
X-10486Y-634D01*
X-10428Y-1266D01*
X-10333Y-1894D01*
X-10200Y-2514D01*
X-10029Y-3125D01*
X-9822Y-3725D01*
X-9579Y-4311D01*
X-9302Y-4882D01*
X-8990Y-5435D01*
X-8645Y-5967D01*
X-8269Y-6478D01*
X-7863Y-6966D01*
X-7428Y-7428D01*
X-6966Y-7863D01*
X-6478Y-8269D01*
X-5967Y-8645D01*
X-5435Y-8990D01*
X-4882Y-9302D01*
X-4311Y-9579D01*
X-3725Y-9822D01*
X-3125Y-10029D01*
X-2514Y-10200D01*
X-1894Y-10333D01*
X-1266Y-10428D01*
X-634Y-10486D01*
X0Y-10505D01*
X634Y-10486D01*
X1266Y-10428D01*
X1894Y-10333D01*
X2514Y-10200D01*
X3125Y-10029D01*
X3725Y-9822D01*
X4311Y-9579D01*
X4882Y-9302D01*
X5435Y-8990D01*
X5967Y-8645D01*
X6478Y-8269D01*
X6966Y-7863D01*
X7428Y-7428D01*
X7863Y-6966D01*
X8269Y-6478D01*
X8645Y-5967D01*
X8990Y-5435D01*
X9302Y-4882D01*
X9579Y-4311D01*
X9822Y-3725D01*
X10029Y-3125D01*
X10200Y-2514D01*
X10333Y-1894D01*
X10428Y-1266D01*
X10486Y-634D01*
X10505Y0D01*
X10486Y634D01*
X10428Y1266D01*
X10333Y1894D01*
X10200Y2514D01*
X10029Y3125D01*
X9822Y3725D01*
X9579Y4311D01*
X9302Y4882D01*
X8990Y5435D01*
X8645Y5967D01*
X8269Y6478D01*
X7863Y6966D01*
X7428Y7428D01*
X6966Y7863D01*
X6478Y8269D01*
X5967Y8645D01*
X5435Y8990D01*
X4882Y9302D01*
X4311Y9579D01*
X3725Y9822D01*
X3125Y10029D01*
X2514Y10200D01*
X1894Y10333D01*
X1266Y10428D01*
X634Y10486D01*
X0Y10505D01*
D02*
G37*
G36*
X14450Y-9994D02*
X14432Y-9997D01*
X14369Y-10023D01*
X14315Y-10065D01*
X14273Y-10119D01*
X14247Y-10182D01*
X14244Y-10200D01*
X14450D01*
Y-9994D01*
D02*
G37*
G36*
X-9177Y-9675D02*
X-9213Y-9734D01*
X-9248Y-9848D01*
X-9252Y-9968D01*
X-9225Y-10084D01*
X-9168Y-10189D01*
X-9121Y-10240D01*
X-8867Y-9930D01*
X-9177Y-9675D01*
D02*
G37*
G36*
X14756Y-10300D02*
X14550D01*
Y-10506D01*
X14568Y-10503D01*
X14631Y-10477D01*
X14685Y-10435D01*
X14727Y-10381D01*
X14753Y-10318D01*
X14756Y-10300D01*
D02*
G37*
G36*
X-11260Y-9925D02*
Y-10722D01*
X-10464D01*
X-10475Y-10606D01*
X-10524Y-10446D01*
X-10602Y-10299D01*
X-10708Y-10170D01*
X-10837Y-10064D01*
X-10984Y-9985D01*
X-11144Y-9937D01*
X-11260Y-9925D01*
D02*
G37*
G36*
X-11360D02*
X-11476Y-9937D01*
X-11636Y-9985D01*
X-11783Y-10064D01*
X-11912Y-10170D01*
X-12018Y-10299D01*
X-12097Y-10446D01*
X-12145Y-10606D01*
X-12157Y-10722D01*
X-11360D01*
Y-9925D01*
D02*
G37*
G36*
X14450Y-10300D02*
X14244D01*
X14247Y-10318D01*
X14273Y-10381D01*
X14315Y-10435D01*
X14369Y-10477D01*
X14432Y-10503D01*
X14450Y-10506D01*
Y-10300D01*
D02*
G37*
G36*
X-12274Y-9641D02*
X-13150D01*
Y-10516D01*
X-13018Y-10503D01*
X-12844Y-10450D01*
X-12683Y-10364D01*
X-12542Y-10249D01*
X-12426Y-10108D01*
X-12340Y-9947D01*
X-12287Y-9772D01*
X-12274Y-9641D01*
D02*
G37*
G36*
X-8841Y-9467D02*
X-8958Y-9495D01*
X-9063Y-9551D01*
X-9113Y-9598D01*
X-8803Y-9852D01*
X-8549Y-9542D01*
X-8608Y-9506D01*
X-8722Y-9471D01*
X-8841Y-9467D01*
D02*
G37*
G36*
X-8472Y-9606D02*
X-8758Y-9955D01*
D01*
X-9044Y-10303D01*
X-8985Y-10340D01*
X-8871Y-10374D01*
X-8752Y-10378D01*
X-8635Y-10351D01*
X-8530Y-10295D01*
X-8485Y-10253D01*
X-8408Y-10316D01*
X-8440Y-10368D01*
X-8475Y-10483D01*
X-8479Y-10602D01*
X-8452Y-10718D01*
X-8395Y-10824D01*
X-8314Y-10911D01*
X-8212Y-10974D01*
X-8098Y-11009D01*
X-7979Y-11013D01*
X-7862Y-10985D01*
X-7757Y-10929D01*
X-7670Y-10848D01*
X-7607Y-10746D01*
X-7572Y-10632D01*
X-7568Y-10512D01*
X-7595Y-10396D01*
X-7652Y-10291D01*
X-7733Y-10203D01*
X-7835Y-10140D01*
X-7949Y-10106D01*
X-8068Y-10102D01*
X-8185Y-10129D01*
X-8290Y-10185D01*
X-8335Y-10227D01*
X-8412Y-10164D01*
X-8380Y-10112D01*
X-8345Y-9997D01*
X-8341Y-9878D01*
X-8368Y-9762D01*
X-8425Y-9656D01*
X-8472Y-9606D01*
D02*
G37*
G36*
X14756Y-9550D02*
X14550D01*
Y-9756D01*
X14568Y-9753D01*
X14631Y-9727D01*
X14685Y-9685D01*
X14727Y-9631D01*
X14753Y-9568D01*
X14756Y-9550D01*
D02*
G37*
G36*
X14450D02*
X14244D01*
X14247Y-9568D01*
X14273Y-9631D01*
X14315Y-9685D01*
X14369Y-9727D01*
X14432Y-9753D01*
X14450Y-9756D01*
Y-9550D01*
D02*
G37*
G36*
X17211Y-9850D02*
X16985D01*
Y-10057D01*
X17211D01*
Y-9850D01*
D02*
G37*
G36*
X-6636Y-8616D02*
X-6755Y-8623D01*
X-6868Y-8662D01*
X-6967Y-8728D01*
X-7046Y-8818D01*
X-7099Y-8925D01*
X-7122Y-9042D01*
X-7115Y-9161D01*
X-7076Y-9275D01*
X-7010Y-9374D01*
X-6920Y-9453D01*
X-6813Y-9506D01*
X-6696Y-9529D01*
X-6576Y-9521D01*
X-6463Y-9483D01*
X-6364Y-9416D01*
X-6324Y-9370D01*
X-6241Y-9426D01*
X-6268Y-9481D01*
X-6291Y-9598D01*
X-6283Y-9717D01*
X-6245Y-9830D01*
X-6178Y-9930D01*
X-6089Y-10008D01*
X-5981Y-10061D01*
X-5864Y-10084D01*
X-5745Y-10077D01*
X-5632Y-10038D01*
X-5533Y-9972D01*
X-5454Y-9882D01*
X-5401Y-9775D01*
X-5378Y-9658D01*
X-5385Y-9539D01*
X-5424Y-9425D01*
X-5490Y-9326D01*
X-5580Y-9247D01*
X-5687Y-9194D01*
X-5804Y-9171D01*
X-5924Y-9179D01*
X-6037Y-9217D01*
X-6136Y-9284D01*
X-6176Y-9330D01*
X-6259Y-9274D01*
X-6232Y-9219D01*
X-6209Y-9102D01*
X-6217Y-8983D01*
X-6255Y-8870D01*
X-6322Y-8770D01*
X-6411Y-8692D01*
X-6519Y-8639D01*
X-6636Y-8616D01*
D02*
G37*
G36*
X14550Y-9994D02*
Y-10200D01*
X14756D01*
X14753Y-10182D01*
X14727Y-10119D01*
X14685Y-10065D01*
X14631Y-10023D01*
X14568Y-9997D01*
X14550Y-9994D01*
D02*
G37*
G36*
X16542Y-9850D02*
X16315D01*
Y-10057D01*
X16542D01*
Y-9850D01*
D02*
G37*
G36*
X16215D02*
X15989D01*
Y-10057D01*
X16215D01*
Y-9850D01*
D02*
G37*
G36*
X-11098Y-1243D02*
X-11217Y-1251D01*
X-11330Y-1289D01*
X-11429Y-1356D01*
X-11508Y-1445D01*
X-11561Y-1553D01*
X-11584Y-1670D01*
X-11576Y-1789D01*
X-11538Y-1902D01*
X-11472Y-2001D01*
X-11382Y-2080D01*
X-11275Y-2133D01*
X-11157Y-2156D01*
X-11096Y-2152D01*
X-11077Y-2250D01*
X-11135Y-2270D01*
X-11234Y-2336D01*
X-11313Y-2426D01*
X-11366Y-2533D01*
X-11389Y-2650D01*
X-11381Y-2770D01*
X-11343Y-2883D01*
X-11277Y-2982D01*
X-11187Y-3061D01*
X-11080Y-3114D01*
X-10962Y-3137D01*
X-10843Y-3129D01*
X-10730Y-3091D01*
X-10631Y-3024D01*
X-10552Y-2935D01*
X-10499Y-2827D01*
X-10476Y-2710D01*
X-10484Y-2591D01*
X-10522Y-2478D01*
X-10588Y-2379D01*
X-10678Y-2300D01*
X-10785Y-2247D01*
X-10903Y-2224D01*
X-10964Y-2228D01*
X-10983Y-2130D01*
X-10925Y-2110D01*
X-10826Y-2044D01*
X-10747Y-1954D01*
X-10694Y-1847D01*
X-10671Y-1730D01*
X-10679Y-1610D01*
X-10717Y-1497D01*
X-10783Y-1398D01*
X-10873Y-1319D01*
X-10980Y-1266D01*
X-11098Y-1243D01*
D02*
G37*
G36*
X12840Y-2914D02*
X12721Y-2926D01*
X12609Y-2968D01*
X12512Y-3038D01*
X12437Y-3130D01*
X12387Y-3239D01*
X12368Y-3357D01*
X12379Y-3475D01*
X12422Y-3587D01*
X12491Y-3684D01*
X12583Y-3760D01*
X12639Y-3785D01*
X12610Y-3881D01*
X12550Y-3871D01*
X12431Y-3883D01*
X12319Y-3925D01*
X12222Y-3994D01*
X12146Y-4087D01*
X12097Y-4196D01*
X12077Y-4313D01*
X12089Y-4432D01*
X12131Y-4544D01*
X12201Y-4641D01*
X12293Y-4717D01*
X12402Y-4766D01*
X12520Y-4786D01*
X12639Y-4774D01*
X12751Y-4732D01*
X12848Y-4662D01*
X12923Y-4570D01*
X12973Y-4461D01*
X12992Y-4343D01*
X12981Y-4225D01*
X12938Y-4113D01*
X12869Y-4016D01*
X12777Y-3940D01*
X12721Y-3915D01*
X12750Y-3819D01*
X12810Y-3829D01*
X12929Y-3817D01*
X13041Y-3775D01*
X13138Y-3706D01*
X13214Y-3613D01*
X13263Y-3504D01*
X13283Y-3386D01*
X13271Y-3268D01*
X13229Y-3156D01*
X13159Y-3059D01*
X13067Y-2983D01*
X12958Y-2934D01*
X12840Y-2914D01*
D02*
G37*
G36*
X16542Y-2250D02*
X16315D01*
Y-2457D01*
X16542D01*
Y-2250D01*
D02*
G37*
G36*
X16215D02*
X15989D01*
Y-2457D01*
X16215D01*
Y-2250D01*
D02*
G37*
G36*
X15666Y-4095D02*
X14956D01*
Y-4805D01*
X15091D01*
X15129Y-4898D01*
X14934Y-5092D01*
X14908Y-5132D01*
X14899Y-5179D01*
Y-5189D01*
X14743D01*
Y-5742D01*
X15257D01*
Y-5189D01*
X15257Y-5189D01*
X15257D01*
X15236Y-5137D01*
X15398Y-4975D01*
X15424Y-4936D01*
X15433Y-4889D01*
D01*
D01*
D01*
D01*
D01*
D01*
X15433D01*
D01*
D01*
D01*
Y-4889D01*
X15433Y-4889D01*
D01*
D01*
D01*
D01*
D01*
D01*
D01*
D01*
D01*
D01*
D01*
Y-4881D01*
Y-4876D01*
X15504Y-4805D01*
X15666D01*
Y-4095D01*
D02*
G37*
G36*
X-10522Y-3394D02*
X-10641D01*
X-10756Y-3425D01*
X-10860Y-3485D01*
X-10944Y-3569D01*
X-11004Y-3673D01*
X-11035Y-3788D01*
Y-3908D01*
X-11004Y-4023D01*
X-10944Y-4127D01*
X-10860Y-4211D01*
X-10756Y-4271D01*
X-10641Y-4302D01*
X-10522D01*
X-10463Y-4286D01*
X-10424Y-4378D01*
X-10477Y-4409D01*
X-10562Y-4493D01*
X-10621Y-4597D01*
X-10652Y-4712D01*
Y-4832D01*
X-10621Y-4947D01*
X-10562Y-5051D01*
X-10477Y-5135D01*
X-10374Y-5195D01*
X-10258Y-5226D01*
X-10139D01*
X-10024Y-5195D01*
X-9920Y-5135D01*
X-9836Y-5051D01*
X-9776Y-4947D01*
X-9745Y-4832D01*
Y-4712D01*
X-9776Y-4597D01*
X-9836Y-4493D01*
X-9920Y-4409D01*
X-10024Y-4349D01*
X-10139Y-4318D01*
X-10258D01*
X-10317Y-4334D01*
X-10356Y-4242D01*
X-10303Y-4211D01*
X-10218Y-4127D01*
X-10159Y-4023D01*
X-10128Y-3908D01*
Y-3788D01*
X-10159Y-3673D01*
X-10218Y-3569D01*
X-10303Y-3485D01*
X-10406Y-3425D01*
X-10522Y-3394D01*
D02*
G37*
G36*
X10641D02*
X10522D01*
X10406Y-3425D01*
X10303Y-3485D01*
X10218Y-3569D01*
X10159Y-3673D01*
X10128Y-3788D01*
Y-3908D01*
X10159Y-4023D01*
X10218Y-4127D01*
X10303Y-4211D01*
X10356Y-4242D01*
X10317Y-4334D01*
X10258Y-4318D01*
X10139D01*
X10024Y-4349D01*
X9920Y-4409D01*
X9836Y-4493D01*
X9776Y-4597D01*
X9745Y-4712D01*
Y-4832D01*
X9776Y-4947D01*
X9836Y-5051D01*
X9920Y-5135D01*
X10024Y-5195D01*
X10139Y-5226D01*
X10258D01*
X10374Y-5195D01*
X10477Y-5135D01*
X10562Y-5051D01*
X10621Y-4947D01*
X10652Y-4832D01*
Y-4712D01*
X10621Y-4597D01*
X10562Y-4493D01*
X10477Y-4409D01*
X10424Y-4378D01*
X10463Y-4286D01*
X10522Y-4302D01*
X10641D01*
X10756Y-4271D01*
X10860Y-4211D01*
X10944Y-4127D01*
X11004Y-4023D01*
X11035Y-3908D01*
Y-3788D01*
X11004Y-3673D01*
X10944Y-3569D01*
X10860Y-3485D01*
X10756Y-3425D01*
X10641Y-3394D01*
D02*
G37*
G36*
X-12840Y-2914D02*
X-12958Y-2934D01*
X-13067Y-2983D01*
X-13159Y-3059D01*
X-13229Y-3156D01*
X-13271Y-3268D01*
X-13283Y-3387D01*
X-13263Y-3504D01*
X-13214Y-3613D01*
X-13138Y-3706D01*
X-13041Y-3775D01*
X-12929Y-3817D01*
X-12810Y-3829D01*
X-12750Y-3819D01*
X-12721Y-3915D01*
X-12777Y-3940D01*
X-12869Y-4016D01*
X-12938Y-4113D01*
X-12981Y-4225D01*
X-12992Y-4343D01*
X-12973Y-4461D01*
X-12923Y-4570D01*
X-12848Y-4662D01*
X-12751Y-4732D01*
X-12639Y-4774D01*
X-12520Y-4786D01*
X-12402Y-4766D01*
X-12293Y-4717D01*
X-12201Y-4641D01*
X-12131Y-4544D01*
X-12089Y-4432D01*
X-12077Y-4313D01*
X-12097Y-4196D01*
X-12146Y-4087D01*
X-12222Y-3994D01*
X-12319Y-3925D01*
X-12431Y-3883D01*
X-12550Y-3871D01*
X-12610Y-3881D01*
X-12639Y-3785D01*
X-12583Y-3760D01*
X-12491Y-3684D01*
X-12422Y-3587D01*
X-12379Y-3475D01*
X-12368Y-3357D01*
X-12387Y-3239D01*
X-12437Y-3130D01*
X-12512Y-3038D01*
X-12609Y-2968D01*
X-12721Y-2926D01*
X-12840Y-2914D01*
D02*
G37*
G36*
X15816Y-920D02*
X15697Y-936D01*
X15587Y-982D01*
X15492Y-1054D01*
X15419Y-1149D01*
X15374Y-1260D01*
X15358Y-1378D01*
X15374Y-1496D01*
X15419Y-1607D01*
X15492Y-1702D01*
X15587Y-1774D01*
X15697Y-1820D01*
X15816Y-1836D01*
X15934Y-1820D01*
X16045Y-1774D01*
X16139Y-1702D01*
X16212Y-1607D01*
X16258Y-1496D01*
X16273Y-1378D01*
X16258Y-1260D01*
X16212Y-1149D01*
X16139Y-1054D01*
X16045Y-982D01*
X15934Y-936D01*
X15816Y-920D01*
D02*
G37*
G36*
X17211Y-1943D02*
X16985D01*
Y-2150D01*
X17211D01*
Y-1943D01*
D02*
G37*
G36*
X-10799Y450D02*
X-11701D01*
X-11692Y382D01*
X-11646Y271D01*
X-11574Y176D01*
X-11479Y104D01*
X-11368Y58D01*
X-11308Y50D01*
Y-50D01*
X-11368Y-58D01*
X-11479Y-104D01*
X-11574Y-176D01*
X-11646Y-271D01*
X-11692Y-382D01*
X-11708Y-500D01*
X-11692Y-618D01*
X-11646Y-729D01*
X-11574Y-824D01*
X-11479Y-896D01*
X-11368Y-942D01*
X-11250Y-958D01*
X-11132Y-942D01*
X-11021Y-896D01*
X-10926Y-824D01*
X-10854Y-729D01*
X-10808Y-618D01*
X-10792Y-500D01*
X-10808Y-382D01*
X-10854Y-271D01*
X-10926Y-176D01*
X-11021Y-104D01*
X-11132Y-58D01*
X-11192Y-50D01*
Y50D01*
X-11132Y58D01*
X-11021Y104D01*
X-10926Y176D01*
X-10854Y271D01*
X-10808Y382D01*
X-10799Y450D01*
D02*
G37*
G36*
X13284Y-347D02*
X13164Y-351D01*
X13050Y-386D01*
X12949Y-449D01*
X12867Y-536D01*
X12811Y-641D01*
X12784Y-758D01*
X12788Y-877D01*
X12822Y-991D01*
X12885Y-1093D01*
X12972Y-1174D01*
X13078Y-1231D01*
X13194Y-1258D01*
X13314Y-1254D01*
X13428Y-1219D01*
X13529Y-1156D01*
X13611Y-1069D01*
X13667Y-964D01*
X13694Y-847D01*
X13691Y-728D01*
X13656Y-614D01*
X13593Y-512D01*
X13506Y-430D01*
X13400Y-374D01*
X13284Y-347D01*
D02*
G37*
G36*
X11098Y-1243D02*
X10980Y-1266D01*
X10873Y-1319D01*
X10783Y-1398D01*
X10717Y-1497D01*
X10679Y-1610D01*
X10671Y-1730D01*
X10694Y-1847D01*
X10747Y-1954D01*
X10826Y-2044D01*
X10925Y-2110D01*
X10983Y-2130D01*
X10964Y-2228D01*
X10903Y-2224D01*
X10785Y-2247D01*
X10678Y-2300D01*
X10588Y-2379D01*
X10522Y-2478D01*
X10484Y-2591D01*
X10476Y-2710D01*
X10499Y-2827D01*
X10552Y-2935D01*
X10631Y-3024D01*
X10730Y-3091D01*
X10843Y-3129D01*
X10962Y-3137D01*
X11080Y-3114D01*
X11187Y-3061D01*
X11277Y-2982D01*
X11343Y-2883D01*
X11381Y-2770D01*
X11389Y-2650D01*
X11366Y-2533D01*
X11313Y-2426D01*
X11234Y-2336D01*
X11135Y-2270D01*
X11077Y-2250D01*
X11096Y-2152D01*
X11157Y-2156D01*
X11275Y-2133D01*
X11382Y-2080D01*
X11472Y-2001D01*
X11538Y-1902D01*
X11576Y-1789D01*
X11584Y-1670D01*
X11561Y-1553D01*
X11508Y-1445D01*
X11429Y-1356D01*
X11330Y-1289D01*
X11217Y-1251D01*
X11098Y-1243D01*
D02*
G37*
G36*
X17211Y-2250D02*
X16985D01*
Y-2457D01*
X17211D01*
Y-2250D01*
D02*
G37*
G36*
X16542Y-1943D02*
X16315D01*
Y-2150D01*
X16542D01*
Y-1943D01*
D02*
G37*
G36*
X16215D02*
X15989D01*
Y-2150D01*
X16215D01*
Y-1943D01*
D02*
G37*
G36*
X9658Y-5378D02*
X9539Y-5385D01*
X9425Y-5424D01*
X9326Y-5490D01*
X9247Y-5580D01*
X9194Y-5687D01*
X9171Y-5804D01*
X9179Y-5924D01*
X9217Y-6037D01*
X9284Y-6136D01*
X9330Y-6176D01*
X9274Y-6259D01*
X9219Y-6232D01*
X9102Y-6209D01*
X8983Y-6217D01*
X8870Y-6255D01*
X8770Y-6322D01*
X8692Y-6411D01*
X8639Y-6519D01*
X8616Y-6636D01*
X8623Y-6755D01*
X8662Y-6868D01*
X8728Y-6967D01*
X8818Y-7046D01*
X8925Y-7099D01*
X9042Y-7122D01*
X9161Y-7115D01*
X9275Y-7076D01*
X9374Y-7010D01*
X9453Y-6920D01*
X9506Y-6813D01*
X9529Y-6696D01*
X9521Y-6576D01*
X9483Y-6463D01*
X9416Y-6364D01*
X9370Y-6324D01*
X9426Y-6241D01*
X9481Y-6268D01*
X9598Y-6291D01*
X9717Y-6283D01*
X9830Y-6245D01*
X9930Y-6178D01*
X10008Y-6089D01*
X10061Y-5981D01*
X10084Y-5864D01*
X10077Y-5745D01*
X10038Y-5632D01*
X9972Y-5533D01*
X9882Y-5454D01*
X9775Y-5401D01*
X9658Y-5378D01*
D02*
G37*
G36*
X14544Y-6819D02*
X13856D01*
X13750Y-6833D01*
X13652Y-6874D01*
X13567Y-6939D01*
X13502Y-7023D01*
X13461Y-7122D01*
X13448Y-7227D01*
Y-7916D01*
X13461Y-8022D01*
X13502Y-8120D01*
X13567Y-8205D01*
X13652Y-8269D01*
X13750Y-8310D01*
X13856Y-8324D01*
X14544D01*
X14650Y-8310D01*
X14748Y-8269D01*
X14833Y-8205D01*
X14898Y-8120D01*
X14939Y-8022D01*
X14952Y-7916D01*
Y-7227D01*
X14939Y-7122D01*
X14898Y-7023D01*
X14833Y-6939D01*
X14748Y-6874D01*
X14650Y-6833D01*
X14544Y-6819D01*
D02*
G37*
G36*
X7242Y-8020D02*
X7200Y-8075D01*
X7154Y-8185D01*
X7139Y-8304D01*
X7154Y-8422D01*
X7200Y-8532D01*
X7242Y-8587D01*
X7526Y-8304D01*
X7242Y-8020D01*
D02*
G37*
G36*
X-8658Y-7313D02*
X-8700Y-7368D01*
X-8746Y-7478D01*
X-8761Y-7596D01*
X-8746Y-7715D01*
X-8700Y-7825D01*
X-8658Y-7880D01*
X-8374Y-7596D01*
X-8658Y-7313D01*
D02*
G37*
G36*
X8304Y-7139D02*
X8185Y-7154D01*
X8075Y-7200D01*
X7980Y-7273D01*
X7907Y-7368D01*
X7862Y-7478D01*
X7846Y-7596D01*
X7862Y-7715D01*
X7907Y-7825D01*
X7944Y-7874D01*
X7874Y-7944D01*
X7825Y-7907D01*
X7715Y-7862D01*
X7596Y-7846D01*
X7478Y-7862D01*
X7368Y-7907D01*
X7313Y-7949D01*
X7632Y-8268D01*
D01*
X7632Y-8268D01*
X7632Y-8268D01*
D01*
X7951Y-8587D01*
X7993Y-8532D01*
X8038Y-8422D01*
X8054Y-8304D01*
X8038Y-8185D01*
X7993Y-8075D01*
X7956Y-8026D01*
X8026Y-7956D01*
X8075Y-7993D01*
X8185Y-8038D01*
X8304Y-8054D01*
X8422Y-8038D01*
X8532Y-7993D01*
X8627Y-7920D01*
X8700Y-7825D01*
X8746Y-7715D01*
X8761Y-7596D01*
X8746Y-7478D01*
X8700Y-7368D01*
X8627Y-7273D01*
X8532Y-7200D01*
X8422Y-7154D01*
X8304Y-7139D01*
D02*
G37*
G36*
X7596Y-8374D02*
X7313Y-8658D01*
X7368Y-8700D01*
X7478Y-8746D01*
X7596Y-8761D01*
X7715Y-8746D01*
X7825Y-8700D01*
X7880Y-8658D01*
X7596Y-8374D01*
D02*
G37*
G36*
X15628Y-8281D02*
Y-8781D01*
X16128D01*
X16116Y-8687D01*
X16060Y-8553D01*
X15972Y-8438D01*
X15856Y-8349D01*
X15722Y-8294D01*
X15628Y-8281D01*
D02*
G37*
G36*
X14550Y-8494D02*
Y-8700D01*
X14756D01*
X14753Y-8682D01*
X14727Y-8619D01*
X14685Y-8565D01*
X14631Y-8523D01*
X14568Y-8497D01*
X14550Y-8494D01*
D02*
G37*
G36*
X14450D02*
X14432Y-8497D01*
X14369Y-8523D01*
X14315Y-8565D01*
X14273Y-8619D01*
X14247Y-8682D01*
X14244Y-8700D01*
X14450D01*
Y-8494D01*
D02*
G37*
G36*
X16850Y-6344D02*
Y-6600D01*
X17106D01*
X17102Y-6569D01*
X17071Y-6494D01*
X17021Y-6429D01*
X16956Y-6379D01*
X16881Y-6348D01*
X16850Y-6344D01*
D02*
G37*
G36*
X17106Y-6700D02*
X16850D01*
Y-6956D01*
X16881Y-6952D01*
X16956Y-6921D01*
X17021Y-6871D01*
X17071Y-6806D01*
X17102Y-6731D01*
X17106Y-6700D01*
D02*
G37*
G36*
X11911Y-5352D02*
X11793Y-5371D01*
X11684Y-5420D01*
X11592Y-5496D01*
X11522Y-5593D01*
X11480Y-5705D01*
X11468Y-5824D01*
X11488Y-5942D01*
X11537Y-6051D01*
X11613Y-6143D01*
X11663Y-6179D01*
X11615Y-6267D01*
X11558Y-6245D01*
X11439Y-6234D01*
X11321Y-6253D01*
X11213Y-6302D01*
X11120Y-6378D01*
X11051Y-6475D01*
X11009Y-6587D01*
X10997Y-6706D01*
X11016Y-6824D01*
X11066Y-6933D01*
X11141Y-7025D01*
X11239Y-7095D01*
X11350Y-7137D01*
X11469Y-7148D01*
X11587Y-7129D01*
X11696Y-7080D01*
X11788Y-7004D01*
X11858Y-6907D01*
X11900Y-6795D01*
X11912Y-6676D01*
X11892Y-6558D01*
X11843Y-6449D01*
X11767Y-6357D01*
X11717Y-6321D01*
X11765Y-6233D01*
X11822Y-6255D01*
X11941Y-6266D01*
X12059Y-6247D01*
X12167Y-6198D01*
X12260Y-6122D01*
X12329Y-6025D01*
X12371Y-5913D01*
X12383Y-5794D01*
X12364Y-5676D01*
X12314Y-5567D01*
X12239Y-5475D01*
X12141Y-5405D01*
X12030Y-5363D01*
X11911Y-5352D01*
D02*
G37*
G36*
X15816Y-5420D02*
X15697Y-5436D01*
X15587Y-5482D01*
X15492Y-5554D01*
X15419Y-5649D01*
X15374Y-5760D01*
X15358Y-5878D01*
X15374Y-5996D01*
X15419Y-6107D01*
X15492Y-6202D01*
X15587Y-6274D01*
X15697Y-6320D01*
X15816Y-6336D01*
X15934Y-6320D01*
X16045Y-6274D01*
X16139Y-6202D01*
X16212Y-6107D01*
X16258Y-5996D01*
X16273Y-5878D01*
X16258Y-5760D01*
X16212Y-5649D01*
X16139Y-5554D01*
X16045Y-5482D01*
X15934Y-5436D01*
X15816Y-5420D01*
D02*
G37*
G36*
X-8304Y-7139D02*
X-8422Y-7154D01*
X-8532Y-7200D01*
X-8587Y-7242D01*
X-8304Y-7526D01*
X-8020Y-7242D01*
X-8075Y-7200D01*
X-8185Y-7154D01*
X-8304Y-7139D01*
D02*
G37*
G36*
X-7949Y-7313D02*
X-8268Y-7632D01*
D01*
X-8268Y-7632D01*
X-8268Y-7632D01*
D01*
X-8587Y-7951D01*
X-8532Y-7993D01*
X-8422Y-8038D01*
X-8304Y-8054D01*
X-8185Y-8038D01*
X-8075Y-7993D01*
X-8026Y-7956D01*
X-7956Y-8026D01*
X-7993Y-8075D01*
X-8038Y-8185D01*
X-8054Y-8304D01*
X-8038Y-8422D01*
X-7993Y-8532D01*
X-7920Y-8627D01*
X-7825Y-8700D01*
X-7715Y-8746D01*
X-7596Y-8761D01*
X-7478Y-8746D01*
X-7368Y-8700D01*
X-7273Y-8627D01*
X-7200Y-8532D01*
X-7154Y-8422D01*
X-7139Y-8304D01*
X-7154Y-8185D01*
X-7200Y-8075D01*
X-7273Y-7980D01*
X-7368Y-7907D01*
X-7478Y-7862D01*
X-7596Y-7846D01*
X-7715Y-7862D01*
X-7825Y-7907D01*
X-7874Y-7944D01*
X-7944Y-7874D01*
X-7907Y-7825D01*
X-7862Y-7715D01*
X-7846Y-7596D01*
X-7862Y-7478D01*
X-7907Y-7368D01*
X-7949Y-7313D01*
D02*
G37*
G36*
X-9658Y-5378D02*
X-9775Y-5401D01*
X-9882Y-5454D01*
X-9972Y-5533D01*
X-10038Y-5632D01*
X-10077Y-5745D01*
X-10084Y-5864D01*
X-10061Y-5981D01*
X-10008Y-6089D01*
X-9930Y-6178D01*
X-9830Y-6245D01*
X-9717Y-6283D01*
X-9598Y-6291D01*
X-9481Y-6268D01*
X-9426Y-6241D01*
X-9370Y-6324D01*
X-9416Y-6364D01*
X-9483Y-6463D01*
X-9521Y-6576D01*
X-9529Y-6696D01*
X-9506Y-6813D01*
X-9453Y-6920D01*
X-9374Y-7010D01*
X-9275Y-7076D01*
X-9161Y-7115D01*
X-9042Y-7122D01*
X-8925Y-7099D01*
X-8818Y-7046D01*
X-8728Y-6967D01*
X-8662Y-6868D01*
X-8623Y-6755D01*
X-8616Y-6636D01*
X-8639Y-6519D01*
X-8692Y-6411D01*
X-8770Y-6322D01*
X-8870Y-6255D01*
X-8983Y-6217D01*
X-9102Y-6209D01*
X-9219Y-6232D01*
X-9274Y-6259D01*
X-9330Y-6176D01*
X-9284Y-6136D01*
X-9217Y-6037D01*
X-9179Y-5924D01*
X-9171Y-5804D01*
X-9194Y-5687D01*
X-9247Y-5580D01*
X-9326Y-5490D01*
X-9425Y-5424D01*
X-9539Y-5385D01*
X-9658Y-5378D01*
D02*
G37*
G36*
X-11911Y-5352D02*
X-12030Y-5363D01*
X-12141Y-5405D01*
X-12239Y-5475D01*
X-12314Y-5567D01*
X-12364Y-5676D01*
X-12383Y-5794D01*
X-12371Y-5913D01*
X-12329Y-6025D01*
X-12260Y-6122D01*
X-12167Y-6198D01*
X-12059Y-6247D01*
X-11941Y-6266D01*
X-11822Y-6255D01*
X-11765Y-6233D01*
X-11717Y-6321D01*
X-11767Y-6357D01*
X-11843Y-6449D01*
X-11892Y-6558D01*
X-11912Y-6676D01*
X-11900Y-6795D01*
X-11858Y-6907D01*
X-11788Y-7004D01*
X-11696Y-7080D01*
X-11587Y-7129D01*
X-11469Y-7148D01*
X-11350Y-7137D01*
X-11239Y-7095D01*
X-11141Y-7025D01*
X-11066Y-6933D01*
X-11016Y-6824D01*
X-10997Y-6706D01*
X-11009Y-6587D01*
X-11051Y-6475D01*
X-11120Y-6378D01*
X-11213Y-6302D01*
X-11321Y-6253D01*
X-11439Y-6234D01*
X-11558Y-6245D01*
X-11615Y-6267D01*
X-11663Y-6179D01*
X-11613Y-6143D01*
X-11537Y-6051D01*
X-11488Y-5942D01*
X-11468Y-5824D01*
X-11480Y-5705D01*
X-11522Y-5593D01*
X-11592Y-5496D01*
X-11684Y-5420D01*
X-11793Y-5371D01*
X-11911Y-5352D01*
D02*
G37*
G36*
X9857Y-13189D02*
X9650D01*
Y-13415D01*
X9857D01*
Y-13189D01*
D02*
G37*
G36*
X9550D02*
X9343D01*
Y-13415D01*
X9550D01*
Y-13189D01*
D02*
G37*
G36*
X8155Y-13110D02*
X7850D01*
Y-13376D01*
X8155D01*
Y-13110D01*
D02*
G37*
G36*
X7750D02*
X7445D01*
Y-13376D01*
X7750D01*
Y-13110D01*
D02*
G37*
G36*
X-13385Y-13343D02*
X-13611D01*
Y-13550D01*
X-13385D01*
Y-13343D01*
D02*
G37*
G36*
X9857Y-13515D02*
X9650D01*
Y-13742D01*
X9857D01*
Y-13515D01*
D02*
G37*
G36*
X-11850Y-13294D02*
Y-13550D01*
X-11594D01*
X-11598Y-13519D01*
X-11629Y-13444D01*
X-11679Y-13379D01*
X-11744Y-13329D01*
X-11819Y-13298D01*
X-11850Y-13294D01*
D02*
G37*
G36*
X-13058Y-13343D02*
X-13285D01*
Y-13550D01*
X-13058D01*
Y-13343D01*
D02*
G37*
G36*
X11750Y-13115D02*
X11543D01*
Y-13342D01*
X11750D01*
Y-13115D01*
D02*
G37*
G36*
X-12050Y-12800D02*
X-12256D01*
X-12253Y-12818D01*
X-12227Y-12881D01*
X-12185Y-12935D01*
X-12131Y-12977D01*
X-12068Y-13003D01*
X-12050Y-13006D01*
Y-12800D01*
D02*
G37*
G36*
X12057Y-12789D02*
X11850D01*
Y-13015D01*
X12057D01*
Y-12789D01*
D02*
G37*
G36*
X-13250Y-12101D02*
X-14047D01*
X-14035Y-12217D01*
X-13987Y-12377D01*
X-13908Y-12524D01*
X-13802Y-12653D01*
X-13673Y-12759D01*
X-13526Y-12838D01*
X-13366Y-12886D01*
X-13250Y-12898D01*
Y-12101D01*
D02*
G37*
G36*
X-11744Y-12800D02*
X-11950D01*
Y-13006D01*
X-11932Y-13003D01*
X-11869Y-12977D01*
X-11815Y-12935D01*
X-11773Y-12881D01*
X-11747Y-12818D01*
X-11744Y-12800D01*
D02*
G37*
G36*
X15578Y-12212D02*
X15434Y-12231D01*
X15300Y-12286D01*
X15184Y-12375D01*
X15096Y-12490D01*
X15040Y-12624D01*
X15021Y-12768D01*
X15040Y-12913D01*
X15096Y-13047D01*
X15184Y-13162D01*
X15300Y-13251D01*
X15434Y-13306D01*
X15578Y-13325D01*
X15722Y-13306D01*
X15856Y-13251D01*
X15972Y-13162D01*
X16060Y-13047D01*
X16116Y-12913D01*
X16135Y-12768D01*
X16116Y-12624D01*
X16060Y-12490D01*
X15972Y-12375D01*
X15856Y-12286D01*
X15722Y-12231D01*
X15578Y-12212D01*
D02*
G37*
G36*
X12057Y-13115D02*
X11850D01*
Y-13342D01*
X12057D01*
Y-13115D01*
D02*
G37*
G36*
X11750Y-12789D02*
X11543D01*
Y-13015D01*
X11750D01*
Y-12789D01*
D02*
G37*
G36*
X708Y-12795D02*
X641Y-12811D01*
X536Y-12867D01*
X449Y-12949D01*
X386Y-13050D01*
X351Y-13164D01*
X349Y-13233D01*
X748Y-13194D01*
X708Y-12795D01*
D02*
G37*
G36*
X9857Y-14185D02*
X9650D01*
Y-14411D01*
X9857D01*
Y-14185D01*
D02*
G37*
G36*
X9550D02*
X9343D01*
Y-14411D01*
X9550D01*
Y-14185D01*
D02*
G37*
G36*
X10400Y-14144D02*
Y-14400D01*
X10656D01*
X10652Y-14369D01*
X10621Y-14294D01*
X10571Y-14229D01*
X10506Y-14179D01*
X10431Y-14148D01*
X10400Y-14144D01*
D02*
G37*
G36*
X10300D02*
X10269Y-14148D01*
X10194Y-14179D01*
X10129Y-14229D01*
X10079Y-14294D01*
X10048Y-14369D01*
X10044Y-14400D01*
X10300D01*
Y-14144D01*
D02*
G37*
G36*
X9069Y-14313D02*
X8813D01*
Y-14569D01*
X8844Y-14565D01*
X8920Y-14534D01*
X8984Y-14484D01*
X9034Y-14420D01*
X9065Y-14344D01*
X9069Y-14313D01*
D02*
G37*
G36*
X8713D02*
X8457D01*
X8461Y-14344D01*
X8493Y-14420D01*
X8542Y-14484D01*
X8607Y-14534D01*
X8682Y-14565D01*
X8713Y-14569D01*
Y-14313D01*
D02*
G37*
G36*
X8155Y-14224D02*
X7850D01*
Y-14490D01*
X8155D01*
Y-14224D01*
D02*
G37*
G36*
X7750D02*
X7445D01*
Y-14490D01*
X7750D01*
Y-14224D01*
D02*
G37*
G36*
X-13385Y-14143D02*
X-13611D01*
Y-14350D01*
X-13385D01*
Y-14143D01*
D02*
G37*
G36*
X7750Y-13476D02*
X7445D01*
Y-13742D01*
X7750D01*
Y-13476D01*
D02*
G37*
G36*
X-13058Y-13650D02*
X-13285D01*
Y-13857D01*
X-13058D01*
Y-13650D01*
D02*
G37*
G36*
X9550Y-13515D02*
X9343D01*
Y-13742D01*
X9550D01*
Y-13515D01*
D02*
G37*
G36*
X8155Y-13476D02*
X7850D01*
Y-13742D01*
X8155D01*
Y-13476D01*
D02*
G37*
G36*
X-11594Y-13650D02*
X-11850D01*
Y-13906D01*
X-11819Y-13902D01*
X-11744Y-13871D01*
X-11679Y-13821D01*
X-11629Y-13756D01*
X-11598Y-13681D01*
X-11594Y-13650D01*
D02*
G37*
G36*
X-13058Y-14143D02*
X-13285D01*
Y-14350D01*
X-13058D01*
Y-14143D01*
D02*
G37*
G36*
X-13385Y-13650D02*
X-13611D01*
Y-13857D01*
X-13385D01*
Y-13650D01*
D02*
G37*
G36*
X-7450D02*
X-7706D01*
X-7702Y-13681D01*
X-7671Y-13756D01*
X-7621Y-13821D01*
X-7556Y-13871D01*
X-7481Y-13902D01*
X-7450Y-13906D01*
Y-13650D01*
D02*
G37*
G36*
X-10464Y-10822D02*
X-11260D01*
Y-11618D01*
X-11144Y-11607D01*
X-10984Y-11558D01*
X-10837Y-11480D01*
X-10708Y-11374D01*
X-10602Y-11245D01*
X-10524Y-11098D01*
X-10475Y-10938D01*
X-10464Y-10822D01*
D02*
G37*
G36*
X-11360D02*
X-12157D01*
X-12145Y-10938D01*
X-12097Y-11098D01*
X-12018Y-11245D01*
X-11912Y-11374D01*
X-11783Y-11480D01*
X-11636Y-11558D01*
X-11476Y-11607D01*
X-11360Y-11618D01*
Y-10822D01*
D02*
G37*
G36*
X-10050Y-11494D02*
X-10068Y-11497D01*
X-10131Y-11523D01*
X-10185Y-11565D01*
X-10200Y-11584D01*
X-10300D01*
X-10315Y-11565D01*
X-10369Y-11523D01*
X-10432Y-11497D01*
X-10450Y-11494D01*
Y-11750D01*
Y-12006D01*
X-10432Y-12003D01*
X-10369Y-11977D01*
X-10315Y-11935D01*
X-10300Y-11916D01*
X-10200D01*
X-10185Y-11935D01*
X-10131Y-11977D01*
X-10068Y-12003D01*
X-10050Y-12006D01*
Y-11750D01*
Y-11494D01*
D02*
G37*
G36*
X-2710Y-10476D02*
X-2827Y-10499D01*
X-2935Y-10552D01*
X-3024Y-10631D01*
X-3091Y-10730D01*
X-3129Y-10843D01*
X-3137Y-10962D01*
X-3114Y-11080D01*
X-3061Y-11187D01*
X-2982Y-11277D01*
X-2883Y-11343D01*
X-2770Y-11381D01*
X-2650Y-11389D01*
X-2533Y-11366D01*
X-2426Y-11313D01*
X-2336Y-11234D01*
X-2270Y-11135D01*
X-2250Y-11077D01*
X-2152Y-11096D01*
X-2156Y-11157D01*
X-2133Y-11275D01*
X-2080Y-11382D01*
X-2001Y-11472D01*
X-1902Y-11538D01*
X-1789Y-11576D01*
X-1670Y-11584D01*
X-1553Y-11561D01*
X-1445Y-11508D01*
X-1356Y-11429D01*
X-1289Y-11330D01*
X-1251Y-11217D01*
X-1243Y-11098D01*
X-1266Y-10980D01*
X-1319Y-10873D01*
X-1398Y-10783D01*
X-1497Y-10717D01*
X-1610Y-10679D01*
X-1730Y-10671D01*
X-1847Y-10694D01*
X-1954Y-10747D01*
X-2044Y-10826D01*
X-2110Y-10925D01*
X-2130Y-10983D01*
X-2228Y-10964D01*
X-2224Y-10903D01*
X-2247Y-10785D01*
X-2300Y-10678D01*
X-2379Y-10588D01*
X-2478Y-10522D01*
X-2591Y-10484D01*
X-2710Y-10476D01*
D02*
G37*
G36*
X-550Y-11300D02*
X-951D01*
X-942Y-11368D01*
X-896Y-11479D01*
X-824Y-11574D01*
X-729Y-11646D01*
X-618Y-11692D01*
X-550Y-11701D01*
Y-11300D01*
D02*
G37*
G36*
X-11200Y-11744D02*
Y-11950D01*
X-10994D01*
X-10997Y-11932D01*
X-11023Y-11869D01*
X-11065Y-11815D01*
X-11119Y-11773D01*
X-11182Y-11747D01*
X-11200Y-11744D01*
D02*
G37*
G36*
X-9450Y-11494D02*
Y-11700D01*
X-9244D01*
X-9247Y-11682D01*
X-9273Y-11619D01*
X-9315Y-11565D01*
X-9369Y-11523D01*
X-9432Y-11497D01*
X-9450Y-11494D01*
D02*
G37*
G36*
X-10550D02*
X-10568Y-11497D01*
X-10631Y-11523D01*
X-10685Y-11565D01*
X-10727Y-11619D01*
X-10753Y-11682D01*
X-10756Y-11700D01*
X-10550D01*
Y-11494D01*
D02*
G37*
G36*
X-9550D02*
X-9568Y-11497D01*
X-9631Y-11523D01*
X-9685Y-11565D01*
X-9700Y-11584D01*
X-9800D01*
X-9815Y-11565D01*
X-9869Y-11523D01*
X-9932Y-11497D01*
X-9950Y-11494D01*
Y-11750D01*
Y-12006D01*
X-9932Y-12003D01*
X-9869Y-11977D01*
X-9815Y-11935D01*
X-9800Y-11916D01*
X-9700D01*
X-9685Y-11935D01*
X-9631Y-11977D01*
X-9568Y-12003D01*
X-9550Y-12006D01*
Y-11750D01*
Y-11494D01*
D02*
G37*
G36*
X2710Y-10476D02*
X2591Y-10484D01*
X2478Y-10522D01*
X2379Y-10588D01*
X2300Y-10678D01*
X2247Y-10785D01*
X2224Y-10903D01*
X2228Y-10964D01*
X2130Y-10983D01*
X2110Y-10925D01*
X2044Y-10826D01*
X1954Y-10747D01*
X1847Y-10694D01*
X1730Y-10671D01*
X1610Y-10679D01*
X1497Y-10717D01*
X1398Y-10783D01*
X1319Y-10873D01*
X1266Y-10980D01*
X1243Y-11098D01*
X1251Y-11217D01*
X1289Y-11330D01*
X1356Y-11429D01*
X1445Y-11508D01*
X1553Y-11561D01*
X1670Y-11584D01*
X1789Y-11576D01*
X1902Y-11538D01*
X2001Y-11472D01*
X2080Y-11382D01*
X2133Y-11275D01*
X2156Y-11157D01*
X2152Y-11096D01*
X2250Y-11077D01*
X2270Y-11135D01*
X2336Y-11234D01*
X2426Y-11313D01*
X2533Y-11366D01*
X2650Y-11389D01*
X2770Y-11381D01*
X2883Y-11343D01*
X2982Y-11277D01*
X3061Y-11187D01*
X3114Y-11080D01*
X3137Y-10962D01*
X3129Y-10843D01*
X3091Y-10730D01*
X3024Y-10631D01*
X2935Y-10552D01*
X2827Y-10499D01*
X2710Y-10476D01*
D02*
G37*
G36*
X-4712Y-9745D02*
X-4832D01*
X-4947Y-9776D01*
X-5051Y-9836D01*
X-5135Y-9920D01*
X-5195Y-10024D01*
X-5226Y-10139D01*
Y-10258D01*
X-5195Y-10374D01*
X-5135Y-10477D01*
X-5051Y-10562D01*
X-4947Y-10621D01*
X-4832Y-10652D01*
X-4712D01*
X-4597Y-10621D01*
X-4493Y-10562D01*
X-4409Y-10477D01*
X-4378Y-10424D01*
X-4286Y-10463D01*
X-4302Y-10522D01*
Y-10641D01*
X-4271Y-10756D01*
X-4211Y-10860D01*
X-4127Y-10944D01*
X-4023Y-11004D01*
X-3908Y-11035D01*
X-3788D01*
X-3673Y-11004D01*
X-3569Y-10944D01*
X-3485Y-10860D01*
X-3425Y-10756D01*
X-3394Y-10641D01*
Y-10522D01*
X-3425Y-10406D01*
X-3485Y-10303D01*
X-3569Y-10218D01*
X-3673Y-10159D01*
X-3788Y-10128D01*
X-3908D01*
X-4023Y-10159D01*
X-4127Y-10218D01*
X-4211Y-10303D01*
X-4242Y-10356D01*
X-4334Y-10317D01*
X-4318Y-10258D01*
Y-10139D01*
X-4349Y-10024D01*
X-4409Y-9920D01*
X-4493Y-9836D01*
X-4597Y-9776D01*
X-4712Y-9745D01*
D02*
G37*
G36*
X14550Y-10744D02*
Y-10950D01*
X14756D01*
X14753Y-10932D01*
X14727Y-10869D01*
X14685Y-10815D01*
X14631Y-10773D01*
X14568Y-10747D01*
X14550Y-10744D01*
D02*
G37*
G36*
X14450D02*
X14432Y-10747D01*
X14369Y-10773D01*
X14315Y-10815D01*
X14273Y-10869D01*
X14247Y-10932D01*
X14244Y-10950D01*
X14450D01*
Y-10744D01*
D02*
G37*
G36*
X14756Y-11050D02*
X14550D01*
Y-11256D01*
X14568Y-11253D01*
X14631Y-11227D01*
X14685Y-11185D01*
X14727Y-11131D01*
X14753Y-11068D01*
X14756Y-11050D01*
D02*
G37*
G36*
X14450D02*
X14244D01*
X14247Y-11068D01*
X14273Y-11131D01*
X14315Y-11185D01*
X14369Y-11227D01*
X14432Y-11253D01*
X14450Y-11256D01*
Y-11050D01*
D02*
G37*
G36*
X500Y-10792D02*
X382Y-10808D01*
X271Y-10854D01*
X176Y-10926D01*
X104Y-11021D01*
X58Y-11132D01*
X50Y-11192D01*
X-50D01*
X-58Y-11132D01*
X-104Y-11021D01*
X-176Y-10926D01*
X-271Y-10854D01*
X-382Y-10808D01*
X-450Y-10799D01*
Y-11250D01*
Y-11701D01*
X-382Y-11692D01*
X-271Y-11646D01*
X-176Y-11574D01*
X-104Y-11479D01*
X-58Y-11368D01*
X-50Y-11308D01*
X50D01*
X58Y-11368D01*
X104Y-11479D01*
X176Y-11574D01*
X271Y-11646D01*
X382Y-11692D01*
X500Y-11708D01*
X618Y-11692D01*
X729Y-11646D01*
X824Y-11574D01*
X896Y-11479D01*
X942Y-11368D01*
X958Y-11250D01*
X942Y-11132D01*
X896Y-11021D01*
X824Y-10926D01*
X729Y-10854D01*
X618Y-10808D01*
X500Y-10792D01*
D02*
G37*
G36*
X-550Y-10799D02*
X-618Y-10808D01*
X-729Y-10854D01*
X-824Y-10926D01*
X-896Y-11021D01*
X-942Y-11132D01*
X-951Y-11200D01*
X-550D01*
Y-10799D01*
D02*
G37*
G36*
X-11494Y-12300D02*
X-11700D01*
Y-12506D01*
X-11682Y-12503D01*
X-11619Y-12477D01*
X-11565Y-12435D01*
X-11523Y-12381D01*
X-11497Y-12318D01*
X-11494Y-12300D01*
D02*
G37*
G36*
X-11800D02*
X-12006D01*
X-12003Y-12318D01*
X-11977Y-12381D01*
X-11966Y-12396D01*
X-12004Y-12488D01*
X-12000Y-12488D01*
X-11950Y-12494D01*
Y-12700D01*
X-11744D01*
X-11747Y-12682D01*
X-11773Y-12619D01*
X-11784Y-12604D01*
X-11746Y-12512D01*
X-11750Y-12512D01*
X-11800Y-12506D01*
Y-12300D01*
D02*
G37*
G36*
X11050Y-12194D02*
Y-12450D01*
X11306D01*
X11302Y-12419D01*
X11271Y-12344D01*
X11221Y-12279D01*
X11156Y-12229D01*
X11081Y-12198D01*
X11050Y-12194D01*
D02*
G37*
G36*
X10450D02*
X10419Y-12198D01*
X10344Y-12229D01*
X10279Y-12279D01*
X10229Y-12344D01*
X10198Y-12419D01*
X10194Y-12450D01*
X10450D01*
Y-12194D01*
D02*
G37*
G36*
Y-12550D02*
X10194D01*
X10198Y-12581D01*
X10229Y-12656D01*
X10279Y-12721D01*
X10344Y-12771D01*
X10419Y-12802D01*
X10450Y-12806D01*
Y-12550D01*
D02*
G37*
G36*
X-12353Y-12101D02*
X-13150D01*
Y-12898D01*
X-13034Y-12886D01*
X-12874Y-12838D01*
X-12727Y-12759D01*
X-12598Y-12653D01*
X-12492Y-12524D01*
X-12413Y-12377D01*
X-12365Y-12217D01*
X-12353Y-12101D01*
D02*
G37*
G36*
X-12050Y-12494D02*
X-12068Y-12497D01*
X-12131Y-12523D01*
X-12185Y-12565D01*
X-12227Y-12619D01*
X-12253Y-12682D01*
X-12256Y-12700D01*
X-12050D01*
Y-12494D01*
D02*
G37*
G36*
X11306Y-12550D02*
X11050D01*
Y-12806D01*
X11081Y-12802D01*
X11156Y-12771D01*
X11221Y-12721D01*
X11271Y-12656D01*
X11302Y-12581D01*
X11306Y-12550D01*
D02*
G37*
G36*
X-6706Y-10997D02*
X-6824Y-11016D01*
X-6933Y-11066D01*
X-7025Y-11141D01*
X-7095Y-11239D01*
X-7137Y-11350D01*
X-7148Y-11469D01*
X-7129Y-11587D01*
X-7080Y-11696D01*
X-7004Y-11788D01*
X-6907Y-11858D01*
X-6795Y-11900D01*
X-6676Y-11912D01*
X-6558Y-11892D01*
X-6449Y-11843D01*
X-6357Y-11767D01*
X-6321Y-11717D01*
X-6233Y-11765D01*
X-6255Y-11822D01*
X-6266Y-11941D01*
X-6247Y-12059D01*
X-6198Y-12167D01*
X-6122Y-12260D01*
X-6025Y-12329D01*
X-5913Y-12371D01*
X-5794Y-12383D01*
X-5676Y-12364D01*
X-5567Y-12314D01*
X-5475Y-12239D01*
X-5405Y-12141D01*
X-5363Y-12030D01*
X-5352Y-11911D01*
X-5371Y-11793D01*
X-5420Y-11684D01*
X-5496Y-11592D01*
X-5593Y-11522D01*
X-5705Y-11480D01*
X-5824Y-11468D01*
X-5942Y-11488D01*
X-6051Y-11537D01*
X-6143Y-11613D01*
X-6179Y-11663D01*
X-6267Y-11615D01*
X-6245Y-11558D01*
X-6234Y-11439D01*
X-6253Y-11321D01*
X-6302Y-11213D01*
X-6378Y-11120D01*
X-6475Y-11051D01*
X-6587Y-11009D01*
X-6706Y-10997D01*
D02*
G37*
G36*
X-13250Y-11205D02*
X-13366Y-11216D01*
X-13526Y-11264D01*
X-13673Y-11343D01*
X-13802Y-11449D01*
X-13908Y-11578D01*
X-13987Y-11725D01*
X-14035Y-11885D01*
X-14047Y-12001D01*
X-13250D01*
Y-11205D01*
D02*
G37*
G36*
X-9244Y-11800D02*
X-9450D01*
Y-12006D01*
X-9432Y-12003D01*
X-9369Y-11977D01*
X-9315Y-11935D01*
X-9273Y-11881D01*
X-9247Y-11818D01*
X-9244Y-11800D01*
D02*
G37*
G36*
X-11300Y-11744D02*
X-11318Y-11747D01*
X-11381Y-11773D01*
X-11435Y-11815D01*
X-11477Y-11869D01*
X-11503Y-11932D01*
X-11506Y-11950D01*
X-11300D01*
Y-11744D01*
D02*
G37*
G36*
X-13150Y-11205D02*
Y-12001D01*
X-12353D01*
X-12365Y-11885D01*
X-12413Y-11725D01*
X-12492Y-11578D01*
X-12598Y-11449D01*
X-12727Y-11343D01*
X-12874Y-11264D01*
X-13034Y-11216D01*
X-13150Y-11205D01*
D02*
G37*
G36*
X-10994Y-12050D02*
X-11200D01*
Y-12256D01*
X-11182Y-12253D01*
X-11119Y-12227D01*
X-11065Y-12185D01*
X-11023Y-12131D01*
X-10997Y-12068D01*
X-10994Y-12050D01*
D02*
G37*
G36*
X-11700Y-11994D02*
Y-12200D01*
X-11494D01*
X-11488Y-12250D01*
X-11488Y-12254D01*
X-11396Y-12216D01*
X-11381Y-12227D01*
X-11318Y-12253D01*
X-11300Y-12256D01*
Y-12050D01*
X-11506D01*
X-11512Y-12000D01*
X-11512Y-11996D01*
X-11604Y-12034D01*
X-11619Y-12023D01*
X-11682Y-11997D01*
X-11700Y-11994D01*
D02*
G37*
G36*
X-10550Y-11800D02*
X-10756D01*
X-10753Y-11818D01*
X-10727Y-11881D01*
X-10685Y-11935D01*
X-10631Y-11977D01*
X-10568Y-12003D01*
X-10550Y-12006D01*
Y-11800D01*
D02*
G37*
G36*
X-11800Y-11994D02*
X-11818Y-11997D01*
X-11881Y-12023D01*
X-11935Y-12065D01*
X-11977Y-12119D01*
X-12003Y-12182D01*
X-12006Y-12200D01*
X-11800D01*
Y-11994D01*
D02*
G37*
G36*
X11200Y-550D02*
X10799D01*
X10808Y-618D01*
X10854Y-729D01*
X10926Y-824D01*
X11021Y-896D01*
X11132Y-942D01*
X11200Y-951D01*
Y-550D01*
D02*
G37*
G36*
X17241Y11787D02*
X17015D01*
Y11580D01*
X17241D01*
Y11787D01*
D02*
G37*
G36*
X16572D02*
X16345D01*
Y11580D01*
X16572D01*
Y11787D01*
D02*
G37*
G36*
X15150Y11850D02*
X14944D01*
X14947Y11832D01*
X14973Y11769D01*
X15015Y11715D01*
X15069Y11673D01*
X15132Y11647D01*
X15150Y11644D01*
Y11850D01*
D02*
G37*
G36*
X12586Y11689D02*
X12569Y11686D01*
X12507Y11661D01*
X12453Y11619D01*
X12450Y11615D01*
X12350D01*
X12347Y11619D01*
X12293Y11661D01*
X12231Y11686D01*
X12214Y11689D01*
Y11436D01*
X12164D01*
Y11386D01*
X11911D01*
X11914Y11369D01*
X11939Y11307D01*
X11981Y11253D01*
X11985Y11250D01*
Y11150D01*
X11981Y11147D01*
X11939Y11093D01*
X11914Y11031D01*
X11911Y11014D01*
X12164D01*
Y10964D01*
X12214D01*
Y10711D01*
X12231Y10714D01*
X12293Y10739D01*
X12347Y10781D01*
X12350Y10785D01*
X12450D01*
X12453Y10781D01*
X12507Y10739D01*
X12569Y10714D01*
X12586Y10711D01*
Y10964D01*
X12636D01*
Y11014D01*
X12889D01*
X12886Y11031D01*
X12861Y11093D01*
X12819Y11147D01*
X12766Y11188D01*
Y11212D01*
X12819Y11253D01*
X12861Y11307D01*
X12886Y11369D01*
X12889Y11386D01*
X12636D01*
Y11436D01*
X12586D01*
Y11689D01*
D02*
G37*
G36*
X12114D02*
X12097Y11686D01*
X12034Y11661D01*
X11981Y11619D01*
X11939Y11566D01*
X11914Y11503D01*
X11911Y11486D01*
X12114D01*
Y11689D01*
D02*
G37*
G36*
X-10724Y12157D02*
Y11360D01*
X-9928D01*
X-9939Y11476D01*
X-9987Y11636D01*
X-10066Y11783D01*
X-10172Y11912D01*
X-10301Y12018D01*
X-10448Y12097D01*
X-10608Y12145D01*
X-10724Y12157D01*
D02*
G37*
G36*
X16245Y11787D02*
X16019D01*
Y11580D01*
X16245D01*
Y11787D01*
D02*
G37*
G36*
X12686Y11689D02*
Y11486D01*
X12889D01*
X12886Y11503D01*
X12861Y11566D01*
X12819Y11619D01*
X12766Y11661D01*
X12703Y11686D01*
X12686Y11689D01*
D02*
G37*
G36*
X16128Y12718D02*
X15628D01*
Y12218D01*
X15722Y12231D01*
X15856Y12286D01*
X15972Y12375D01*
X16060Y12490D01*
X16116Y12624D01*
X16128Y12718D01*
D02*
G37*
G36*
X15528D02*
X15028D01*
X15040Y12624D01*
X15096Y12490D01*
X15184Y12375D01*
X15300Y12286D01*
X15434Y12231D01*
X15528Y12218D01*
Y12718D01*
D02*
G37*
G36*
X-8667Y13150D02*
X-9543D01*
Y12274D01*
X-9411Y12287D01*
X-9237Y12340D01*
X-9076Y12426D01*
X-8935Y12542D01*
X-8819Y12683D01*
X-8733Y12844D01*
X-8680Y13018D01*
X-8667Y13150D01*
D02*
G37*
G36*
X-9643D02*
X-10519D01*
X-10506Y13018D01*
X-10453Y12844D01*
X-10367Y12683D01*
X-10251Y12542D01*
X-10110Y12426D01*
X-9949Y12340D01*
X-9775Y12287D01*
X-9643Y12274D01*
Y13150D01*
D02*
G37*
G36*
X-5794Y12383D02*
X-5913Y12371D01*
X-6025Y12329D01*
X-6122Y12260D01*
X-6198Y12167D01*
X-6247Y12059D01*
X-6266Y11941D01*
X-6255Y11822D01*
X-6233Y11765D01*
X-6321Y11717D01*
X-6357Y11767D01*
X-6449Y11843D01*
X-6558Y11892D01*
X-6676Y11912D01*
X-6795Y11900D01*
X-6907Y11858D01*
X-7004Y11788D01*
X-7080Y11696D01*
X-7129Y11587D01*
X-7148Y11469D01*
X-7137Y11350D01*
X-7095Y11239D01*
X-7025Y11141D01*
X-6933Y11066D01*
X-6824Y11016D01*
X-6706Y10997D01*
X-6587Y11009D01*
X-6475Y11051D01*
X-6378Y11120D01*
X-6302Y11213D01*
X-6253Y11321D01*
X-6234Y11439D01*
X-6245Y11558D01*
X-6267Y11615D01*
X-6179Y11663D01*
X-6143Y11613D01*
X-6051Y11537D01*
X-5942Y11488D01*
X-5824Y11468D01*
X-5705Y11480D01*
X-5593Y11522D01*
X-5496Y11592D01*
X-5420Y11684D01*
X-5371Y11793D01*
X-5352Y11911D01*
X-5363Y12030D01*
X-5405Y12141D01*
X-5475Y12239D01*
X-5567Y12314D01*
X-5676Y12364D01*
X-5794Y12383D01*
D02*
G37*
G36*
X15456Y11850D02*
X15250D01*
Y11644D01*
X15268Y11647D01*
X15331Y11673D01*
X15385Y11715D01*
X15427Y11769D01*
X15453Y11832D01*
X15456Y11850D01*
D02*
G37*
G36*
X15250Y12156D02*
Y11950D01*
X15456D01*
X15453Y11968D01*
X15427Y12031D01*
X15385Y12085D01*
X15331Y12127D01*
X15268Y12153D01*
X15250Y12156D01*
D02*
G37*
G36*
X15056Y12200D02*
X14850D01*
Y11994D01*
X14868Y11997D01*
X14947Y11968D01*
X14944Y11950D01*
X15150D01*
Y12156D01*
X15132Y12153D01*
X15053Y12182D01*
X15053Y12182D01*
X15056Y12200D01*
D02*
G37*
G36*
X-10824Y12157D02*
X-10940Y12145D01*
X-11100Y12097D01*
X-11247Y12018D01*
X-11376Y11912D01*
X-11482Y11783D01*
X-11561Y11636D01*
X-11609Y11476D01*
X-11621Y11360D01*
X-10824D01*
Y12157D01*
D02*
G37*
G36*
X-9928Y11260D02*
X-10724D01*
Y10464D01*
X-10608Y10475D01*
X-10448Y10524D01*
X-10301Y10602D01*
X-10172Y10708D01*
X-10066Y10837D01*
X-9987Y10984D01*
X-9939Y11144D01*
X-9928Y11260D01*
D02*
G37*
G36*
X-10824D02*
X-11621D01*
X-11609Y11144D01*
X-11561Y10984D01*
X-11482Y10837D01*
X-11376Y10708D01*
X-11247Y10602D01*
X-11100Y10524D01*
X-10940Y10475D01*
X-10824Y10464D01*
Y11260D01*
D02*
G37*
G36*
X12114Y10914D02*
X11911D01*
X11914Y10897D01*
X11939Y10834D01*
X11981Y10781D01*
X12034Y10739D01*
X12097Y10714D01*
X12114Y10711D01*
Y10914D01*
D02*
G37*
G36*
X1670Y11584D02*
X1553Y11561D01*
X1445Y11508D01*
X1356Y11429D01*
X1289Y11330D01*
X1251Y11217D01*
X1243Y11098D01*
X1266Y10980D01*
X1319Y10873D01*
X1398Y10783D01*
X1497Y10717D01*
X1610Y10679D01*
X1730Y10671D01*
X1847Y10694D01*
X1954Y10747D01*
X2044Y10826D01*
X2110Y10925D01*
X2130Y10983D01*
X2228Y10964D01*
X2224Y10903D01*
X2247Y10785D01*
X2300Y10678D01*
X2379Y10588D01*
X2478Y10522D01*
X2591Y10484D01*
X2710Y10476D01*
X2827Y10499D01*
X2935Y10552D01*
X3024Y10631D01*
X3091Y10730D01*
X3129Y10843D01*
X3137Y10962D01*
X3114Y11080D01*
X3061Y11187D01*
X2982Y11277D01*
X2883Y11343D01*
X2770Y11381D01*
X2650Y11389D01*
X2533Y11366D01*
X2426Y11313D01*
X2336Y11234D01*
X2270Y11135D01*
X2250Y11077D01*
X2152Y11096D01*
X2156Y11157D01*
X2133Y11275D01*
X2080Y11382D01*
X2001Y11472D01*
X1902Y11538D01*
X1789Y11576D01*
X1670Y11584D01*
D02*
G37*
G36*
X3908Y11035D02*
X3788D01*
X3673Y11004D01*
X3569Y10944D01*
X3485Y10860D01*
X3425Y10756D01*
X3394Y10641D01*
Y10522D01*
X3425Y10406D01*
X3485Y10303D01*
X3569Y10218D01*
X3673Y10159D01*
X3788Y10128D01*
X3908D01*
X4023Y10159D01*
X4127Y10218D01*
X4211Y10303D01*
X4242Y10356D01*
X4334Y10317D01*
X4318Y10258D01*
Y10139D01*
X4349Y10024D01*
X4409Y9920D01*
X4493Y9836D01*
X4597Y9776D01*
X4712Y9745D01*
X4832D01*
X4947Y9776D01*
X5051Y9836D01*
X5135Y9920D01*
X5195Y10024D01*
X5226Y10139D01*
Y10258D01*
X5195Y10374D01*
X5135Y10477D01*
X5051Y10562D01*
X4947Y10621D01*
X4832Y10652D01*
X4712D01*
X4597Y10621D01*
X4493Y10562D01*
X4409Y10477D01*
X4378Y10424D01*
X4286Y10463D01*
X4302Y10522D01*
Y10641D01*
X4271Y10756D01*
X4211Y10860D01*
X4127Y10944D01*
X4023Y11004D01*
X3908Y11035D01*
D02*
G37*
G36*
X13050Y9656D02*
Y9400D01*
X13306D01*
X13302Y9431D01*
X13271Y9506D01*
X13221Y9571D01*
X13156Y9621D01*
X13081Y9652D01*
X13050Y9656D01*
D02*
G37*
G36*
X-3788Y11035D02*
X-3908D01*
X-4023Y11004D01*
X-4127Y10944D01*
X-4211Y10860D01*
X-4271Y10756D01*
X-4302Y10641D01*
Y10522D01*
X-4286Y10463D01*
X-4378Y10424D01*
X-4409Y10477D01*
X-4493Y10562D01*
X-4597Y10621D01*
X-4712Y10652D01*
X-4832D01*
X-4947Y10621D01*
X-5051Y10562D01*
X-5135Y10477D01*
X-5195Y10374D01*
X-5226Y10258D01*
Y10139D01*
X-5195Y10024D01*
X-5135Y9920D01*
X-5051Y9836D01*
X-4947Y9776D01*
X-4832Y9745D01*
X-4712D01*
X-4597Y9776D01*
X-4493Y9836D01*
X-4409Y9920D01*
X-4349Y10024D01*
X-4318Y10139D01*
Y10258D01*
X-4334Y10317D01*
X-4242Y10356D01*
X-4211Y10303D01*
X-4127Y10218D01*
X-4023Y10159D01*
X-3908Y10128D01*
X-3788D01*
X-3673Y10159D01*
X-3569Y10218D01*
X-3485Y10303D01*
X-3425Y10406D01*
X-3394Y10522D01*
Y10641D01*
X-3425Y10756D01*
X-3485Y10860D01*
X-3569Y10944D01*
X-3673Y11004D01*
X-3788Y11035D01*
D02*
G37*
G36*
X-7979Y11013D02*
X-8098Y11009D01*
X-8212Y10974D01*
X-8314Y10911D01*
X-8395Y10824D01*
X-8452Y10718D01*
X-8479Y10602D01*
X-8475Y10483D01*
X-8440Y10368D01*
X-8408Y10316D01*
X-8485Y10253D01*
X-8530Y10295D01*
X-8635Y10351D01*
X-8752Y10378D01*
X-8871Y10374D01*
X-8985Y10340D01*
X-9087Y10277D01*
X-9168Y10189D01*
X-9225Y10084D01*
X-9252Y9968D01*
X-9248Y9848D01*
X-9213Y9734D01*
X-9150Y9632D01*
X-9063Y9551D01*
X-8958Y9495D01*
X-8841Y9467D01*
X-8722Y9471D01*
X-8608Y9506D01*
X-8506Y9569D01*
X-8425Y9656D01*
X-8368Y9762D01*
X-8341Y9878D01*
X-8345Y9997D01*
X-8380Y10112D01*
X-8412Y10164D01*
X-8335Y10227D01*
X-8290Y10185D01*
X-8185Y10129D01*
X-8068Y10102D01*
X-7949Y10106D01*
X-7835Y10140D01*
X-7733Y10203D01*
X-7652Y10291D01*
X-7595Y10396D01*
X-7568Y10512D01*
X-7572Y10632D01*
X-7607Y10746D01*
X-7670Y10848D01*
X-7757Y10929D01*
X-7862Y10985D01*
X-7979Y11013D01*
D02*
G37*
G36*
X16572Y11480D02*
X16345D01*
Y11273D01*
X16572D01*
Y11480D01*
D02*
G37*
G36*
X16245D02*
X16019D01*
Y11273D01*
X16245D01*
Y11480D01*
D02*
G37*
G36*
X550Y11701D02*
Y11300D01*
X951D01*
X942Y11368D01*
X896Y11479D01*
X824Y11574D01*
X729Y11646D01*
X618Y11692D01*
X550Y11701D01*
D02*
G37*
G36*
X17241Y11480D02*
X17015D01*
Y11273D01*
X17241D01*
Y11480D01*
D02*
G37*
G36*
X-500Y11708D02*
X-618Y11692D01*
X-729Y11646D01*
X-824Y11574D01*
X-896Y11479D01*
X-942Y11368D01*
X-958Y11250D01*
X-942Y11132D01*
X-896Y11021D01*
X-824Y10926D01*
X-729Y10854D01*
X-618Y10808D01*
X-500Y10792D01*
X-382Y10808D01*
X-271Y10854D01*
X-176Y10926D01*
X-104Y11021D01*
X-58Y11132D01*
X-50Y11192D01*
X50D01*
X58Y11132D01*
X104Y11021D01*
X176Y10926D01*
X271Y10854D01*
X382Y10808D01*
X450Y10799D01*
Y11250D01*
Y11701D01*
X382Y11692D01*
X271Y11646D01*
X176Y11574D01*
X104Y11479D01*
X58Y11368D01*
X50Y11308D01*
X-50D01*
X-58Y11368D01*
X-104Y11479D01*
X-176Y11574D01*
X-271Y11646D01*
X-382Y11692D01*
X-500Y11708D01*
D02*
G37*
G36*
X12889Y10914D02*
X12686D01*
Y10711D01*
X12703Y10714D01*
X12766Y10739D01*
X12819Y10781D01*
X12861Y10834D01*
X12886Y10897D01*
X12889Y10914D01*
D02*
G37*
G36*
X-1670Y11584D02*
X-1789Y11576D01*
X-1902Y11538D01*
X-2001Y11472D01*
X-2080Y11382D01*
X-2133Y11275D01*
X-2156Y11157D01*
X-2152Y11096D01*
X-2250Y11077D01*
X-2270Y11135D01*
X-2336Y11234D01*
X-2426Y11313D01*
X-2533Y11366D01*
X-2650Y11389D01*
X-2770Y11381D01*
X-2883Y11343D01*
X-2982Y11277D01*
X-3061Y11187D01*
X-3114Y11080D01*
X-3137Y10962D01*
X-3129Y10843D01*
X-3091Y10730D01*
X-3024Y10631D01*
X-2935Y10552D01*
X-2827Y10499D01*
X-2710Y10476D01*
X-2591Y10484D01*
X-2478Y10522D01*
X-2379Y10588D01*
X-2300Y10678D01*
X-2247Y10785D01*
X-2224Y10903D01*
X-2228Y10964D01*
X-2130Y10983D01*
X-2110Y10925D01*
X-2044Y10826D01*
X-1954Y10747D01*
X-1847Y10694D01*
X-1730Y10671D01*
X-1610Y10679D01*
X-1497Y10717D01*
X-1398Y10783D01*
X-1319Y10873D01*
X-1266Y10980D01*
X-1243Y11098D01*
X-1251Y11217D01*
X-1289Y11330D01*
X-1356Y11429D01*
X-1445Y11508D01*
X-1553Y11561D01*
X-1670Y11584D01*
D02*
G37*
G36*
X951Y11200D02*
X550D01*
Y10799D01*
X618Y10808D01*
X729Y10854D01*
X824Y10926D01*
X896Y11021D01*
X942Y11132D01*
X951Y11200D01*
D02*
G37*
G36*
X8382Y14150D02*
X8139D01*
X8143Y14123D01*
X8173Y14051D01*
X8220Y13989D01*
X8282Y13941D01*
X8354Y13911D01*
X8382Y13908D01*
Y14150D01*
D02*
G37*
G36*
X10794Y14499D02*
X10716Y14489D01*
X10644Y14459D01*
X10582Y14411D01*
X10535Y14349D01*
X10505Y14277D01*
X10495Y14200D01*
X10505Y14123D01*
X10535Y14051D01*
X10582Y13989D01*
X10644Y13941D01*
X10716Y13911D01*
X10794Y13901D01*
X10871Y13911D01*
X10943Y13941D01*
X11005Y13989D01*
X11052Y14051D01*
X11082Y14123D01*
X11092Y14200D01*
X11082Y14277D01*
X11052Y14349D01*
X11005Y14411D01*
X10943Y14459D01*
X10871Y14489D01*
X10794Y14499D01*
D02*
G37*
G36*
X5200Y14200D02*
X4994D01*
X4997Y14182D01*
X5023Y14119D01*
X5065Y14065D01*
X5119Y14023D01*
X5182Y13997D01*
X5200Y13994D01*
Y14200D01*
D02*
G37*
G36*
X8724Y14150D02*
X8482D01*
Y13908D01*
X8509Y13911D01*
X8581Y13941D01*
X8643Y13989D01*
X8690Y14051D01*
X8720Y14123D01*
X8724Y14150D01*
D02*
G37*
G36*
X7700Y14006D02*
X7682Y14003D01*
X7619Y13977D01*
X7565Y13935D01*
X7523Y13881D01*
X7497Y13818D01*
X7494Y13800D01*
X7700D01*
Y14006D01*
D02*
G37*
G36*
X11931Y13807D02*
X11704D01*
Y13600D01*
X11931D01*
Y13807D01*
D02*
G37*
G36*
X9219Y14499D02*
X9142Y14489D01*
X9070Y14459D01*
X9008Y14411D01*
X8960Y14349D01*
X8930Y14277D01*
X8920Y14200D01*
X8930Y14123D01*
X8960Y14051D01*
X9008Y13989D01*
X9070Y13941D01*
X9142Y13911D01*
X9219Y13901D01*
X9296Y13911D01*
X9368Y13941D01*
X9430Y13989D01*
X9478Y14051D01*
X9507Y14123D01*
X9518Y14200D01*
X9507Y14277D01*
X9478Y14349D01*
X9430Y14411D01*
X9368Y14459D01*
X9296Y14489D01*
X9219Y14499D01*
D02*
G37*
G36*
X7800Y14006D02*
Y13800D01*
X8006D01*
X8003Y13818D01*
X7977Y13881D01*
X7935Y13935D01*
X7881Y13977D01*
X7818Y14003D01*
X7800Y14006D01*
D02*
G37*
G36*
X7300Y14506D02*
Y14300D01*
X7506D01*
X7503Y14318D01*
X7477Y14381D01*
X7435Y14435D01*
X7381Y14477D01*
X7318Y14503D01*
X7300Y14506D01*
D02*
G37*
G36*
X5200D02*
X5182Y14503D01*
X5119Y14477D01*
X5065Y14435D01*
X5023Y14381D01*
X4997Y14318D01*
X4994Y14300D01*
X5200D01*
Y14506D01*
D02*
G37*
G36*
X7200D02*
X7182Y14503D01*
X7119Y14477D01*
X7065Y14435D01*
X7050Y14416D01*
X6950D01*
X6935Y14435D01*
X6881Y14477D01*
X6818Y14503D01*
X6800Y14506D01*
Y14250D01*
X6700D01*
Y14506D01*
X6682Y14503D01*
X6619Y14477D01*
X6565Y14435D01*
X6550Y14416D01*
X6450D01*
X6435Y14435D01*
X6381Y14477D01*
X6318Y14503D01*
X6300Y14506D01*
Y14250D01*
X6200D01*
Y14506D01*
X6182Y14503D01*
X6119Y14477D01*
X6065Y14435D01*
X6050Y14416D01*
X5950D01*
X5935Y14435D01*
X5881Y14477D01*
X5818Y14503D01*
X5800Y14506D01*
Y14250D01*
Y13994D01*
X5818Y13997D01*
X5881Y14023D01*
X5935Y14065D01*
X5950Y14084D01*
X6050D01*
X6065Y14065D01*
X6084Y14050D01*
Y13950D01*
X6065Y13935D01*
X6023Y13881D01*
X5997Y13818D01*
X5994Y13800D01*
X6250D01*
Y13750D01*
X6300D01*
Y13494D01*
X6318Y13497D01*
X6381Y13523D01*
X6435Y13565D01*
X6450Y13584D01*
X6550D01*
X6565Y13565D01*
X6619Y13523D01*
X6682Y13497D01*
X6700Y13494D01*
Y13750D01*
X6750D01*
Y13800D01*
X7006D01*
X7003Y13818D01*
X6977Y13881D01*
X6935Y13935D01*
X6881Y13977D01*
Y14023D01*
X6935Y14065D01*
X6950Y14084D01*
X7050D01*
X7065Y14065D01*
X7119Y14023D01*
X7182Y13997D01*
X7200Y13994D01*
Y14250D01*
Y14506D01*
D02*
G37*
G36*
X5700D02*
X5682Y14503D01*
X5619Y14477D01*
X5565Y14435D01*
X5550Y14416D01*
X5450D01*
X5435Y14435D01*
X5381Y14477D01*
X5318Y14503D01*
X5300Y14506D01*
Y14250D01*
Y13994D01*
X5318Y13997D01*
X5381Y14023D01*
X5435Y14065D01*
X5450Y14084D01*
X5550D01*
X5565Y14065D01*
X5619Y14023D01*
X5682Y13997D01*
X5700Y13994D01*
Y14250D01*
Y14506D01*
D02*
G37*
G36*
X8382Y14492D02*
X8354Y14489D01*
X8282Y14459D01*
X8220Y14411D01*
X8173Y14349D01*
X8143Y14277D01*
X8139Y14250D01*
X8382D01*
Y14492D01*
D02*
G37*
G36*
X7506Y14200D02*
X7300D01*
Y13994D01*
X7318Y13997D01*
X7381Y14023D01*
X7435Y14065D01*
X7477Y14119D01*
X7503Y14182D01*
X7506Y14200D01*
D02*
G37*
G36*
X12419Y14492D02*
Y14250D01*
X12661D01*
X12657Y14277D01*
X12627Y14349D01*
X12580Y14411D01*
X12518Y14459D01*
X12446Y14489D01*
X12419Y14492D01*
D02*
G37*
G36*
X8482D02*
Y14250D01*
X8724D01*
X8720Y14277D01*
X8690Y14349D01*
X8643Y14411D01*
X8581Y14459D01*
X8509Y14489D01*
X8482Y14492D01*
D02*
G37*
G36*
X11581Y14499D02*
X11504Y14489D01*
X11432Y14459D01*
X11370Y14411D01*
X11322Y14349D01*
X11293Y14277D01*
X11282Y14200D01*
X11293Y14123D01*
X11322Y14051D01*
X11370Y13989D01*
X11432Y13941D01*
X11504Y13911D01*
X11540Y13907D01*
X11533Y13807D01*
X11378D01*
Y13600D01*
X11604D01*
Y13807D01*
X11629D01*
X11622Y13907D01*
X11622D01*
Y13907D01*
X11658Y13911D01*
X11730Y13941D01*
X11792Y13989D01*
X11840Y14051D01*
X11870Y14123D01*
X11880Y14200D01*
X11870Y14277D01*
X11840Y14349D01*
X11792Y14411D01*
X11730Y14459D01*
X11658Y14489D01*
X11581Y14499D01*
D02*
G37*
G36*
X-11207Y13150D02*
X-12004D01*
Y12353D01*
X-11888Y12365D01*
X-11728Y12413D01*
X-11581Y12492D01*
X-11452Y12598D01*
X-11346Y12727D01*
X-11267Y12874D01*
X-11219Y13034D01*
X-11207Y13150D01*
D02*
G37*
G36*
X-12104D02*
X-12900D01*
X-12889Y13034D01*
X-12840Y12874D01*
X-12762Y12727D01*
X-12656Y12598D01*
X-12527Y12492D01*
X-12380Y12413D01*
X-12220Y12365D01*
X-12104Y12353D01*
Y13150D01*
D02*
G37*
G36*
X-349Y13233D02*
X-748Y13194D01*
X-708Y12795D01*
X-641Y12811D01*
X-536Y12867D01*
X-449Y12949D01*
X-386Y13050D01*
X-351Y13164D01*
X-349Y13233D01*
D02*
G37*
G36*
X-3386Y13283D02*
X-3504Y13263D01*
X-3613Y13214D01*
X-3706Y13138D01*
X-3775Y13041D01*
X-3817Y12929D01*
X-3829Y12810D01*
X-3819Y12750D01*
X-3915Y12721D01*
X-3940Y12777D01*
X-4016Y12869D01*
X-4113Y12938D01*
X-4225Y12981D01*
X-4343Y12992D01*
X-4461Y12973D01*
X-4570Y12923D01*
X-4662Y12848D01*
X-4732Y12751D01*
X-4774Y12639D01*
X-4786Y12520D01*
X-4766Y12402D01*
X-4717Y12293D01*
X-4641Y12201D01*
X-4544Y12131D01*
X-4432Y12089D01*
X-4313Y12077D01*
X-4196Y12097D01*
X-4087Y12146D01*
X-3994Y12222D01*
X-3925Y12319D01*
X-3883Y12431D01*
X-3871Y12550D01*
X-3881Y12610D01*
X-3785Y12639D01*
X-3760Y12583D01*
X-3684Y12491D01*
X-3587Y12422D01*
X-3475Y12379D01*
X-3357Y12368D01*
X-3239Y12387D01*
X-3130Y12437D01*
X-3038Y12512D01*
X-2968Y12609D01*
X-2926Y12721D01*
X-2914Y12840D01*
X-2934Y12958D01*
X-2983Y13067D01*
X-3059Y13159D01*
X-3156Y13229D01*
X-3268Y13271D01*
X-3386Y13283D01*
D02*
G37*
G36*
X14850Y12506D02*
Y12300D01*
X15056D01*
X15053Y12318D01*
X15027Y12381D01*
X14985Y12435D01*
X14931Y12477D01*
X14868Y12503D01*
X14850Y12506D01*
D02*
G37*
G36*
X14656Y12550D02*
X14450D01*
Y12344D01*
X14468Y12347D01*
X14547Y12318D01*
X14544Y12300D01*
X14750D01*
Y12506D01*
X14732Y12503D01*
X14653Y12532D01*
X14653Y12532D01*
X14656Y12550D01*
D02*
G37*
G36*
X14350D02*
X14144D01*
X14147Y12532D01*
X14173Y12469D01*
X14215Y12415D01*
X14269Y12373D01*
X14332Y12347D01*
X14350Y12344D01*
Y12550D01*
D02*
G37*
G36*
X12850D02*
X12644D01*
X12647Y12532D01*
X12673Y12469D01*
X12715Y12415D01*
X12769Y12373D01*
X12832Y12347D01*
X12850Y12344D01*
Y12550D01*
D02*
G37*
G36*
X8006Y13700D02*
X7494D01*
X7497Y13682D01*
X7523Y13619D01*
X7565Y13565D01*
X7584Y13550D01*
Y13450D01*
X7565Y13435D01*
X7550Y13416D01*
X7450D01*
X7435Y13435D01*
X7381Y13477D01*
X7318Y13503D01*
X7300Y13506D01*
Y13250D01*
Y12994D01*
X7318Y12997D01*
X7381Y13023D01*
X7435Y13065D01*
X7450Y13084D01*
X7550D01*
X7565Y13065D01*
X7619Y13023D01*
X7682Y12997D01*
X7700Y12994D01*
Y13250D01*
X7750D01*
Y13300D01*
X8006D01*
X8003Y13318D01*
X7977Y13381D01*
X7935Y13435D01*
X7881Y13477D01*
Y13523D01*
X7935Y13565D01*
X7977Y13619D01*
X8003Y13682D01*
X8006Y13700D01*
D02*
G37*
G36*
X7200Y13506D02*
X7182Y13503D01*
X7119Y13477D01*
X7065Y13435D01*
X7023Y13381D01*
X6997Y13318D01*
X6994Y13300D01*
X7200D01*
Y13506D01*
D02*
G37*
G36*
X7006Y13700D02*
X6800D01*
Y13494D01*
X6818Y13497D01*
X6881Y13523D01*
X6935Y13565D01*
X6977Y13619D01*
X7003Y13682D01*
X7006Y13700D01*
D02*
G37*
G36*
X6200D02*
X5994D01*
X5997Y13682D01*
X6023Y13619D01*
X6065Y13565D01*
X6119Y13523D01*
X6182Y13497D01*
X6200Y13494D01*
Y13700D01*
D02*
G37*
G36*
X8006Y13200D02*
X7800D01*
Y12994D01*
X7818Y12997D01*
X7881Y13023D01*
X7935Y13065D01*
X7977Y13119D01*
X8003Y13182D01*
X8006Y13200D01*
D02*
G37*
G36*
X7200D02*
X6994D01*
X6997Y13182D01*
X7023Y13119D01*
X7065Y13065D01*
X7119Y13023D01*
X7182Y12997D01*
X7200Y12994D01*
Y13200D01*
D02*
G37*
G36*
X-12004Y14047D02*
Y13250D01*
X-11207D01*
X-11219Y13366D01*
X-11267Y13526D01*
X-11346Y13673D01*
X-11452Y13802D01*
X-11581Y13908D01*
X-11728Y13987D01*
X-11888Y14035D01*
X-12004Y14047D01*
D02*
G37*
G36*
X-12104D02*
X-12220Y14035D01*
X-12380Y13987D01*
X-12527Y13908D01*
X-12656Y13802D01*
X-12762Y13673D01*
X-12840Y13526D01*
X-12889Y13366D01*
X-12900Y13250D01*
X-12104D01*
Y14047D01*
D02*
G37*
G36*
X12950Y9656D02*
X12919Y9652D01*
X12844Y9621D01*
X12779Y9571D01*
X12729Y9506D01*
X12698Y9431D01*
X12694Y9400D01*
X12950D01*
Y9656D01*
D02*
G37*
G36*
X-12520Y4786D02*
X-12639Y4774D01*
X-12751Y4732D01*
X-12848Y4662D01*
X-12923Y4570D01*
X-12973Y4461D01*
X-12992Y4343D01*
X-12981Y4225D01*
X-12938Y4113D01*
X-12869Y4016D01*
X-12777Y3940D01*
X-12721Y3915D01*
X-12750Y3819D01*
X-12810Y3829D01*
X-12929Y3817D01*
X-13041Y3775D01*
X-13138Y3706D01*
X-13214Y3613D01*
X-13263Y3504D01*
X-13283Y3386D01*
X-13271Y3268D01*
X-13229Y3156D01*
X-13159Y3059D01*
X-13067Y2983D01*
X-12958Y2934D01*
X-12840Y2914D01*
X-12721Y2926D01*
X-12609Y2968D01*
X-12512Y3038D01*
X-12437Y3130D01*
X-12387Y3239D01*
X-12368Y3357D01*
X-12379Y3475D01*
X-12422Y3587D01*
X-12491Y3684D01*
X-12583Y3760D01*
X-12639Y3785D01*
X-12610Y3881D01*
X-12550Y3871D01*
X-12431Y3883D01*
X-12319Y3925D01*
X-12222Y3994D01*
X-12146Y4087D01*
X-12097Y4196D01*
X-12077Y4313D01*
X-12089Y4432D01*
X-12131Y4544D01*
X-12201Y4641D01*
X-12293Y4717D01*
X-12402Y4766D01*
X-12520Y4786D01*
D02*
G37*
G36*
X-10139Y5226D02*
X-10258D01*
X-10374Y5195D01*
X-10477Y5135D01*
X-10562Y5051D01*
X-10621Y4947D01*
X-10652Y4832D01*
Y4712D01*
X-10621Y4597D01*
X-10562Y4493D01*
X-10477Y4409D01*
X-10424Y4378D01*
X-10463Y4286D01*
X-10522Y4302D01*
X-10641D01*
X-10756Y4271D01*
X-10860Y4211D01*
X-10944Y4127D01*
X-11004Y4023D01*
X-11035Y3908D01*
Y3788D01*
X-11004Y3673D01*
X-10944Y3569D01*
X-10860Y3485D01*
X-10756Y3425D01*
X-10641Y3394D01*
X-10522D01*
X-10406Y3425D01*
X-10303Y3485D01*
X-10218Y3569D01*
X-10159Y3673D01*
X-10128Y3788D01*
Y3908D01*
X-10159Y4023D01*
X-10218Y4127D01*
X-10303Y4211D01*
X-10356Y4242D01*
X-10317Y4334D01*
X-10258Y4318D01*
X-10139D01*
X-10024Y4349D01*
X-9920Y4409D01*
X-9836Y4493D01*
X-9776Y4597D01*
X-9745Y4712D01*
Y4832D01*
X-9776Y4947D01*
X-9836Y5051D01*
X-9920Y5135D01*
X-10024Y5195D01*
X-10139Y5226D01*
D02*
G37*
G36*
X15816Y6336D02*
X15697Y6320D01*
X15587Y6274D01*
X15492Y6202D01*
X15419Y6107D01*
X15374Y5996D01*
X15358Y5878D01*
X15374Y5760D01*
X15419Y5649D01*
X15492Y5554D01*
X15587Y5482D01*
X15697Y5436D01*
X15816Y5420D01*
X15934Y5436D01*
X16045Y5482D01*
X16139Y5554D01*
X16212Y5649D01*
X16258Y5760D01*
X16273Y5878D01*
X16258Y5996D01*
X16212Y6107D01*
X16139Y6202D01*
X16045Y6274D01*
X15934Y6320D01*
X15816Y6336D01*
D02*
G37*
G36*
X12520Y4786D02*
X12402Y4766D01*
X12293Y4717D01*
X12201Y4641D01*
X12131Y4544D01*
X12089Y4432D01*
X12077Y4313D01*
X12097Y4196D01*
X12146Y4087D01*
X12222Y3994D01*
X12319Y3925D01*
X12431Y3883D01*
X12550Y3871D01*
X12610Y3881D01*
X12639Y3785D01*
X12583Y3760D01*
X12491Y3684D01*
X12422Y3587D01*
X12379Y3475D01*
X12368Y3357D01*
X12387Y3239D01*
X12437Y3130D01*
X12512Y3038D01*
X12609Y2968D01*
X12721Y2926D01*
X12840Y2914D01*
X12958Y2934D01*
X13067Y2983D01*
X13159Y3059D01*
X13229Y3156D01*
X13271Y3268D01*
X13283Y3386D01*
X13263Y3504D01*
X13214Y3613D01*
X13138Y3706D01*
X13041Y3775D01*
X12929Y3817D01*
X12810Y3829D01*
X12750Y3819D01*
X12721Y3915D01*
X12777Y3940D01*
X12869Y4016D01*
X12938Y4113D01*
X12981Y4225D01*
X12992Y4343D01*
X12973Y4461D01*
X12923Y4570D01*
X12848Y4662D01*
X12751Y4732D01*
X12639Y4774D01*
X12520Y4786D01*
D02*
G37*
G36*
X16865Y2571D02*
Y2315D01*
X17121D01*
X17117Y2346D01*
X17086Y2422D01*
X17036Y2486D01*
X16972Y2536D01*
X16896Y2567D01*
X16865Y2571D01*
D02*
G37*
G36*
X15666Y4805D02*
X14956D01*
Y4095D01*
X15189D01*
Y3912D01*
X14713Y3437D01*
X14687Y3397D01*
X14678Y3350D01*
Y3211D01*
X14543D01*
Y2658D01*
X15057D01*
Y3211D01*
X14965D01*
X14927Y3304D01*
X15398Y3775D01*
X15424Y3814D01*
X15433Y3861D01*
Y4095D01*
X15666D01*
Y4805D01*
D02*
G37*
G36*
X15816Y3580D02*
X15697Y3564D01*
X15587Y3518D01*
X15492Y3446D01*
X15419Y3351D01*
X15374Y3240D01*
X15358Y3122D01*
X15374Y3004D01*
X15419Y2893D01*
X15492Y2798D01*
X15587Y2726D01*
X15697Y2680D01*
X15816Y2664D01*
X15934Y2680D01*
X16045Y2726D01*
X16139Y2798D01*
X16212Y2893D01*
X16258Y3004D01*
X16273Y3122D01*
X16258Y3240D01*
X16212Y3351D01*
X16139Y3446D01*
X16045Y3518D01*
X15934Y3564D01*
X15816Y3580D01*
D02*
G37*
G36*
X17211Y6750D02*
X16985D01*
Y6543D01*
X17211D01*
Y6750D01*
D02*
G37*
G36*
X16215Y7057D02*
X15989D01*
Y6850D01*
X16215D01*
Y7057D01*
D02*
G37*
G36*
X16542D02*
X16315D01*
Y6850D01*
X16542D01*
Y7057D01*
D02*
G37*
G36*
Y6750D02*
X16315D01*
Y6543D01*
X16542D01*
Y6750D01*
D02*
G37*
G36*
X-11469Y7148D02*
X-11587Y7129D01*
X-11696Y7080D01*
X-11788Y7004D01*
X-11858Y6907D01*
X-11900Y6795D01*
X-11912Y6676D01*
X-11892Y6558D01*
X-11843Y6449D01*
X-11767Y6357D01*
X-11717Y6321D01*
X-11765Y6233D01*
X-11822Y6255D01*
X-11941Y6266D01*
X-12059Y6247D01*
X-12167Y6198D01*
X-12260Y6122D01*
X-12329Y6025D01*
X-12371Y5913D01*
X-12383Y5794D01*
X-12364Y5676D01*
X-12314Y5567D01*
X-12239Y5475D01*
X-12141Y5405D01*
X-12030Y5363D01*
X-11911Y5352D01*
X-11793Y5371D01*
X-11684Y5420D01*
X-11592Y5496D01*
X-11522Y5593D01*
X-11480Y5705D01*
X-11468Y5824D01*
X-11488Y5942D01*
X-11537Y6051D01*
X-11613Y6143D01*
X-11663Y6179D01*
X-11615Y6267D01*
X-11558Y6245D01*
X-11439Y6234D01*
X-11321Y6253D01*
X-11213Y6302D01*
X-11120Y6378D01*
X-11051Y6475D01*
X-11009Y6587D01*
X-10997Y6706D01*
X-11016Y6824D01*
X-11066Y6933D01*
X-11141Y7025D01*
X-11239Y7095D01*
X-11350Y7137D01*
X-11469Y7148D01*
D02*
G37*
G36*
X-9042Y7122D02*
X-9161Y7115D01*
X-9275Y7076D01*
X-9374Y7010D01*
X-9453Y6920D01*
X-9506Y6813D01*
X-9529Y6696D01*
X-9521Y6576D01*
X-9483Y6463D01*
X-9416Y6364D01*
X-9370Y6324D01*
X-9426Y6241D01*
X-9481Y6268D01*
X-9598Y6291D01*
X-9717Y6283D01*
X-9830Y6245D01*
X-9930Y6178D01*
X-10008Y6089D01*
X-10061Y5981D01*
X-10084Y5864D01*
X-10077Y5745D01*
X-10038Y5632D01*
X-9972Y5533D01*
X-9882Y5454D01*
X-9775Y5401D01*
X-9658Y5378D01*
X-9539Y5385D01*
X-9425Y5424D01*
X-9326Y5490D01*
X-9247Y5580D01*
X-9194Y5687D01*
X-9171Y5804D01*
X-9179Y5924D01*
X-9217Y6037D01*
X-9284Y6136D01*
X-9330Y6176D01*
X-9274Y6259D01*
X-9219Y6232D01*
X-9102Y6209D01*
X-8983Y6217D01*
X-8870Y6255D01*
X-8770Y6322D01*
X-8692Y6411D01*
X-8639Y6519D01*
X-8616Y6636D01*
X-8623Y6755D01*
X-8662Y6868D01*
X-8728Y6967D01*
X-8818Y7046D01*
X-8925Y7099D01*
X-9042Y7122D01*
D02*
G37*
G36*
X16215Y6750D02*
X15989D01*
Y6543D01*
X16215D01*
Y6750D01*
D02*
G37*
G36*
X-10962Y3137D02*
X-11080Y3114D01*
X-11187Y3061D01*
X-11277Y2982D01*
X-11343Y2883D01*
X-11381Y2770D01*
X-11389Y2650D01*
X-11366Y2533D01*
X-11313Y2426D01*
X-11234Y2336D01*
X-11135Y2270D01*
X-11077Y2250D01*
X-11096Y2152D01*
X-11157Y2156D01*
X-11275Y2133D01*
X-11382Y2080D01*
X-11472Y2001D01*
X-11538Y1902D01*
X-11576Y1789D01*
X-11584Y1670D01*
X-11561Y1553D01*
X-11508Y1445D01*
X-11429Y1356D01*
X-11330Y1289D01*
X-11217Y1251D01*
X-11098Y1243D01*
X-10980Y1266D01*
X-10873Y1319D01*
X-10783Y1398D01*
X-10717Y1497D01*
X-10679Y1610D01*
X-10671Y1730D01*
X-10694Y1847D01*
X-10747Y1954D01*
X-10826Y2044D01*
X-10925Y2110D01*
X-10983Y2130D01*
X-10964Y2228D01*
X-10903Y2224D01*
X-10785Y2247D01*
X-10678Y2300D01*
X-10588Y2379D01*
X-10522Y2478D01*
X-10484Y2591D01*
X-10476Y2710D01*
X-10499Y2827D01*
X-10552Y2935D01*
X-10631Y3024D01*
X-10730Y3091D01*
X-10843Y3129D01*
X-10962Y3137D01*
D02*
G37*
G36*
X11250Y958D02*
X11132Y942D01*
X11021Y896D01*
X10926Y824D01*
X10854Y729D01*
X10808Y618D01*
X10792Y500D01*
X10808Y382D01*
X10854Y271D01*
X10926Y176D01*
X11021Y104D01*
X11132Y58D01*
X11192Y50D01*
Y-50D01*
X11132Y-58D01*
X11021Y-104D01*
X10926Y-176D01*
X10854Y-271D01*
X10808Y-382D01*
X10799Y-450D01*
X11701D01*
X11692Y-382D01*
X11646Y-271D01*
X11574Y-176D01*
X11479Y-104D01*
X11368Y-58D01*
X11308Y-50D01*
Y50D01*
X11368Y58D01*
X11479Y104D01*
X11574Y176D01*
X11646Y271D01*
X11692Y382D01*
X11708Y500D01*
X11692Y618D01*
X11646Y729D01*
X11574Y824D01*
X11479Y896D01*
X11368Y942D01*
X11250Y958D01*
D02*
G37*
G36*
X-13096Y2253D02*
X-13216Y2249D01*
X-13330Y2214D01*
X-13431Y2151D01*
X-13513Y2064D01*
X-13569Y1959D01*
X-13596Y1842D01*
X-13592Y1723D01*
X-13558Y1609D01*
X-13495Y1507D01*
X-13408Y1426D01*
X-13302Y1369D01*
X-13243Y1355D01*
X-13252Y1256D01*
X-13314Y1254D01*
X-13428Y1219D01*
X-13529Y1156D01*
X-13611Y1069D01*
X-13667Y964D01*
X-13694Y847D01*
X-13691Y728D01*
X-13656Y614D01*
X-13593Y512D01*
X-13506Y430D01*
X-13400Y374D01*
X-13284Y347D01*
X-13164Y351D01*
X-13050Y386D01*
X-12949Y449D01*
X-12867Y536D01*
X-12811Y641D01*
X-12784Y758D01*
X-12788Y877D01*
X-12822Y991D01*
X-12885Y1093D01*
X-12972Y1174D01*
X-13078Y1231D01*
X-13137Y1245D01*
X-13128Y1344D01*
X-13066Y1346D01*
X-12952Y1381D01*
X-12851Y1444D01*
X-12769Y1531D01*
X-12713Y1636D01*
X-12686Y1753D01*
X-12689Y1872D01*
X-12724Y1986D01*
X-12787Y2088D01*
X-12874Y2170D01*
X-12980Y2226D01*
X-13096Y2253D01*
D02*
G37*
G36*
X13194Y748D02*
X12795Y708D01*
X12811Y641D01*
X12867Y536D01*
X12949Y449D01*
X13050Y386D01*
X13164Y351D01*
X13233Y349D01*
X13194Y748D01*
D02*
G37*
G36*
X-13233Y-349D02*
X-13194Y-748D01*
X-12795Y-708D01*
X-12811Y-641D01*
X-12867Y-536D01*
X-12949Y-449D01*
X-13050Y-386D01*
X-13164Y-351D01*
X-13233Y-349D01*
D02*
G37*
G36*
X11701Y-550D02*
X11300D01*
Y-951D01*
X11368Y-942D01*
X11479Y-896D01*
X11574Y-824D01*
X11646Y-729D01*
X11692Y-618D01*
X11701Y-550D01*
D02*
G37*
G36*
X-12785Y-808D02*
X-13234Y-852D01*
D01*
X-13683Y-896D01*
X-13667Y-964D01*
X-13611Y-1069D01*
X-13529Y-1156D01*
X-13428Y-1219D01*
X-13314Y-1254D01*
X-13252Y-1256D01*
X-13243Y-1355D01*
X-13302Y-1369D01*
X-13408Y-1426D01*
X-13495Y-1507D01*
X-13558Y-1609D01*
X-13592Y-1723D01*
X-13596Y-1842D01*
X-13569Y-1959D01*
X-13513Y-2064D01*
X-13431Y-2151D01*
X-13330Y-2214D01*
X-13216Y-2249D01*
X-13096Y-2253D01*
X-12980Y-2226D01*
X-12874Y-2170D01*
X-12787Y-2088D01*
X-12724Y-1986D01*
X-12689Y-1872D01*
X-12686Y-1753D01*
X-12713Y-1636D01*
X-12769Y-1531D01*
X-12851Y-1444D01*
X-12952Y-1381D01*
X-13066Y-1346D01*
X-13128Y-1344D01*
X-13137Y-1245D01*
X-13078Y-1231D01*
X-12972Y-1174D01*
X-12885Y-1093D01*
X-12822Y-991D01*
X-12788Y-877D01*
X-12785Y-808D01*
D02*
G37*
G36*
X-13333Y-358D02*
X-13400Y-374D01*
X-13506Y-430D01*
X-13593Y-512D01*
X-13656Y-614D01*
X-13691Y-728D01*
X-13693Y-797D01*
X-13294Y-758D01*
X-13333Y-358D01*
D02*
G37*
G36*
X15816Y1836D02*
X15697Y1820D01*
X15587Y1774D01*
X15492Y1702D01*
X15419Y1607D01*
X15374Y1496D01*
X15358Y1378D01*
X15374Y1260D01*
X15419Y1149D01*
X15492Y1054D01*
X15587Y982D01*
X15697Y936D01*
X15816Y920D01*
X15934Y936D01*
X16045Y982D01*
X16139Y1054D01*
X16212Y1149D01*
X16258Y1260D01*
X16273Y1378D01*
X16258Y1496D01*
X16212Y1607D01*
X16139Y1702D01*
X16045Y1774D01*
X15934Y1820D01*
X15816Y1836D01*
D02*
G37*
G36*
X10962Y3137D02*
X10843Y3129D01*
X10730Y3091D01*
X10631Y3024D01*
X10552Y2935D01*
X10499Y2827D01*
X10476Y2710D01*
X10484Y2591D01*
X10522Y2478D01*
X10588Y2379D01*
X10678Y2300D01*
X10785Y2247D01*
X10903Y2224D01*
X10964Y2228D01*
X10983Y2130D01*
X10925Y2110D01*
X10826Y2044D01*
X10747Y1954D01*
X10694Y1847D01*
X10671Y1730D01*
X10679Y1610D01*
X10717Y1497D01*
X10783Y1398D01*
X10873Y1319D01*
X10980Y1266D01*
X11098Y1243D01*
X11217Y1251D01*
X11330Y1289D01*
X11429Y1356D01*
X11508Y1445D01*
X11561Y1553D01*
X11584Y1670D01*
X11576Y1789D01*
X11538Y1902D01*
X11472Y2001D01*
X11382Y2080D01*
X11275Y2133D01*
X11157Y2156D01*
X11096Y2152D01*
X11077Y2250D01*
X11135Y2270D01*
X11234Y2336D01*
X11313Y2426D01*
X11366Y2533D01*
X11389Y2650D01*
X11381Y2770D01*
X11343Y2883D01*
X11277Y2982D01*
X11187Y3061D01*
X11080Y3114D01*
X10962Y3137D01*
D02*
G37*
G36*
X17121Y2215D02*
X16865D01*
Y1959D01*
X16896Y1963D01*
X16972Y1995D01*
X17036Y2044D01*
X17086Y2109D01*
X17117Y2184D01*
X17121Y2215D01*
D02*
G37*
G36*
X13096Y2253D02*
X12980Y2226D01*
X12874Y2170D01*
X12787Y2088D01*
X12724Y1986D01*
X12689Y1872D01*
X12686Y1753D01*
X12713Y1636D01*
X12769Y1531D01*
X12851Y1444D01*
X12952Y1381D01*
X13066Y1346D01*
X13128Y1344D01*
X13137Y1245D01*
X13078Y1231D01*
X12972Y1174D01*
X12885Y1093D01*
X12822Y991D01*
X12788Y877D01*
X12785Y808D01*
X13234Y852D01*
D01*
X13683Y896D01*
X13667Y964D01*
X13611Y1069D01*
X13529Y1156D01*
X13428Y1219D01*
X13314Y1254D01*
X13252Y1256D01*
X13243Y1355D01*
X13302Y1369D01*
X13408Y1426D01*
X13495Y1507D01*
X13558Y1609D01*
X13592Y1723D01*
X13596Y1842D01*
X13569Y1959D01*
X13513Y2064D01*
X13431Y2151D01*
X13330Y2214D01*
X13216Y2249D01*
X13096Y2253D01*
D02*
G37*
G36*
X13693Y797D02*
X13294Y758D01*
X13333Y358D01*
X13400Y374D01*
X13506Y430D01*
X13593Y512D01*
X13656Y614D01*
X13691Y728D01*
X13693Y797D01*
D02*
G37*
G36*
X-11300Y951D02*
X-11368Y942D01*
X-11479Y896D01*
X-11574Y824D01*
X-11646Y729D01*
X-11692Y618D01*
X-11701Y550D01*
X-11300D01*
Y951D01*
D02*
G37*
G36*
X-11200D02*
Y550D01*
X-10799D01*
X-10808Y618D01*
X-10854Y729D01*
X-10926Y824D01*
X-11021Y896D01*
X-11132Y942D01*
X-11200Y951D01*
D02*
G37*
G36*
X17211Y7057D02*
X16985D01*
Y6850D01*
X17211D01*
Y7057D01*
D02*
G37*
G36*
X12657Y8885D02*
X12450D01*
Y8658D01*
X12657D01*
Y8885D01*
D02*
G37*
G36*
X13806Y8950D02*
X13550D01*
Y8694D01*
X13581Y8698D01*
X13656Y8729D01*
X13721Y8779D01*
X13771Y8844D01*
X13802Y8919D01*
X13806Y8950D01*
D02*
G37*
G36*
X-9968Y9252D02*
X-10084Y9225D01*
X-10189Y9168D01*
X-10240Y9121D01*
X-9930Y8867D01*
X-9675Y9177D01*
X-9734Y9213D01*
X-9848Y9248D01*
X-9968Y9252D01*
D02*
G37*
G36*
X12350Y8885D02*
X12143D01*
Y8658D01*
X12350D01*
Y8885D01*
D02*
G37*
G36*
X-10303Y9044D02*
X-10340Y8985D01*
X-10374Y8871D01*
X-10378Y8752D01*
X-10351Y8635D01*
X-10295Y8530D01*
X-10253Y8485D01*
X-10316Y8408D01*
X-10368Y8440D01*
X-10483Y8475D01*
X-10602Y8479D01*
X-10718Y8452D01*
X-10824Y8395D01*
X-10911Y8314D01*
X-10974Y8212D01*
X-11009Y8098D01*
X-11013Y7979D01*
X-10985Y7862D01*
X-10929Y7757D01*
X-10848Y7670D01*
X-10746Y7607D01*
X-10632Y7572D01*
X-10512Y7568D01*
X-10396Y7595D01*
X-10291Y7652D01*
X-10203Y7733D01*
X-10140Y7835D01*
X-10106Y7949D01*
X-10102Y8068D01*
X-10129Y8185D01*
X-10185Y8290D01*
X-10227Y8335D01*
X-10164Y8412D01*
X-10112Y8380D01*
X-9997Y8345D01*
X-9878Y8341D01*
X-9762Y8368D01*
X-9656Y8425D01*
X-9606Y8472D01*
X-9955Y8758D01*
D01*
X-10303Y9044D01*
D02*
G37*
G36*
X-9598Y9113D02*
X-9852Y8803D01*
X-9542Y8549D01*
X-9506Y8608D01*
X-9471Y8722D01*
X-9467Y8841D01*
X-9495Y8958D01*
X-9551Y9063D01*
X-9598Y9113D01*
D02*
G37*
G36*
X5864Y10084D02*
X5745Y10077D01*
X5632Y10038D01*
X5533Y9972D01*
X5454Y9882D01*
X5401Y9775D01*
X5378Y9658D01*
X5385Y9539D01*
X5424Y9425D01*
X5490Y9326D01*
X5580Y9247D01*
X5687Y9194D01*
X5804Y9171D01*
X5924Y9179D01*
X6037Y9217D01*
X6136Y9284D01*
X6176Y9330D01*
X6259Y9274D01*
X6232Y9219D01*
X6209Y9102D01*
X6217Y8983D01*
X6255Y8870D01*
X6322Y8770D01*
X6411Y8692D01*
X6519Y8639D01*
X6636Y8616D01*
X6755Y8623D01*
X6868Y8662D01*
X6967Y8728D01*
X7046Y8818D01*
X7099Y8925D01*
X7122Y9042D01*
X7115Y9161D01*
X7076Y9275D01*
X7010Y9374D01*
X6920Y9453D01*
X6813Y9506D01*
X6696Y9529D01*
X6576Y9521D01*
X6463Y9483D01*
X6364Y9416D01*
X6324Y9370D01*
X6241Y9426D01*
X6268Y9481D01*
X6291Y9598D01*
X6283Y9717D01*
X6245Y9830D01*
X6178Y9930D01*
X6089Y10008D01*
X5981Y10061D01*
X5864Y10084D01*
D02*
G37*
G36*
X11600Y9220D02*
X11295D01*
Y8954D01*
X11600D01*
Y9220D01*
D02*
G37*
G36*
X12950Y9300D02*
X12694D01*
X12696Y9286D01*
X12647Y9231D01*
Y9231D01*
X12630Y9211D01*
D01*
X12450D01*
Y8985D01*
X12657D01*
Y9132D01*
X12703Y9148D01*
Y9148D01*
X12752Y9165D01*
X12779Y9129D01*
X12844Y9079D01*
X12919Y9048D01*
X12950Y9044D01*
Y9300D01*
D02*
G37*
G36*
X-5864Y10084D02*
X-5981Y10061D01*
X-6089Y10008D01*
X-6178Y9930D01*
X-6245Y9830D01*
X-6283Y9717D01*
X-6291Y9598D01*
X-6268Y9481D01*
X-6241Y9426D01*
X-6324Y9370D01*
X-6364Y9416D01*
X-6463Y9483D01*
X-6576Y9521D01*
X-6696Y9529D01*
X-6813Y9506D01*
X-6920Y9453D01*
X-7010Y9374D01*
X-7076Y9275D01*
X-7115Y9161D01*
X-7122Y9042D01*
X-7099Y8925D01*
X-7046Y8818D01*
X-6967Y8728D01*
X-6868Y8662D01*
X-6755Y8623D01*
X-6636Y8616D01*
X-6519Y8639D01*
X-6411Y8692D01*
X-6322Y8770D01*
X-6255Y8870D01*
X-6217Y8983D01*
X-6209Y9102D01*
X-6232Y9219D01*
X-6259Y9274D01*
X-6176Y9330D01*
X-6136Y9284D01*
X-6037Y9217D01*
X-5924Y9179D01*
X-5804Y9171D01*
X-5687Y9194D01*
X-5580Y9247D01*
X-5490Y9326D01*
X-5424Y9425D01*
X-5385Y9539D01*
X-5378Y9658D01*
X-5401Y9775D01*
X-5454Y9882D01*
X-5533Y9972D01*
X-5632Y10038D01*
X-5745Y10077D01*
X-5864Y10084D01*
D02*
G37*
G36*
X11257Y9615D02*
X11050D01*
Y9389D01*
X11257D01*
Y9615D01*
D02*
G37*
G36*
X13550Y9306D02*
Y9050D01*
X13806D01*
X13802Y9081D01*
X13771Y9156D01*
X13721Y9221D01*
X13656Y9271D01*
X13581Y9302D01*
X13550Y9306D01*
D02*
G37*
G36*
X12005Y9220D02*
X11700D01*
Y8954D01*
X12005D01*
Y9220D01*
D02*
G37*
G36*
X12350Y9211D02*
X12143D01*
Y8985D01*
X12350D01*
Y9211D01*
D02*
G37*
G36*
X13313Y9350D02*
X13306Y9300D01*
X13050D01*
Y9044D01*
X13081Y9048D01*
X13090Y9052D01*
X13182Y9013D01*
X13187Y9000D01*
X13194Y9050D01*
X13450D01*
Y9306D01*
X13419Y9302D01*
X13410Y9298D01*
X13318Y9337D01*
X13313Y9350D01*
D02*
G37*
G36*
X16556Y7900D02*
X16350D01*
Y7694D01*
X16368Y7697D01*
X16431Y7723D01*
X16485Y7765D01*
X16527Y7819D01*
X16553Y7882D01*
X16556Y7900D01*
D02*
G37*
G36*
X7596Y8761D02*
X7478Y8746D01*
X7368Y8700D01*
X7273Y8627D01*
X7200Y8532D01*
X7154Y8422D01*
X7139Y8304D01*
X7154Y8185D01*
X7200Y8075D01*
X7273Y7980D01*
X7368Y7907D01*
X7478Y7862D01*
X7596Y7846D01*
X7715Y7862D01*
X7825Y7907D01*
X7874Y7944D01*
X7944Y7874D01*
X7907Y7825D01*
X7862Y7715D01*
X7846Y7596D01*
X7862Y7478D01*
X7907Y7368D01*
X7949Y7313D01*
X8268Y7632D01*
D01*
X8268Y7632D01*
X8268Y7632D01*
D01*
X8587Y7951D01*
X8532Y7993D01*
X8422Y8038D01*
X8304Y8054D01*
X8185Y8038D01*
X8075Y7993D01*
X8026Y7956D01*
X7956Y8026D01*
X7993Y8075D01*
X8038Y8185D01*
X8054Y8304D01*
X8038Y8422D01*
X7993Y8532D01*
X7920Y8627D01*
X7825Y8700D01*
X7715Y8746D01*
X7596Y8761D01*
D02*
G37*
G36*
X-7951Y8587D02*
X-7993Y8532D01*
X-8038Y8422D01*
X-8054Y8304D01*
X-8038Y8185D01*
X-7993Y8075D01*
X-7956Y8026D01*
X-8026Y7956D01*
X-8075Y7993D01*
X-8185Y8038D01*
X-8304Y8054D01*
X-8422Y8038D01*
X-8532Y7993D01*
X-8627Y7920D01*
X-8700Y7825D01*
X-8746Y7715D01*
X-8761Y7596D01*
X-8746Y7478D01*
X-8700Y7368D01*
X-8627Y7273D01*
X-8532Y7200D01*
X-8422Y7154D01*
X-8304Y7139D01*
X-8185Y7154D01*
X-8075Y7200D01*
X-7980Y7273D01*
X-7907Y7368D01*
X-7862Y7478D01*
X-7846Y7596D01*
X-7862Y7715D01*
X-7907Y7825D01*
X-7944Y7874D01*
X-7874Y7944D01*
X-7825Y7907D01*
X-7715Y7862D01*
X-7596Y7846D01*
X-7478Y7862D01*
X-7368Y7907D01*
X-7313Y7949D01*
X-7632Y8268D01*
D01*
X-7632Y8268D01*
X-7632Y8268D01*
D01*
X-7951Y8587D01*
D02*
G37*
G36*
X12005Y8106D02*
X11700D01*
Y7840D01*
X12005D01*
Y8106D01*
D02*
G37*
G36*
X15750Y7350D02*
X15544D01*
X15547Y7332D01*
X15573Y7269D01*
X15615Y7215D01*
X15669Y7173D01*
X15732Y7147D01*
X15750Y7144D01*
Y7350D01*
D02*
G37*
G36*
X8304Y7526D02*
X8020Y7242D01*
X8075Y7200D01*
X8185Y7154D01*
X8304Y7139D01*
X8422Y7154D01*
X8532Y7200D01*
X8587Y7242D01*
X8304Y7526D01*
D02*
G37*
G36*
X8658Y7880D02*
X8374Y7596D01*
X8658Y7313D01*
X8700Y7368D01*
X8746Y7478D01*
X8761Y7596D01*
X8746Y7715D01*
X8700Y7825D01*
X8658Y7880D01*
D02*
G37*
G36*
X16056Y7350D02*
X15850D01*
Y7144D01*
X15868Y7147D01*
X15931Y7173D01*
X15985Y7215D01*
X16027Y7269D01*
X16053Y7332D01*
X16056Y7350D01*
D02*
G37*
G36*
X12657Y8215D02*
X12450D01*
Y7989D01*
X12657D01*
Y8215D01*
D02*
G37*
G36*
X-7242Y8587D02*
X-7526Y8304D01*
X-7242Y8020D01*
X-7200Y8075D01*
X-7154Y8185D01*
X-7139Y8304D01*
X-7154Y8422D01*
X-7200Y8532D01*
X-7242Y8587D01*
D02*
G37*
G36*
X16350Y8206D02*
Y8000D01*
X16556D01*
X16553Y8018D01*
X16527Y8081D01*
X16485Y8135D01*
X16431Y8177D01*
X16368Y8203D01*
X16350Y8206D01*
D02*
G37*
G36*
X-7596Y8761D02*
X-7715Y8746D01*
X-7825Y8700D01*
X-7880Y8658D01*
X-7596Y8374D01*
X-7313Y8658D01*
X-7368Y8700D01*
X-7478Y8746D01*
X-7596Y8761D01*
D02*
G37*
G36*
X12350Y8215D02*
X12143D01*
Y7989D01*
X12350D01*
Y8215D01*
D02*
G37*
G36*
X16250Y8206D02*
X16232Y8203D01*
X16169Y8177D01*
X16115Y8135D01*
X16100Y8116D01*
X16000D01*
X15985Y8135D01*
X15931Y8177D01*
X15868Y8203D01*
X15850Y8206D01*
Y7950D01*
X15800D01*
Y7900D01*
X15544D01*
X15547Y7882D01*
X15573Y7819D01*
X15615Y7765D01*
X15666Y7725D01*
Y7625D01*
X15615Y7585D01*
X15573Y7531D01*
X15547Y7468D01*
X15544Y7450D01*
X16056D01*
X16053Y7468D01*
X16027Y7531D01*
X15985Y7585D01*
X15934Y7625D01*
Y7725D01*
X15985Y7765D01*
X16000Y7784D01*
X16100D01*
X16115Y7765D01*
X16169Y7723D01*
X16232Y7697D01*
X16250Y7694D01*
Y7950D01*
Y8206D01*
D02*
G37*
%LPD*%
G36*
X3200Y-600D02*
X-3200D01*
Y7200D01*
X3200D01*
Y-600D01*
D02*
G37*
%LPC*%
G36*
X390Y1650D02*
X-242D01*
Y1345D01*
X-38D01*
Y1157D01*
X-242D01*
Y950D01*
X311D01*
Y1157D01*
X186D01*
Y1345D01*
X390D01*
Y1650D01*
D02*
G37*
G36*
X-15Y850D02*
X-242D01*
Y643D01*
X-15D01*
Y850D01*
D02*
G37*
G36*
X1998Y6960D02*
X1802D01*
X1740Y6948D01*
X1687Y6913D01*
X1652Y6860D01*
X1640Y6798D01*
Y6602D01*
X1652Y6540D01*
X1684Y6493D01*
X301Y5110D01*
X209Y5148D01*
Y5450D01*
X979Y6221D01*
X979Y6221D01*
X1004Y6257D01*
X1012Y6300D01*
Y6443D01*
X1060Y6452D01*
X1113Y6487D01*
X1148Y6540D01*
X1160Y6602D01*
Y6798D01*
X1148Y6860D01*
X1113Y6913D01*
X1060Y6948D01*
X998Y6960D01*
X802D01*
X740Y6948D01*
X687Y6913D01*
X652Y6860D01*
X640Y6798D01*
Y6602D01*
X652Y6540D01*
X687Y6487D01*
X740Y6452D01*
X788Y6443D01*
Y6346D01*
X105Y5663D01*
X12Y5701D01*
Y6443D01*
X60Y6452D01*
X113Y6487D01*
X148Y6540D01*
X160Y6602D01*
Y6798D01*
X148Y6860D01*
X113Y6913D01*
X60Y6948D01*
X-2Y6960D01*
X-198D01*
X-260Y6948D01*
X-313Y6913D01*
X-348Y6860D01*
X-360Y6798D01*
Y6602D01*
X-348Y6540D01*
X-313Y6487D01*
X-260Y6452D01*
X-212Y6443D01*
Y5801D01*
X-305Y5763D01*
X-952Y6411D01*
X-940Y6452D01*
X-887Y6487D01*
X-852Y6540D01*
X-840Y6602D01*
Y6798D01*
X-852Y6860D01*
X-887Y6913D01*
X-940Y6948D01*
X-1002Y6960D01*
X-1198D01*
X-1260Y6948D01*
X-1313Y6913D01*
X-1348Y6860D01*
X-1360Y6798D01*
Y6602D01*
X-1348Y6540D01*
X-1313Y6487D01*
X-1260Y6452D01*
X-1212Y6443D01*
Y6443D01*
D01*
Y6400D01*
Y6400D01*
D01*
D01*
Y6400D01*
D01*
D01*
X-1212D01*
D01*
D01*
D01*
D01*
X-1204Y6357D01*
X-1179Y6321D01*
X-409Y5550D01*
Y5248D01*
X-501Y5210D01*
X-1849Y6557D01*
X-1840Y6602D01*
Y6798D01*
X-1852Y6860D01*
X-1887Y6913D01*
X-1940Y6948D01*
X-2002Y6960D01*
X-2198D01*
X-2260Y6948D01*
X-2313Y6913D01*
X-2348Y6860D01*
X-2360Y6798D01*
Y6602D01*
X-2348Y6540D01*
X-2313Y6487D01*
X-2260Y6452D01*
X-2198Y6440D01*
X-2049D01*
X-606Y4997D01*
Y4687D01*
X-605Y4683D01*
Y4599D01*
X-603Y4588D01*
X-666Y4511D01*
X-711D01*
Y4466D01*
X-788Y4403D01*
X-799Y4405D01*
X-883D01*
X-887Y4406D01*
X-1197D01*
X-2484Y5693D01*
X-2452Y5740D01*
X-2440Y5802D01*
Y5998D01*
X-2452Y6060D01*
X-2487Y6113D01*
X-2540Y6148D01*
X-2602Y6160D01*
X-2798D01*
X-2860Y6148D01*
X-2913Y6113D01*
X-2948Y6060D01*
X-2960Y5998D01*
Y5802D01*
X-2948Y5740D01*
X-2913Y5687D01*
X-2860Y5652D01*
X-2798Y5640D01*
X-2749D01*
X-1410Y4301D01*
X-1448Y4209D01*
X-1750D01*
X-2440Y4899D01*
Y4998D01*
X-2452Y5060D01*
X-2487Y5113D01*
X-2540Y5148D01*
X-2602Y5160D01*
X-2798D01*
X-2860Y5148D01*
X-2913Y5113D01*
X-2948Y5060D01*
X-2960Y4998D01*
Y4802D01*
X-2948Y4740D01*
X-2913Y4687D01*
X-2860Y4652D01*
X-2798Y4640D01*
X-2602D01*
X-2540Y4652D01*
X-2522Y4664D01*
X-1963Y4105D01*
X-2001Y4012D01*
X-2443D01*
X-2452Y4060D01*
X-2487Y4113D01*
X-2540Y4148D01*
X-2602Y4160D01*
X-2798D01*
X-2860Y4148D01*
X-2913Y4113D01*
X-2948Y4060D01*
X-2960Y3998D01*
Y3802D01*
X-2948Y3740D01*
X-2913Y3687D01*
X-2860Y3652D01*
X-2798Y3640D01*
X-2602D01*
X-2540Y3652D01*
X-2487Y3687D01*
X-2452Y3740D01*
X-2443Y3788D01*
X-1901D01*
X-1863Y3695D01*
X-2450Y3109D01*
X-2487Y3113D01*
X-2540Y3148D01*
X-2602Y3160D01*
X-2798D01*
X-2860Y3148D01*
X-2913Y3113D01*
X-2948Y3060D01*
X-2960Y2998D01*
Y2802D01*
X-2948Y2740D01*
X-2913Y2687D01*
X-2860Y2652D01*
X-2798Y2640D01*
X-2602D01*
X-2540Y2652D01*
X-2487Y2687D01*
X-2452Y2740D01*
X-2440Y2802D01*
Y2808D01*
X-2421Y2821D01*
X-1650Y3591D01*
X-1348D01*
X-1310Y3499D01*
X-2649Y2160D01*
X-2798D01*
X-2860Y2148D01*
X-2913Y2113D01*
X-2948Y2060D01*
X-2960Y1998D01*
Y1802D01*
X-2948Y1740D01*
X-2913Y1687D01*
X-2860Y1652D01*
X-2798Y1640D01*
X-2649D01*
X-2611Y1548D01*
X-2779Y1379D01*
X-2804Y1343D01*
X-2812Y1300D01*
X-2812Y1300D01*
Y1157D01*
X-2860Y1148D01*
X-2913Y1113D01*
X-2948Y1060D01*
X-2960Y998D01*
Y802D01*
X-2948Y740D01*
X-2913Y687D01*
X-2860Y652D01*
X-2798Y640D01*
X-2602D01*
X-2540Y652D01*
X-2487Y687D01*
X-2452Y740D01*
X-2440Y802D01*
Y998D01*
X-2452Y1060D01*
X-2487Y1113D01*
X-2540Y1148D01*
X-2588Y1157D01*
Y1254D01*
X-1254Y2588D01*
X-700D01*
X-700Y2588D01*
X-657Y2596D01*
X-621Y2621D01*
X-501Y2740D01*
X-409Y2702D01*
Y2450D01*
X-753Y2105D01*
X-778Y2069D01*
X-780Y2055D01*
X-990D01*
Y1345D01*
X-786D01*
Y1157D01*
X-911D01*
Y643D01*
X-812D01*
Y157D01*
X-860Y148D01*
X-913Y113D01*
X-948Y60D01*
X-960Y-2D01*
Y-198D01*
X-948Y-260D01*
X-913Y-313D01*
X-860Y-348D01*
X-798Y-360D01*
X-602D01*
X-540Y-348D01*
X-487Y-313D01*
X-452Y-260D01*
X-440Y-198D01*
Y-2D01*
X-452Y60D01*
X-487Y113D01*
X-540Y148D01*
X-588Y157D01*
Y643D01*
X-358D01*
Y1157D01*
X-562D01*
Y1345D01*
X-358D01*
Y2055D01*
X-358Y2055D01*
X-358D01*
X-396Y2146D01*
X-304Y2237D01*
X-258Y2246D01*
X-192Y2240D01*
X-179Y2221D01*
X-106Y2148D01*
X-145Y2055D01*
X-242D01*
Y1750D01*
X390D01*
Y2021D01*
X402Y2026D01*
D01*
X482Y2059D01*
X788Y1754D01*
Y1357D01*
X740Y1348D01*
X687Y1313D01*
X652Y1260D01*
X640Y1198D01*
Y1002D01*
X652Y940D01*
X687Y887D01*
X740Y852D01*
X802Y840D01*
X998D01*
X1060Y852D01*
X1113Y887D01*
X1148Y940D01*
X1160Y1002D01*
Y1198D01*
X1148Y1260D01*
X1113Y1313D01*
X1060Y1348D01*
X1012Y1357D01*
Y1699D01*
X1105Y1737D01*
X1641Y1201D01*
X1640Y1198D01*
Y1002D01*
X1652Y940D01*
X1687Y887D01*
X1740Y852D01*
X1802Y840D01*
X1998D01*
X2060Y852D01*
X2113Y887D01*
X2148Y940D01*
X2160Y1002D01*
Y1198D01*
X2148Y1260D01*
X2113Y1313D01*
X2060Y1348D01*
X1998Y1360D01*
X1802D01*
X1799Y1359D01*
X406Y2753D01*
Y3113D01*
X405Y3117D01*
Y3201D01*
X397Y3244D01*
X372Y3280D01*
X375Y3289D01*
X511D01*
Y3334D01*
X588Y3397D01*
X599Y3395D01*
X683D01*
X687Y3394D01*
X1047D01*
X2441Y2001D01*
X2440Y1998D01*
Y1802D01*
X2452Y1740D01*
X2487Y1687D01*
X2540Y1652D01*
X2602Y1640D01*
X2798D01*
X2860Y1652D01*
X2913Y1687D01*
X2948Y1740D01*
X2960Y1802D01*
Y1998D01*
X2948Y2060D01*
X2913Y2113D01*
X2860Y2148D01*
X2798Y2160D01*
X2602D01*
X2599Y2159D01*
X1173Y3586D01*
X1175Y3591D01*
X1850D01*
X2441Y3001D01*
X2440Y2998D01*
Y2802D01*
X2452Y2740D01*
X2487Y2687D01*
X2540Y2652D01*
X2602Y2640D01*
X2798D01*
X2860Y2652D01*
X2913Y2687D01*
X2948Y2740D01*
X2960Y2802D01*
Y2998D01*
X2948Y3060D01*
X2913Y3113D01*
X2860Y3148D01*
X2798Y3160D01*
X2602D01*
X2599Y3159D01*
X1976Y3782D01*
X1978Y3788D01*
X2443D01*
X2452Y3740D01*
X2487Y3687D01*
X2540Y3652D01*
X2602Y3640D01*
X2798D01*
X2860Y3652D01*
X2913Y3687D01*
X2948Y3740D01*
X2960Y3802D01*
Y3998D01*
X2948Y4060D01*
X2913Y4113D01*
X2860Y4148D01*
X2798Y4160D01*
X2602D01*
X2540Y4148D01*
X2487Y4113D01*
X2452Y4060D01*
X2443Y4012D01*
X2101D01*
X2063Y4105D01*
X2599Y4641D01*
X2602Y4640D01*
X2798D01*
X2860Y4652D01*
X2913Y4687D01*
X2948Y4740D01*
X2960Y4802D01*
Y4998D01*
X2948Y5060D01*
X2913Y5113D01*
X2860Y5148D01*
X2798Y5160D01*
X2602D01*
X2540Y5148D01*
X2487Y5113D01*
X2452Y5060D01*
X2440Y4998D01*
Y4802D01*
X2441Y4799D01*
X1850Y4209D01*
X1348D01*
X1310Y4301D01*
X2779Y5771D01*
X2779Y5771D01*
X2804Y5807D01*
Y5807D01*
X2804D01*
D01*
D01*
D01*
D01*
D01*
D01*
X2804D01*
D01*
D01*
Y5807D01*
D01*
D01*
Y5807D01*
D01*
D01*
D01*
D01*
D01*
D01*
D01*
X2860Y5852D01*
Y5852D01*
X2860Y5852D01*
D01*
D01*
X2860Y5852D01*
X2913Y5887D01*
X2948Y5940D01*
X2960Y6002D01*
Y6198D01*
X2948Y6260D01*
X2913Y6313D01*
X2860Y6348D01*
X2798Y6360D01*
X2602D01*
X2540Y6348D01*
X2487Y6313D01*
X2452Y6260D01*
X2440Y6198D01*
Y6002D01*
X2452Y5940D01*
X2487Y5887D01*
X2303Y5612D01*
X1097Y4406D01*
X687D01*
X683Y4405D01*
X599D01*
X588Y4403D01*
X511Y4466D01*
Y4511D01*
X466D01*
X403Y4588D01*
X405Y4599D01*
Y4683D01*
X406Y4687D01*
Y4897D01*
X1949Y6440D01*
X1998D01*
X2060Y6452D01*
X2113Y6487D01*
X2148Y6540D01*
X2160Y6602D01*
Y6798D01*
X2148Y6860D01*
X2113Y6913D01*
X2060Y6948D01*
X1998Y6960D01*
D02*
G37*
G36*
X311Y850D02*
X85D01*
Y643D01*
X-12D01*
Y157D01*
X-60Y148D01*
X-113Y113D01*
X-148Y60D01*
X-160Y-2D01*
Y-50D01*
X360D01*
Y-2D01*
X348Y60D01*
X313Y113D01*
X260Y148D01*
X212Y157D01*
Y643D01*
X311D01*
Y850D01*
D02*
G37*
G36*
X50Y-150D02*
X-160D01*
Y-198D01*
X-148Y-260D01*
X-113Y-313D01*
X-60Y-348D01*
X2Y-360D01*
X50D01*
Y-150D01*
D02*
G37*
G36*
X360D02*
X150D01*
Y-360D01*
X198D01*
X260Y-348D01*
X313Y-313D01*
X348Y-260D01*
X360Y-198D01*
Y-150D01*
D02*
G37*
%LPD*%
D10*
X3372Y12825D02*
G03*
X1797Y13139I-3372J-12825D01*
G01*
X4329Y-12535D02*
G03*
X5807Y-11922I-4329J12535D01*
G01*
X6691Y-11454D02*
G03*
X8027Y-10561I-6691J11454D01*
G01*
X-8304Y7434D02*
Y7596D01*
X7434Y8304D02*
X7596D01*
X8304Y-7596D02*
Y-7434D01*
X-12665Y-13600D02*
X-11900D01*
X-12665Y-14400D02*
X-11900D01*
X731Y-2431D02*
X4600Y-6300D01*
Y-7000D02*
Y-6300D01*
D11*
X2857Y-1543D02*
X5900Y1500D01*
X13850Y10800D02*
X14300D01*
X14700Y11200D01*
X10850Y13150D02*
X12998D01*
X14198Y11950D01*
X14450D01*
X14700Y11700D01*
Y11200D02*
Y11700D01*
X12950Y13000D02*
X14300Y11650D01*
Y11400D02*
Y11650D01*
X10500Y13500D02*
X10850Y13150D01*
X16250Y0D02*
X16750D01*
X7253Y10653D02*
X8750Y12150D01*
X7253Y10547D02*
Y10653D01*
X12200Y9450D02*
X12660Y9910D01*
X15290D02*
X15350Y9850D01*
X12660Y9910D02*
X15290D01*
X9250Y9250D02*
X10000Y10000D01*
X11300D01*
X11850Y9450D01*
X12200D01*
X10900Y-13200D02*
X11435Y-13735D01*
X11800D01*
X16350Y-4450D02*
X16689D01*
X14450Y-2550D02*
X16350Y-4450D01*
X12450Y-2550D02*
X14450D01*
X13900Y-2350D02*
X16250Y0D01*
X12900Y-2350D02*
X13900D01*
X12200Y-1650D02*
X12900Y-2350D01*
X12200Y-1650D02*
Y-1450D01*
X16550Y4450D02*
X16689D01*
X15939Y5200D02*
X16689Y4450D01*
X10900Y5200D02*
X15939D01*
X12006Y9844D02*
X12213Y10050D01*
X14828D01*
X15578Y10800D01*
X13200Y8400D02*
X15146D01*
X15578Y8831D01*
X10197Y11050D02*
X10400Y10847D01*
Y10335D02*
Y10847D01*
X11000Y10335D02*
Y11000D01*
X9750Y11050D02*
X10197D01*
X9400Y11400D02*
X9750Y11050D01*
X9400Y11400D02*
Y11865D01*
X10150Y11450D02*
X10550D01*
X10000Y11600D02*
X10150Y11450D01*
X10000Y11600D02*
Y11865D01*
X10550Y11450D02*
X11000Y11000D01*
X10000Y12535D02*
X10585D01*
X9400Y12535D02*
Y12800D01*
X6854Y10704D02*
X8200Y12050D01*
Y12500D01*
X6854Y10000D02*
Y10704D01*
X8750Y12700D02*
X8800Y12750D01*
X8750Y12150D02*
Y12700D01*
X10006Y13406D02*
Y14200D01*
X9400Y12800D02*
X10006Y13406D01*
X10413Y13000D02*
X12950D01*
X10006Y13406D02*
X10413Y13000D01*
X9072Y6666D02*
X9906Y7500D01*
X11350D01*
X11400Y7550D01*
X9250Y9200D02*
X9350Y9300D01*
D12*
X-6600Y-4800D02*
X-4400Y-7000D01*
X-6600Y-4800D02*
Y100D01*
X-4400Y-7000D02*
X-4274Y-6874D01*
X15021Y-5444D02*
Y-5179D01*
X15311Y-4889D01*
Y-4450D01*
Y0D02*
Y689D01*
X15135Y865D02*
X15311Y689D01*
X14800Y865D02*
X15135D01*
X14800Y2935D02*
Y3350D01*
X15311Y3861D01*
Y4450D01*
D15*
X10000Y12535D02*
D03*
Y11865D02*
D03*
X9400Y11865D02*
D03*
Y12535D02*
D03*
X12400Y8265D02*
D03*
Y8935D02*
D03*
X14800Y2935D02*
D03*
Y2265D02*
D03*
Y865D02*
D03*
Y1535D02*
D03*
X15000Y-5465D02*
D03*
Y-6135D02*
D03*
X9600Y-14135D02*
D03*
Y-13465D02*
D03*
X11800Y-13735D02*
D03*
Y-13065D02*
D03*
X11000Y9665D02*
D03*
Y10335D02*
D03*
X10400Y9665D02*
D03*
Y10335D02*
D03*
D17*
X7800Y-14174D02*
D03*
Y-13426D02*
D03*
X11650Y8904D02*
D03*
Y8156D02*
D03*
D20*
X16295Y11530D02*
D03*
X16965D02*
D03*
X11654Y13550D02*
D03*
X12323D02*
D03*
X16265Y6800D02*
D03*
X16935D02*
D03*
X16265Y-2200D02*
D03*
X16935D02*
D03*
X16265Y-9800D02*
D03*
X16935D02*
D03*
X-13335Y-13600D02*
D03*
X-12665D02*
D03*
X-13335Y-14400D02*
D03*
X-12665D02*
D03*
X35Y900D02*
D03*
X-635D02*
D03*
D22*
X1900Y1100D02*
D03*
X2700Y3900D02*
D03*
D25*
X-100D02*
D03*
D26*
X294Y3113D02*
D03*
X97D02*
D03*
X-100D02*
D03*
X-297D02*
D03*
X-494D02*
D03*
Y4687D02*
D03*
X-297D02*
D03*
X-100D02*
D03*
X97D02*
D03*
X294D02*
D03*
D27*
X687Y4294D02*
D03*
Y4097D02*
D03*
Y3900D02*
D03*
Y3703D02*
D03*
Y3506D02*
D03*
X-887D02*
D03*
Y3703D02*
D03*
Y3900D02*
D03*
Y4097D02*
D03*
Y4294D02*
D03*
D30*
X0Y-4400D02*
X2600Y-7000D01*
X0Y-4400D02*
Y-2300D01*
X15000Y-5465D02*
X15021Y-5444D01*
X15000Y-6135D02*
X15515Y-6650D01*
X16800D01*
X14800Y1535D02*
Y2265D01*
X16815D01*
X1094Y3506D02*
X2700Y1900D01*
X687Y3506D02*
X1094D01*
X1897Y3703D02*
X2700Y2900D01*
X687Y3703D02*
X1897D01*
X687Y3900D02*
X2700D01*
X687Y4097D02*
X1897D01*
X2700Y4900D01*
X687Y4294D02*
X1144D01*
X2700Y5850D01*
Y6100D01*
X294Y4687D02*
Y4944D01*
X1900Y6550D01*
Y6700D01*
X97Y4687D02*
Y5497D01*
X900Y6300D01*
Y6700D01*
X-100Y4687D02*
Y6700D01*
X-297Y4687D02*
Y5597D01*
X-1100Y6400D02*
X-297Y5597D01*
X-1100Y6400D02*
Y6700D01*
X-494Y4687D02*
Y5044D01*
X-2100Y6650D02*
X-494Y5044D01*
X-1244Y4294D02*
X-887D01*
X-2700Y5750D02*
X-1244Y4294D01*
X-2700Y5750D02*
Y5900D01*
X-1797Y4097D02*
X-887D01*
X-2600Y4900D02*
X-1797Y4097D01*
X-2700Y4900D02*
X-2600D01*
X-2700Y3900D02*
X-887D01*
X-1697Y3703D02*
X-887D01*
X-2500Y2900D02*
X-1697Y3703D01*
X-2700Y2900D02*
X-2500D01*
X-1144Y3506D02*
X-887D01*
X-2700Y1950D02*
X-1144Y3506D01*
X-2700Y1900D02*
Y1950D01*
X-137Y3149D02*
X-100Y3113D01*
X-137Y3149D02*
Y3464D01*
X294Y2706D02*
X1900Y1100D01*
X294Y2706D02*
Y3113D01*
X100Y2600D02*
Y3000D01*
Y2600D02*
X900Y1800D01*
Y1100D02*
Y1800D01*
X-494Y2906D02*
Y3113D01*
X-700Y2700D02*
X-494Y2906D01*
X-1300Y2700D02*
X-700D01*
X-2700Y1300D02*
X-1300Y2700D01*
X-2700Y900D02*
Y1300D01*
X-100Y2300D02*
Y3113D01*
Y2300D02*
X74Y2126D01*
Y939D02*
X100Y913D01*
Y-100D02*
Y913D01*
X74Y939D02*
Y2126D01*
X-297Y2403D02*
Y3113D01*
X-674Y2026D02*
X-297Y2403D01*
X-700Y913D02*
X-674Y939D01*
X-700Y-100D02*
Y913D01*
X-674Y939D02*
Y2026D01*
D31*
X2600Y-3300D02*
X3522D01*
X1100Y-1800D02*
X2600Y-3300D01*
X-400Y-1800D02*
X1100D01*
X-3850Y-5250D02*
X-400Y-1800D01*
X-4400Y-7000D02*
X-3850Y-6450D01*
Y-5250D01*
X12369Y13703D02*
Y14200D01*
X12265Y13600D02*
X12369Y13703D01*
D32*
X3290Y-2661D02*
D03*
X-3246D02*
D03*
X12369Y14200D02*
D03*
X11581D02*
D03*
X8432D02*
D03*
X9219D02*
D03*
X10006D02*
D03*
X10794D02*
D03*
D33*
X2600Y-7000D02*
D03*
X16800Y-3614D02*
D03*
Y-5386D02*
D03*
Y-886D02*
D03*
Y886D02*
D03*
Y5386D02*
D03*
Y3614D02*
D03*
X-1400Y-7000D02*
D03*
X-400D02*
D03*
X600D02*
D03*
X1600D02*
D03*
X3600D02*
D03*
X4600D02*
D03*
X-3400D02*
D03*
X-2400D02*
D03*
D34*
X15816Y-3122D02*
D03*
Y-5878D02*
D03*
Y-1378D02*
D03*
Y1378D02*
D03*
Y5878D02*
D03*
Y3122D02*
D03*
X-1798Y13141D02*
D03*
X-802Y13239D02*
D03*
X-3372Y12825D02*
D03*
X-4328Y12535D02*
D03*
X-1700Y11128D02*
D03*
X-2680Y10932D02*
D03*
X-4772Y10199D02*
D03*
X-3848Y10581D02*
D03*
X-6691Y11454D02*
D03*
X-5809Y11926D02*
D03*
X-5834Y9628D02*
D03*
X-6666Y9072D02*
D03*
X-8023Y10557D02*
D03*
X-8796Y9923D02*
D03*
X-8304Y7596D02*
D03*
X-7596Y8304D02*
D03*
X-9072Y6666D02*
D03*
X-9628Y5834D02*
D03*
X-10557Y8023D02*
D03*
X-9923Y8797D02*
D03*
X-11454Y6691D02*
D03*
X-11926Y5809D02*
D03*
X8023Y10557D02*
D03*
X8796Y9923D02*
D03*
X6691Y11454D02*
D03*
X5809Y11926D02*
D03*
X2680Y10932D02*
D03*
X1700Y11128D02*
D03*
X11454Y6691D02*
D03*
X11926Y5809D02*
D03*
X10557Y8023D02*
D03*
X9923Y8796D02*
D03*
X7596Y8304D02*
D03*
X8304Y7596D02*
D03*
X6666Y9072D02*
D03*
X5834Y9628D02*
D03*
X9628Y5834D02*
D03*
X9072Y6666D02*
D03*
X13141Y1798D02*
D03*
X13239Y802D02*
D03*
X13141Y-1798D02*
D03*
X13239Y-802D02*
D03*
X12825Y-3372D02*
D03*
X12535Y-4328D02*
D03*
X11454Y-6691D02*
D03*
X11926Y-5809D02*
D03*
X11250Y-500D02*
D03*
Y500D02*
D03*
X10932Y-2680D02*
D03*
X11128Y-1700D02*
D03*
X10581Y-3848D02*
D03*
X10199Y-4772D02*
D03*
X9072Y-6666D02*
D03*
X9628Y-5834D02*
D03*
X10557Y-8023D02*
D03*
X9923Y-8796D02*
D03*
X8023Y-10557D02*
D03*
X8796Y-9923D02*
D03*
X8304Y-7596D02*
D03*
X7596Y-8304D02*
D03*
X5834Y-9628D02*
D03*
X6666Y-9072D02*
D03*
X6691Y-11454D02*
D03*
X5809Y-11926D02*
D03*
X-6666Y-9072D02*
D03*
X-5834Y-9628D02*
D03*
X-3848Y-10581D02*
D03*
X-4772Y-10199D02*
D03*
X-2680Y-10932D02*
D03*
X-1700Y-11128D02*
D03*
X-11128Y-1700D02*
D03*
X-10932Y-2680D02*
D03*
X-7596Y-8304D02*
D03*
X-8304Y-7596D02*
D03*
X-9628Y-5834D02*
D03*
X-9072Y-6666D02*
D03*
X-10199Y-4772D02*
D03*
X-10581Y-3848D02*
D03*
X-10557Y-8023D02*
D03*
X-9923Y-8796D02*
D03*
X-6691Y-11454D02*
D03*
X-5809Y-11926D02*
D03*
X500Y-11250D02*
D03*
X-500D02*
D03*
X-11250Y-500D02*
D03*
Y500D02*
D03*
X1798Y-13141D02*
D03*
X802Y-13239D02*
D03*
X-3372Y-12825D02*
D03*
X-4328Y-12535D02*
D03*
X-1798Y-13141D02*
D03*
X-802Y-13239D02*
D03*
X-13141Y1798D02*
D03*
X-13239Y802D02*
D03*
X-13141Y-1798D02*
D03*
X-13239Y-802D02*
D03*
X-11454Y-6691D02*
D03*
X-11926Y-5809D02*
D03*
X-12825Y-3372D02*
D03*
X-12535Y-4328D02*
D03*
X10199Y4772D02*
D03*
X10581Y3848D02*
D03*
X11128Y1700D02*
D03*
X10932Y2680D02*
D03*
X3848Y10581D02*
D03*
X4772Y10199D02*
D03*
X12825Y3372D02*
D03*
X12535Y4328D02*
D03*
X4772Y-10199D02*
D03*
X3848Y-10581D02*
D03*
X3372Y12825D02*
D03*
X4328Y12535D02*
D03*
X1798Y13141D02*
D03*
X802Y13239D02*
D03*
X-500Y11250D02*
D03*
X500D02*
D03*
X-10581Y3848D02*
D03*
X-10199Y4772D02*
D03*
X3372Y-12825D02*
D03*
X4328Y-12535D02*
D03*
X1700Y-11128D02*
D03*
X2680Y-10932D02*
D03*
X-12825Y3372D02*
D03*
X-12535Y4328D02*
D03*
X-10932Y2680D02*
D03*
X-11128Y1700D02*
D03*
X-8023Y-10557D02*
D03*
X-8796Y-9923D02*
D03*
D35*
X15578Y-12768D02*
D03*
Y-10800D02*
D03*
Y-8831D02*
D03*
Y8831D02*
D03*
Y10800D02*
D03*
Y12768D02*
D03*
D36*
X14200Y-14028D02*
D03*
Y-7572D02*
D03*
Y7572D02*
D03*
Y14028D02*
D03*
D37*
X-10774Y11310D02*
D03*
X-12054Y13200D02*
D03*
X-11310Y-10772D02*
D03*
X-13200Y-12051D02*
D03*
D38*
X-9593Y13200D02*
D03*
X-13200Y-9591D02*
D03*
D39*
X16689Y4450D02*
D03*
X15311D02*
D03*
X16689Y0D02*
D03*
X15311D02*
D03*
X16689Y-4450D02*
D03*
X15311D02*
D03*
X-4400Y-7000D02*
D03*
D40*
X5900Y1500D02*
D03*
X2857Y-1543D02*
D03*
X3522Y-3300D02*
D03*
X0Y-2300D02*
D03*
X13850Y10800D02*
D03*
X10500Y13500D02*
D03*
X7253Y10547D02*
D03*
X10900Y-13200D02*
D03*
X12450Y-2550D02*
D03*
X12200Y-1450D02*
D03*
X11400Y7550D02*
D03*
X10900Y5200D02*
D03*
X10500Y-12500D02*
D03*
X11000D02*
D03*
X-7400Y-13600D02*
D03*
X-11900D02*
D03*
X8763Y-14263D02*
D03*
X10350Y-14450D02*
D03*
X16800Y-6650D02*
D03*
X16815Y2265D02*
D03*
X-11900Y-14400D02*
D03*
X13000Y9350D02*
D03*
X12006Y9844D02*
D03*
X13200Y8400D02*
D03*
X10197Y11050D02*
D03*
X10800Y11200D02*
D03*
X10585Y12535D02*
D03*
X6854Y10000D02*
D03*
X8200Y12500D02*
D03*
X8800Y12750D02*
D03*
X9250Y9200D02*
D03*
X14300Y11400D02*
D03*
X13500Y9000D02*
D03*
X15350Y9850D02*
D03*
X731Y-2431D02*
D03*
X-6600Y100D02*
D03*
D41*
X15800Y7400D02*
D03*
Y7950D02*
D03*
X16300D02*
D03*
X15200Y11900D02*
D03*
X14800Y12250D02*
D03*
X14400Y12600D02*
D03*
X12900D02*
D03*
X7750Y13250D02*
D03*
X7250D02*
D03*
X7750Y13750D02*
D03*
X6750D02*
D03*
X6250D02*
D03*
X7250Y14250D02*
D03*
X6750D02*
D03*
X6250D02*
D03*
X5750D02*
D03*
X5250D02*
D03*
X-11250Y-12000D02*
D03*
X-11750Y-12250D02*
D03*
X-12000Y-12750D02*
D03*
X-9500Y-11750D02*
D03*
X-10000D02*
D03*
X-10500D02*
D03*
X14500Y-8750D02*
D03*
Y-9500D02*
D03*
Y-10250D02*
D03*
Y-11000D02*
D03*
D42*
X12164Y10964D02*
D03*
X12636D02*
D03*
Y11436D02*
D03*
X12164D02*
D03*
X136Y4136D02*
D03*
X-336D02*
D03*
Y3664D02*
D03*
X136D02*
D03*
D43*
X-100Y6700D02*
D03*
X-2700Y2900D02*
D03*
Y1900D02*
D03*
Y3900D02*
D03*
Y4900D02*
D03*
Y5900D02*
D03*
Y900D02*
D03*
X900Y1100D02*
D03*
X-700Y-100D02*
D03*
X100D02*
D03*
X2700Y1900D02*
D03*
Y2900D02*
D03*
Y4900D02*
D03*
Y6100D02*
D03*
X1900Y6700D02*
D03*
X900D02*
D03*
X-1100D02*
D03*
X-2100D02*
D03*
D44*
X-674Y1700D02*
D03*
X74D02*
D03*
M02*
